<svg width="106" height="142" viewBox="0 0 106 142" fill="none" xmlns="http://www.w3.org/2000/svg">
<g clip-path="url(#clip0_570_428)">
<path fill-rule="evenodd" clip-rule="evenodd" d="M58.7543 0.0607482C57.9405 0.171395 57.7739 0.315814 57.7441 0.936875L57.7215 1.41154L59.0891 1.50834C62.0966 1.72143 68.3189 3.0694 71.032 4.09574C71.7758 4.37709 72.7501 4.64402 73.1973 4.68896C73.9703 4.76654 74.0184 4.75255 74.1791 4.40238C74.4826 3.74105 74.0582 3.4597 71.488 2.61847C67.7671 1.40066 63.2313 0.330228 60.9957 0.142426C60.3694 0.0897169 59.7608 0.0292359 59.6433 0.00789797C59.5259 -0.0135813 59.1259 0.0103002 58.7543 0.0607482ZM31.67 2.9815C29.4293 3.63563 27.2874 4.42245 25.9045 5.09933C24.6505 5.71304 20.9782 7.85828 20.4237 8.30087C20.3454 8.36347 19.833 8.71872 19.2849 9.09051C14.8696 12.0853 14.5159 12.4167 14.5159 13.5572C14.5159 14.024 14.5466 14.0589 14.9569 14.0589C15.3057 14.0589 15.5716 13.8855 16.2269 13.2311C16.6827 12.7758 17.364 12.2238 17.741 12.0045C18.1178 11.7853 18.4914 11.5519 18.5708 11.486C18.7166 11.3652 20.0082 10.4294 21.6516 9.25429C22.1406 8.90455 22.6504 8.5548 22.7842 8.47708C22.9181 8.39936 23.3707 8.10473 23.7899 7.82225C26.2322 6.17668 29.0894 4.93089 31.1841 4.59796C33.6246 4.2102 34.2941 3.82795 33.8122 3.0978C33.6287 2.81984 33.47 2.75583 32.9836 2.76388C32.6526 2.76925 32.0615 2.86718 31.67 2.9815ZM53.5931 4.31209C53.2799 4.37483 52.8636 4.48731 52.6678 4.56192C52.4415 4.64812 51.5351 4.64911 50.1765 4.56461C47.4601 4.39546 43.359 4.62339 40.6386 5.09481C38.0216 5.54827 38.1519 5.51139 30.6735 7.91438C22.5654 10.5196 21.5737 10.9988 18.9919 13.5581C17.4483 15.0882 16.7856 16.0495 16.0608 17.8101C15.6354 18.8434 15.5901 19.1051 15.5003 21.0537C15.3618 24.06 15.1222 25.429 14.1409 28.8258C13.3787 31.4636 12.3758 33.5767 11.0725 35.2904C10.6146 35.8925 9.93908 36.8464 9.57137 37.4101C8.99923 38.287 8.89531 38.5574 8.85118 39.2828C8.80762 39.9993 8.85089 40.1981 9.13091 40.5657C10.2369 42.0179 13.4928 44.0168 17.8613 45.9256C18.8792 46.3703 19.776 46.7822 19.8543 46.8409C19.9326 46.8995 20.237 47.0243 20.5305 47.1181C20.8242 47.2121 21.0655 47.3316 21.0669 47.3839C21.0683 47.4361 21.1609 48.1166 21.2726 48.8961C21.3842 49.6756 21.5452 50.8838 21.6304 51.581C21.7978 52.9507 22.3782 55.9468 22.6973 57.088C23.0198 58.2415 24.0843 64.4636 24.2688 66.2732C24.3162 66.7395 24.4167 67.5662 24.492 68.1103C24.5674 68.6543 24.7541 70.1169 24.9072 71.3604C25.2508 74.1554 25.6201 76.4784 26.1875 79.4151C26.4278 80.6587 26.7141 82.2484 26.8237 82.9479C27.0142 84.1635 27.4618 86.7164 27.9634 89.4482C28.092 90.1477 28.3218 91.4513 28.4741 92.3451C28.6264 93.2389 28.8502 94.5425 28.9713 95.2419C29.0926 95.9414 29.279 97.0937 29.3856 97.8025C29.4924 98.5115 29.677 99.5925 29.7962 100.205C29.9152 100.817 30.1828 102.431 30.3906 103.791C30.5986 105.151 30.8873 106.9 31.0321 107.677C31.177 108.455 31.3369 109.377 31.3874 109.726C31.438 110.076 31.599 110.903 31.7453 111.563C31.8915 112.224 32.1768 113.528 32.3791 114.46C32.7395 116.122 33.2055 117.858 33.7446 119.547C35.0473 123.63 35.1793 123.915 35.9976 124.399C36.3473 124.606 37.7268 125.316 39.0631 125.977C41.7127 127.287 41.6721 127.25 42.2115 128.874C43.24 131.971 43.6254 132.475 45.7634 133.525C47.4212 134.338 49.2938 134.915 51.6001 135.322C53.3753 135.635 53.7556 135.648 60.9246 135.652C68.214 135.657 68.4344 135.649 69.8608 135.332C71.9436 134.868 75.278 133.749 76.1287 133.228C76.8967 132.757 77.7568 131.823 78.185 130.994C78.5737 130.241 78.6343 129.955 78.7252 128.45C78.8688 126.066 79.1593 125.49 80.9646 124.009C82.836 122.474 82.9525 121.97 83.0433 115.025C83.0799 112.228 83.212 108.603 83.3367 106.971C83.4615 105.339 83.6589 102.255 83.7752 100.117C83.8913 97.9798 84.0179 95.945 84.0563 95.5952C84.0947 95.2455 84.2256 93.7511 84.3472 92.2744C84.4686 90.7977 84.6612 88.9536 84.7751 88.1764C85.0555 86.2626 85.3647 82.2268 85.5502 78.0597C85.6346 76.1626 85.7677 73.4977 85.8459 72.1376C85.924 70.7775 86.0503 68.4247 86.1265 66.9091C86.3291 62.8795 86.5218 60.4946 86.755 59.137C87.1473 56.8522 87.7206 53.6926 87.9216 52.7074C88.1474 51.6003 88.6019 49.1903 88.9076 47.4789C89.0185 46.8571 89.072 46.0622 89.0263 45.7125C88.9259 44.944 88.7739 45.0989 91.938 42.7437C94.9686 40.4878 96.1458 39.4855 97.5262 37.9852C98.3127 37.1305 98.6289 36.6877 98.5616 36.5351C98.5082 36.4142 98.4189 35.9243 98.3633 35.4463C98.239 34.3788 97.9435 33.9431 96.6473 32.9167C95.4025 31.9307 95.0908 31.5365 94.1351 29.739C93.707 28.9338 92.8499 27.6497 92.2305 26.8852C90.9832 25.3459 90.5978 24.6695 89.9398 22.8644C89.4884 21.6261 89.2003 21.0807 87.8836 18.972C87.1049 17.725 86.6307 16.4474 86.4807 15.192C86.4298 14.7661 86.1914 13.9712 85.951 13.4256C84.2082 9.47163 80.5268 7.32766 72.9538 5.85647C68.4258 4.97681 67.3601 4.85486 63.1311 4.7322C60.8605 4.66635 58.234 4.5143 57.2944 4.39419C55.4365 4.15678 54.4749 4.13545 53.5931 4.31209ZM18.8043 4.5396C17.908 4.92764 17.2638 5.55859 17.0729 6.23533C16.968 6.6074 16.9471 6.91941 17.0221 6.9936C17.2412 7.21037 18.9959 6.52346 19.7128 5.94041C20.345 5.42604 20.8371 4.65632 20.6874 4.41581C20.5752 4.23564 19.3148 4.31859 18.8043 4.5396ZM53.8067 7.42573C53.2136 7.73591 52.4074 7.76148 50.421 7.53341C49.2771 7.40199 48.3744 7.40383 46.2926 7.5416C43.3669 7.7352 40.4788 8.05767 39.9689 8.24759C39.7891 8.31457 39.1037 8.47708 38.4458 8.6085C37.7878 8.74006 36.1223 9.21868 34.7445 9.67215C33.3666 10.1256 30.8301 10.9475 29.1076 11.4984C23.4248 13.3163 23.2532 13.4152 20.4237 16.5113C18.9361 18.1391 18.5946 18.7935 18.6729 19.8667C18.7211 20.5296 18.8236 20.7961 19.2286 21.3122C19.8328 22.0821 21.1688 23.1991 22.132 23.7401C22.5235 23.9599 22.9399 24.2142 23.0574 24.305C23.6644 24.7752 25.243 25.2306 27.1857 25.4961C32.4252 26.2123 34.0742 26.3783 37.8626 26.5717C40.094 26.6856 42.8166 26.8413 43.9128 26.9177C46.4848 27.097 51.9187 27.0973 54.3761 26.9183C55.4331 26.8411 57.7713 26.6833 59.5722 26.5674C65.1388 26.2091 68.8419 25.5659 72.6691 24.2927C76.7781 22.9258 79.3142 21.4773 81.4086 19.3009C83.3398 17.2942 83.7087 15.6086 82.6733 13.5212C81.8677 11.8968 80.6024 10.9533 78.2211 10.2009C74.3109 8.96559 70.8711 8.26342 67.0279 7.91608C65.7459 7.8002 63.9924 7.64052 63.1311 7.56125C61.6579 7.42559 55.253 7.11668 54.6034 7.14989C54.4393 7.15837 54.0807 7.28244 53.8067 7.42573ZM47.8276 9.33865C44.2043 9.74747 42.4953 10.0815 36.6722 11.5192C30.9559 12.9306 29.8219 13.2619 28.2534 13.9786C25.5372 15.2197 24.9173 15.5969 23.8298 16.6696C22.7059 17.7783 22.3447 19.1672 22.8999 20.2469C23.2259 20.8809 23.5059 21.137 24.3161 21.5414C25.1717 21.9686 27.6373 22.639 28.7517 22.7475C29.2606 22.7971 30.0135 22.8952 30.4248 22.9655C30.8362 23.0358 32.9823 23.2614 35.1938 23.4669C38.6806 23.7909 39.6502 23.8304 42.4892 23.7632C44.29 23.7207 45.9556 23.6529 46.1905 23.6125C46.4254 23.5719 47.8343 23.4348 49.3215 23.3078C50.8088 23.1808 52.0624 23.0543 52.1072 23.0267C52.1522 22.9992 53.1774 22.8752 54.3858 22.7515C55.5941 22.6277 56.967 22.4643 57.4368 22.3884C58.7499 22.1767 66.2981 21.407 67.0625 21.407C68.2223 21.407 71.7822 20.7279 73.4011 20.1978C75.9472 19.3642 77.4747 18.3718 78.2645 17.0383C78.6029 16.4669 78.647 16.2488 78.6387 15.1893C78.6283 13.8752 78.4555 13.3941 77.7711 12.7742C75.9339 11.1101 72.0948 10.2576 63.7717 9.66536C59.8791 9.38825 49.3074 9.17177 47.8276 9.33865ZM49.2189 12.2954C49.162 12.3551 47.9768 12.4161 46.5853 12.4312C43.8248 12.4611 42.7949 12.6394 39.0726 13.7317C38.1331 14.0074 37.044 14.3166 36.6525 14.4186C36.2611 14.5207 35.3962 14.7728 34.7307 14.9788C34.0652 15.185 33.2136 15.4409 32.8382 15.5477C31.2716 15.9934 29.8767 16.5259 28.5094 17.2005C26.9577 17.9661 25.5955 18.9529 25.9259 19.072C27.6028 19.6767 27.9484 19.6993 28.625 19.2488C30.503 17.9985 35.2942 16.6475 39.4997 16.1825C40.2044 16.1046 41.2934 15.9753 41.9198 15.8953C43.7548 15.6609 48.8893 15.4803 57.7114 15.34C68.7154 15.1649 71.6406 15.3827 73.9068 16.5459C74.2794 16.7373 74.341 16.7219 74.9804 16.2765C76.1211 15.482 75.9392 14.711 74.4788 14.15C72.3803 13.344 68.6219 12.8035 64.5279 12.7188C62.8984 12.6852 60.9246 12.5919 60.1416 12.5115C58.3497 12.3275 49.3583 12.1498 49.2189 12.2954ZM47.4717 18.3106C43.326 18.4991 38.7056 19.1249 35.4563 19.9378C33.3735 20.459 33.4355 20.5193 36.2394 20.6996C40.4462 20.9701 47.042 20.8094 50.6036 20.3497C51.4649 20.2387 52.618 20.1089 53.1661 20.0615C53.7141 20.0141 55.5719 19.7858 57.2944 19.554C59.017 19.3223 61.6291 18.9739 63.0992 18.7801C64.5694 18.5863 65.9146 18.3708 66.0887 18.3012C66.4782 18.1457 50.9265 18.1536 47.4717 18.3106ZM83.8352 20.7602C82.5739 22.0094 80.3848 23.9506 80.2371 23.9506C80.1704 23.9506 79.915 24.0924 79.6698 24.2657C77.2221 25.9958 71.4972 27.8474 66.1918 28.625C57.5427 29.8926 49.1934 30.1487 38.3608 29.4787C28.5719 28.8733 26.8506 28.6803 24.3544 27.908C22.8592 27.4454 21.7011 26.8342 19.6623 25.4316C18.9303 24.9279 18.2491 24.5159 18.1486 24.5159C17.9338 24.5159 17.7952 24.9536 17.791 25.6464C17.7893 25.9184 17.6337 26.8722 17.4453 27.766C16.696 31.3204 15.5014 33.9731 12.8558 37.9568C12.3596 38.7042 11.9534 39.3539 11.9534 39.4007C11.9534 39.4876 13.6247 40.6253 13.7524 40.6253C13.7913 40.6253 14.027 40.7733 14.2763 40.9541C15.7272 42.0068 21.4275 44.357 24.4318 45.1413C24.7329 45.22 25.5557 45.4393 26.2604 45.6288C32.0534 47.1868 34.3136 47.7224 38.7879 48.5965C41.8796 49.2006 46.0745 49.5447 51.3154 49.6244C54.4151 49.6715 57.432 49.6405 58.9498 49.5458C61.7102 49.3736 66.184 48.901 67.1883 48.6754C67.5406 48.5962 68.5336 48.4062 69.3949 48.253C72.9427 47.6217 75.4502 46.9709 77.7228 46.0912C78.5955 45.7533 80.0647 45.2453 81.7088 44.713C87.9003 42.7082 88.2876 42.4963 91.7772 39.2029C93.2754 37.7889 94.5585 36.7296 95.1261 36.4383L95.5731 36.2089L94.8273 35.5317C93.6336 34.4482 93.0273 33.612 91.8091 31.3694C91.1604 30.1751 90.3927 29.0782 89.3139 27.8045C88.8022 27.2005 88.2029 26.3246 87.982 25.8583C87.3305 24.4831 86.9761 23.6777 86.9761 23.5729C86.9761 23.5188 86.848 23.2001 86.6914 22.8648C86.5348 22.5293 86.2754 21.9738 86.1148 21.6304C85.7787 20.9112 85.0353 19.8526 84.8665 19.8526C84.8033 19.8526 84.3393 20.261 83.8352 20.7602ZM94.4662 24.4403C94.3398 24.6317 94.2363 24.8424 94.2363 24.9084C94.2363 25.1121 94.9675 25.7215 96.1889 26.5356C98.2034 27.8785 99.2852 28.926 100.015 30.2411C100.41 30.9527 100.497 31.1182 100.713 31.5814C100.949 32.0843 101.425 33.8192 101.644 34.9729C101.71 35.3226 101.768 36.1884 101.773 36.8968C101.78 37.979 101.736 38.2424 101.497 38.5442C100.853 39.3568 101.434 40.0213 102.393 39.5694C103.123 39.2255 103.383 38.5001 103.379 36.8099C103.376 35.2983 103.176 34.031 102.744 32.7825C102.365 31.687 101.644 30.2139 101.084 29.3912C100.841 29.0336 100.642 28.7015 100.642 28.653C100.642 28.5124 99.2349 26.9042 98.5256 26.2342C97.7272 25.4803 96.6662 24.7721 95.7549 24.3844C94.8767 24.0111 94.7458 24.0168 94.4662 24.4403ZM82.803 26.1323C81.529 27.3123 78.5332 28.7276 75.3027 29.6758C74.9504 29.7793 74.1496 30.0606 73.5232 30.3011C70.5324 31.4494 65.9051 32.4454 60.0704 33.1966C52.0409 34.2304 48.2452 34.3936 37.7914 34.1545L32.0971 34.0242L30.5787 33.5102C28.6194 32.8467 27.6651 32.6339 25.4316 32.3627C23.57 32.1368 23.5558 32.132 21.5719 31.0554C20.9273 30.7057 20.3547 30.6466 20.0963 30.9031C19.607 31.3888 20.3 32.1898 21.8505 32.9299C22.8262 33.3957 23.2296 33.4959 25.041 33.7217C27.8188 34.0679 28.8676 34.2982 30.3888 34.8963C31.8243 35.4605 32.4496 35.5382 37.9338 35.8335C43.3004 36.1224 51.3309 35.8195 57.0097 35.1138C60.0213 34.7394 63.8129 34.1719 65.1097 33.9012C65.65 33.7884 66.1228 33.7268 66.1605 33.7641C66.1982 33.8015 66.0981 34.1684 65.9381 34.5792C65.7783 34.99 65.1831 36.6205 64.6156 38.2027C63.1673 42.2409 62.0476 44.3423 60.713 45.5274C59.9711 46.1862 59.9356 46.4484 60.529 46.8879C61.3132 47.4686 61.9399 46.8482 63.6832 43.7648C64.6287 42.0927 65.2107 40.8552 66.2562 38.2937C67.4797 35.2962 67.6675 34.6392 67.4702 34.0457C67.3778 33.7681 67.3318 33.5116 67.3678 33.4757C67.4608 33.3835 70.3505 32.8362 70.4137 32.8988C70.4423 32.9274 70.1724 33.7713 69.8138 34.7743C69.4552 35.7774 69.0291 36.9795 68.867 37.4458C68.7047 37.9121 68.5253 38.3573 68.4681 38.435C68.411 38.5127 68.2823 38.8307 68.1821 39.1415C67.5723 41.0345 66.2651 43.195 64.9828 44.4298C64.4643 44.9291 63.9762 45.4562 63.898 45.601C63.5616 46.225 64.2664 46.8113 65.0337 46.5458C65.9804 46.2182 68.4273 42.481 69.7888 39.2828C70.5787 37.4276 71.3438 35.1523 71.5391 34.0779C71.6176 33.6458 71.5764 33.4542 71.3348 33.1299C71.1682 32.9062 71.032 32.6941 71.032 32.6582C71.032 32.6223 71.2401 32.5492 71.4946 32.4955C72.1187 32.3641 78.1305 30.3896 79.2887 29.9356C80.7459 29.3644 82.4408 28.4512 83.0496 27.9093C83.6937 27.3359 84.4136 26.2742 84.4136 25.8977C84.4136 25.7013 83.9212 25.3544 83.657 25.3647C83.6425 25.3653 83.2582 25.7108 82.803 26.1323ZM102.804 26.4589L102.514 26.7062L102.927 27.978C103.154 28.6775 103.401 29.377 103.476 29.5324C103.551 29.6878 103.788 30.2284 104.004 30.7335C104.498 31.8943 104.576 31.9926 104.923 31.9025C105.788 31.6778 105.675 30.2065 104.621 27.978C104.25 27.1948 103.462 26.2116 103.204 26.2116C103.143 26.2116 102.963 26.3228 102.804 26.4589ZM7.9798 29.8234C7.15086 30.1805 5.68912 31.8232 4.95897 33.2182C3.70124 35.6213 3.1254 37.914 3.02333 40.9252C2.95087 43.058 2.95898 43.1432 3.26007 43.4421C3.68743 43.8663 4.0009 43.7661 4.33729 43.0982C4.59112 42.5943 4.61859 42.2881 4.59083 40.2757C4.55439 37.6405 4.69646 36.9108 5.59033 35.1409C6.39294 33.5517 7.45009 32.1994 8.39449 31.5539C9.32794 30.9158 9.53336 30.6637 9.53336 30.1564C9.53336 29.5715 8.88648 29.4328 7.9798 29.8234ZM78.2968 30.7015C77.9379 30.99 77.5326 32.0939 77.2996 33.4184C77.0113 35.056 76.0453 38.069 75.6005 38.7176C75.5471 38.7953 75.2845 39.3676 75.0169 39.9894C74.5042 41.1802 74.1375 41.8373 72.9182 43.7507C72.1673 44.9292 72.0456 45.3574 72.3182 45.8631C72.6131 46.41 73.2657 46.0733 74.1162 44.9353C74.8173 43.9973 76.2134 41.4113 76.6514 40.2392C76.7609 39.9463 77.0375 39.2617 77.2658 38.7176C77.4943 38.1736 77.8896 36.9654 78.1443 36.0327C78.3989 35.1 78.7293 33.9115 78.8785 33.3913C79.5643 30.9989 79.3219 29.8775 78.2968 30.7015ZM81.0355 30.903C80.9523 31.0042 80.7755 31.6273 80.6421 32.288C80.2267 34.3474 79.7476 35.8635 78.6992 38.435C78.2484 39.5407 76.6988 42.5522 75.9362 43.8048C75.5608 44.4215 75.4906 44.9946 75.7583 45.2603C76.0584 45.5582 76.4268 45.4446 76.9974 44.8782C77.4983 44.3809 77.9015 43.6546 79.0511 41.1775C79.2529 40.7429 79.6698 39.8526 79.9779 39.1992C81.3659 36.254 81.9901 34.0751 82.0373 32.0113L82.0647 30.8042L81.6255 30.7617C81.384 30.7382 81.1185 30.8018 81.0355 30.903ZM1.60274 31.7804C0.931806 32.3408 0.508149 33.4435 0.50032 34.6495C0.495195 35.4307 0.550714 35.7253 0.738342 35.9119C0.969816 36.1419 0.999426 36.1404 1.28727 35.8819C1.72787 35.4865 2.10199 34.6898 2.35425 33.6099C2.47568 33.09 2.6727 32.4773 2.79214 32.2481C3.03102 31.7896 2.95542 31.6464 2.40236 31.511C2.12733 31.4436 1.9239 31.5123 1.60274 31.7804ZM84.2543 32.5716C84.1276 32.6451 83.9419 32.9134 83.8415 33.1678C83.6539 33.6438 83.3193 34.439 82.2852 36.8669C81.9574 37.6364 81.4389 38.7045 81.1331 39.24C80.247 40.7925 79.9141 42.2453 80.3208 42.7864C80.7237 43.3225 81.4772 42.6157 81.7638 41.4329C81.8162 41.2165 82.4018 39.9556 83.0651 38.6311C84.9466 34.8737 85.5542 33.2196 85.2376 32.7166C85.0458 32.4116 84.6347 32.351 84.2543 32.5716ZM73.6938 32.8885C73.3157 33.1671 72.4735 35.3148 71.1032 39.4948C70.6557 40.8595 69.5893 43.1389 69.0536 43.8755C68.8558 44.1475 68.4243 44.6638 68.0949 45.023C67.6433 45.5155 67.4716 45.8371 67.397 46.3314C67.2339 47.4115 67.8054 47.7265 68.7688 47.0874C69.5727 46.5543 71.9286 41.7294 73.1662 38.0817C73.4168 37.3434 73.7076 36.5485 73.8127 36.3153C74.9675 33.7525 75.0529 32.7119 74.1082 32.7119C74.0121 32.7119 73.8256 32.7915 73.6938 32.8885ZM51.0696 36.492C50.9493 36.6279 50.8035 36.8982 50.7456 37.0925C50.5028 37.9078 48.9241 40.942 48.1047 42.1683C47.0329 43.7724 45.6155 45.2216 44.5346 45.8185C42.7685 46.7939 42.66 47.9182 44.3585 47.6445C45.2735 47.4972 47.8698 45.1263 49.3093 43.1238C50.1636 41.9355 51.2244 40.0832 51.6545 39.0292C52.042 38.0793 52.2595 36.6025 52.0436 36.3881C51.8186 36.1648 51.311 36.2191 51.0696 36.492ZM61.1283 37.2692C60.8295 37.8327 60.3529 38.7388 60.0693 39.2828C59.7856 39.8269 59.3922 40.5582 59.1951 40.9079C58.9979 41.2577 58.6572 41.8618 58.438 42.2504C57.5312 43.8579 57.0452 44.533 56.5147 44.9223C55.8711 45.3945 55.6387 46.0371 55.9865 46.3823C56.2974 46.6911 56.8024 46.5205 57.6795 45.8108C58.303 45.3064 59.9281 43.1823 59.9281 42.872C59.9281 42.8213 60.3147 42.0923 60.7873 41.2522C61.7218 39.5909 62.259 38.4011 62.5667 37.3123C62.7957 36.5019 62.6746 36.2447 62.0636 36.2447C61.7219 36.2447 61.6021 36.3759 61.1283 37.2692ZM54.4525 36.8955C54.1103 37.2353 53.0748 38.8509 52.3679 40.1478C50.4188 43.7242 50.0061 44.3069 48.654 45.3913C47.6887 46.1655 47.1158 46.9672 47.1158 47.5439C47.1158 47.8769 47.4481 47.9155 48.2984 47.6812C48.8253 47.536 50.2775 46.2472 51.0741 45.2179C51.4048 44.7904 52.8102 42.3894 52.8102 42.2518C52.8102 42.1816 54.4033 39.6869 54.9317 38.9296C55.475 38.1511 55.7094 37.1645 55.4194 36.8766C55.1451 36.6043 54.738 36.6122 54.4525 36.8955ZM57.5397 37.3323C57.3007 37.7057 56.5236 39.0815 55.8129 40.3899C55.1021 41.6983 54.1654 43.3043 53.7312 43.9587C53.0772 44.9443 52.3831 46.2537 52.3831 46.5014C52.3831 46.649 53.4351 46.5392 53.7957 46.354C54.7007 45.8896 55.4007 44.8142 57.5712 40.5546C58.7204 38.299 58.933 37.7793 58.8998 37.3045C58.8637 36.7853 58.8244 36.7357 58.4174 36.6964C58.0252 36.6586 57.9247 36.7315 57.5397 37.3323ZM84.8407 37.4784C84.4689 37.6196 83.7055 38.5103 83.619 38.904C83.5732 39.1124 83.5079 39.3705 83.4739 39.4774C83.3716 39.7999 83.7071 40.0601 84.2256 40.0601C85.0884 40.0601 86.0182 38.6751 85.782 37.7413C85.6893 37.3747 85.3579 37.2822 84.8407 37.4784ZM41.7062 39.0165C40.4501 40.7632 39.6856 42.1314 39.7433 42.5303C39.7772 42.7653 39.8836 42.8124 40.3467 42.797C40.9963 42.7755 41.0777 42.6923 42.5103 40.5873C43.027 39.828 43.5404 38.9454 43.6513 38.6262C43.8325 38.104 43.8284 38.0188 43.6116 37.781C43.1334 37.2566 42.8307 37.4527 41.7062 39.0165ZM46.0482 38.0635C45.4951 38.4045 45.191 38.7556 44.2586 40.1307C43.8369 40.7525 43.1587 41.6328 42.7513 42.087C41.332 43.6696 41.1462 44.8231 42.3595 44.5208C42.8599 44.3962 43.9497 43.359 44.6259 42.3637C44.9324 41.9128 45.5721 41.0669 46.0477 40.484C47.3066 38.9413 47.5429 38.5749 47.5429 38.1659C47.5429 37.8361 47.489 37.7991 47.0091 37.7996C46.7155 37.7999 46.2831 37.9186 46.0482 38.0635ZM37.0064 38.4042C36.8096 38.5766 36.4965 38.9617 36.3109 39.2598L35.9734 39.802L36.2707 40.0971C36.5485 40.3728 36.6076 40.3793 37.1663 40.1963C37.6184 40.0482 37.8637 39.8453 38.1695 39.3666C38.6407 38.6291 38.6461 38.5971 38.3507 38.3037C38.035 37.9904 37.427 38.0358 37.0064 38.4042ZM85.2678 46.5834C81.6863 48.181 74.5795 50.1933 69.3237 51.0981C63.0075 52.1854 58.7606 52.5422 52.1696 52.5392C43.806 52.5355 38.6389 51.8657 30.6735 49.7531C26.4448 48.6317 24.3991 48.1405 24.3185 48.2277C24.1743 48.384 24.4483 51.2482 24.7657 52.9003C24.9244 53.7268 25.3035 55.4205 25.6081 56.6641C26.4364 60.0458 27.1735 64.6948 27.4678 68.3929C27.6577 70.7801 28.6786 76.9987 29.2428 79.2032C29.3521 79.6306 29.5151 80.4573 29.605 81.0402C29.6949 81.6231 29.8261 82.2908 29.8964 82.524C30.0108 82.9025 30.582 87.2348 30.8093 89.4482C30.97 91.0128 31.7546 95.8489 32.3106 98.7041C32.8826 101.641 33.3135 103.96 33.6623 105.982C34.2811 109.568 34.7424 112.022 34.9504 112.835C35.0598 113.263 35.3458 114.439 35.5861 115.449C36.1682 117.897 36.6804 119.514 37.54 121.618C37.7589 122.154 37.9887 122.282 42.0621 124.149C45.7428 125.836 49.5789 127.024 53.4508 127.678C55.7964 128.073 62.0915 128.218 65.4367 127.952C68.5981 127.701 72.1199 126.808 74.1464 125.743C75.1191 125.232 76.0737 124.576 75.9799 124.483C75.9506 124.453 74.8714 124.771 73.5816 125.187C70.948 126.038 68.3659 126.488 66.8225 126.365C65.8147 126.285 65.48 126.103 65.48 125.635C65.48 125.13 65.7607 124.988 66.7541 124.987C68.254 124.987 71.6836 124.296 73.4521 123.639C75.3752 122.925 76.9148 122.551 77.632 122.624L78.3815 122.701L79.0252 121.901C79.3793 121.462 79.7091 121.032 79.7582 120.947C79.9434 120.627 80.1437 116.947 80.2875 111.226C80.3694 107.971 80.4048 105.276 80.3662 105.238C80.3278 105.199 79.7972 105.361 79.1875 105.598C78.0097 106.054 76.1593 106.514 74.5198 106.757C73.9717 106.839 73.1068 106.994 72.5979 107.102C71.2388 107.392 68.6955 107.658 68.2802 107.555C67.5405 107.37 67.2453 106.722 67.6967 106.274C67.8611 106.111 68.2107 106.052 69.0135 106.051C69.7076 106.051 70.99 105.868 72.5267 105.552C74.7659 105.091 75.4885 104.938 78.4346 104.295C79.0577 104.159 79.7246 104.099 80.0361 104.151L80.57 104.24L80.5728 103.203C80.5742 102.633 80.6698 101.34 80.7849 100.329C81.1198 97.3897 81.1356 97.43 79.8513 97.9295C79.2408 98.1671 78.3199 98.3539 77.0839 98.491C76.0651 98.604 74.623 98.8329 73.8791 98.9995C73.1353 99.1663 72.1424 99.3893 71.6726 99.495C70.4593 99.7683 68.6947 99.7553 68.4085 99.4712C68.1313 99.196 68.1232 98.9307 68.3857 98.7145C68.6966 98.4585 71.0597 97.8717 72.7028 97.6428C73.5177 97.5292 74.232 97.4071 74.2903 97.3714C74.5018 97.2416 78.6375 96.5845 79.2045 96.5906C79.5248 96.594 80.028 96.6822 80.3224 96.7865C80.6419 96.8997 80.8911 96.9228 80.9402 96.844C80.9855 96.7712 81.0795 95.8405 81.1491 94.7758C81.2186 93.7108 81.3099 92.6171 81.3519 92.3451C81.8994 88.8042 82.8451 78.6244 82.8466 76.2557L82.8477 74.5092L82.488 74.5988C82.2902 74.6481 81.7937 74.8386 81.3847 75.0223C80.6884 75.3349 80.3371 75.4905 78.7193 76.203C78.367 76.3582 77.5982 76.6902 77.011 76.9411C76.4238 77.1919 75.7512 77.4792 75.5163 77.5796C74.0252 78.2172 73.0155 78.5249 72.6842 78.4424C72.2602 78.3368 71.977 77.8911 72.0964 77.5175C72.1832 77.2461 73.1711 76.7644 73.9973 76.5906C74.2581 76.5356 75.187 76.1548 76.0615 75.7442C79.5083 74.1256 80.7975 73.5897 82.1594 73.2096L82.9659 72.9846L83.0427 71.9606C83.2376 69.3637 83.4376 65.1867 83.3703 65.1198C83.3292 65.079 82.0577 65.4579 80.5448 65.9616C78.0786 66.7829 76.0218 67.3997 74.8045 67.6831C71.8226 68.3773 70.0462 68.7462 69.685 68.7462C69.0953 68.7462 68.5837 68.3776 68.6394 67.9927C68.712 67.491 69.6786 67.1044 72.0285 66.6372C74.1718 66.211 75.6077 65.8648 77.3669 65.3502C79.6502 64.6822 80.8928 64.3063 82.0811 63.9242L83.3787 63.5071L83.4678 62.7704C83.5986 61.6899 83.579 61.1154 83.4114 61.1154C83.33 61.1154 83.0258 61.2352 82.7352 61.3817C81.5596 61.9747 77.3558 63.2918 74.3774 64.0005C73.5161 64.2054 72.3079 64.5085 71.6927 64.674C70.5364 64.985 69.5789 65.069 69.1457 64.8971C68.8526 64.7808 68.8035 64.0494 69.0746 63.8363C69.3877 63.59 70.6421 63.2528 71.8149 63.0995C72.4413 63.0177 73.2741 62.8589 73.6656 62.7467C74.0571 62.6343 75.018 62.3708 75.801 62.1608C77.3903 61.7346 81.4443 60.3089 82.8134 59.6946C83.3034 59.4748 83.7288 59.2116 83.7585 59.11C84.1934 57.6226 84.4098 55.7456 84.1463 55.7456C84.0187 55.7456 83.3683 56.0005 82.3494 56.4499C82.0363 56.5881 81.6199 56.7482 81.4241 56.8058C81.2284 56.8635 81.0042 56.958 80.9259 57.0159C80.6182 57.2437 76.1499 58.6578 72.1797 59.7838C71.2058 60.0599 70.3089 60.3392 70.1867 60.4042C70.0644 60.469 69.6713 60.5658 69.3132 60.6191C68.586 60.7273 67.6154 60.4234 67.6154 60.0873C67.6154 59.5645 69.1168 58.8711 70.7473 58.6409C71.9649 58.469 76.1806 57.1919 78.6481 56.2474C79.1179 56.0675 79.9507 55.7505 80.4988 55.5429C81.0469 55.3353 81.6234 55.1081 81.78 55.038C81.9366 54.9679 82.5966 54.7066 83.2464 54.4574C83.9046 54.205 84.4916 53.8866 84.5712 53.7391C84.7651 53.3793 85.1254 51.4672 85.1254 50.7976V50.2551L84.3069 50.747C81.6264 52.3576 76.1122 54.5238 72.3132 55.4584C71.9609 55.5452 71.5445 55.6704 71.3879 55.7369C70.6758 56.0392 68.184 56.7353 67.5162 56.8184C66.4261 56.9541 66.0495 56.8239 66.0495 56.3114C66.0495 56.0304 66.1575 55.8231 66.3789 55.6791C66.82 55.3921 68.3007 54.9175 69.2981 54.7431C70.1153 54.6002 70.9356 54.3782 73.5232 53.5993C75.5385 52.9927 77.0594 52.4708 77.2174 52.3318C77.2917 52.2663 77.4367 52.2128 77.5393 52.2128C77.642 52.2128 77.9974 52.0906 78.3294 51.9411C78.6612 51.7917 79.4116 51.4653 79.9968 51.2156C80.9533 50.8076 81.9827 50.2877 83.4091 49.4926C84.1661 49.0707 85.8109 47.9889 85.8909 47.8603C86.0328 47.6322 86.1557 46.278 86.0335 46.2878C85.9646 46.2931 85.6201 46.4263 85.2678 46.5834ZM93.1686 46.9867C92.5188 47.2309 91.9684 48.4194 92.158 49.1694C92.2712 49.6169 92.7611 49.6494 93.2807 49.2437C93.6961 48.9193 94.1418 47.8829 94.0706 47.4065C94.0152 47.035 93.5798 46.8322 93.1686 46.9867ZM15.0247 49.2908C14.7361 49.5002 14.6158 49.0583 16.2041 53.6259C17.0137 55.954 17.3472 57.2111 17.9289 60.1262C18.529 63.1326 18.684 64.83 18.569 67.1351C18.4783 68.9532 18.4948 69.1841 18.7572 69.7726C18.9152 70.1275 19.1768 70.488 19.3384 70.5739C19.6006 70.7132 19.6658 70.6652 19.946 70.1266C20.3335 69.3818 20.4673 67.053 20.2281 65.2134C19.6106 60.4607 19.0443 57.8049 17.7723 53.6966C16.8719 50.7884 16.5473 49.9702 16.1043 49.4926C15.7063 49.0634 15.4133 49.0087 15.0247 49.2908ZM27.8443 51.5793C27.717 51.7056 27.6141 51.9158 27.6157 52.0462C27.6205 52.4515 28.4298 57.6893 28.8203 59.8436C29.3682 62.8654 29.8923 66.2506 30.4719 70.5126C30.7911 72.8596 30.9057 73.5872 31.3958 76.3769C32.1352 80.5857 32.6022 83.6359 32.8755 86.0436C33.1675 88.6163 33.394 89.4125 33.9211 89.7211C34.1285 89.8426 34.2332 89.8067 34.455 89.5385C34.9461 88.9444 34.7861 86.8901 33.9529 83.0892C33.2404 79.8396 32.7218 76.4137 32.0915 70.7952C31.8742 68.8572 31.3247 65.1112 30.9619 63.0937C30.8431 62.4331 30.6196 61.1931 30.465 60.3382C30.3105 59.4832 30.1182 58.4022 30.0376 57.9359C29.8578 56.8951 29.2414 53.6015 28.9928 52.3541C28.8284 51.5284 28.7729 51.4312 28.4428 51.3926C28.2409 51.3689 27.9716 51.453 27.8443 51.5793ZM13.3179 56.7152C13.2173 56.877 13.614 59.1086 13.873 59.8372C14.0911 60.4509 14.7214 61.1035 15.1031 61.1109C15.8562 61.1254 15.3262 57.7006 14.4392 56.8201C14.1974 56.58 13.4459 56.5098 13.3179 56.7152ZM59.1451 68.1969C57.4166 68.5879 55.5488 69.6859 54.4473 70.9585C54.0558 71.4107 53.6494 71.877 53.544 71.9945C52.505 73.1546 50.2361 76.8436 49.4018 78.7296C49.063 79.4953 48.6664 80.3913 48.5204 80.7207C48.3743 81.0502 48.2547 81.3504 48.2547 81.3877C48.2547 81.4251 48.1032 81.7915 47.918 82.2018C47.4991 83.1301 46.5289 85.925 46.0435 87.6024C44.7595 92.0393 45.5259 95.5777 48.1279 97.2264C48.6638 97.5659 49.7955 97.9284 49.9233 97.8014C50.046 97.6797 50.2388 96.513 50.6033 93.6875C51.0089 90.5448 51.302 89.599 52.5807 87.309C52.9632 86.624 55.0624 83.7821 55.75 83.0186C55.8551 82.902 56.1573 82.5522 56.4218 82.2413C56.6863 81.9305 57.3118 81.1992 57.8118 80.6163C59.978 78.0912 60.8238 76.7591 61.49 74.8225C62.0337 73.2424 62.0696 68.7724 61.5427 68.2495C61.3038 68.0123 60.0792 67.9855 59.1451 68.1969ZM78.8617 68.757C77.9613 69.0664 76.8402 69.4512 76.3704 69.6121C74.8524 70.1324 73.2232 70.5691 72.2227 70.7238C71.1151 70.8951 70.5535 71.2255 70.4906 71.7428C70.4564 72.024 70.5379 72.1342 70.8848 72.277C71.1254 72.3759 71.5665 72.4242 71.8652 72.3845C72.5595 72.2919 75.6569 71.4487 78.2211 70.6541C79.3172 70.3143 80.6236 69.921 81.1242 69.7799C81.7793 69.5953 82.1184 69.4112 82.3342 69.123L82.6342 68.7227L82.298 68.4518C81.7614 68.0191 80.7475 68.1093 78.8617 68.757ZM65.4832 71.2359C65.4745 75.1905 64.2229 78.4292 61.3124 82.0294C60.0946 83.5355 60.2448 83.353 58.6374 85.2795C55.1223 89.4927 53.8089 92.5948 53.8072 96.6876L53.8067 97.9917L54.2693 97.7145C54.5239 97.562 55.5715 97.0307 56.5975 96.5338C59.7332 95.0151 60.5791 94.4004 62.0835 92.547C64.3693 89.7311 66.3682 85.1778 67.1348 81.0402C67.4742 79.2085 67.4719 75.932 67.13 74.0545C66.8561 72.5514 66.2199 70.7355 65.7652 70.1593L65.4863 69.806L65.4832 71.2359ZM79.004 79.0623C78.0539 79.3272 76.5911 79.821 76.0857 80.0471C75.6528 80.241 75.3256 80.3143 74.1827 80.4737C72.8058 80.6657 72.286 80.9645 72.3424 81.5311C72.3738 81.8471 72.4839 81.9881 72.7787 82.0904C73.2901 82.2679 74.8025 82.0141 76.4288 81.4781C77.1013 81.2566 78.2922 80.9038 79.0752 80.6947C80.4848 80.3178 81.1012 79.9749 81.3992 79.4014C81.7431 78.7395 80.6937 78.5909 79.004 79.0623ZM78.9329 82.8098C77.7634 83.8105 74.9857 84.991 71.9565 85.775C69.8906 86.3095 68.9352 86.6839 68.5454 87.1115C68.2922 87.3892 68.292 87.4089 68.5407 87.6818C68.8869 88.0617 69.5705 88.0467 71.2108 87.6237C73.7517 86.9683 75.5198 86.3127 77.794 85.1823C79.9802 84.0958 80.2909 83.8873 80.5137 83.3581C80.7466 82.8049 80.6628 82.5111 80.2398 82.3985C79.6973 82.2541 79.5155 82.3113 78.9329 82.8098ZM87.6426 83.1245C87.6084 83.1829 87.5353 83.6757 87.4799 84.2197C87.4246 84.7637 87.1866 86.3217 86.9512 87.6818C86.4133 90.7883 86.2184 95.106 86.4008 99.8795C86.5419 103.573 86.686 104.642 87.7383 109.797C88.0079 111.118 88.3666 112.931 88.5355 113.824C88.8588 115.537 89.0314 115.934 89.6189 116.316C89.9005 116.499 90.0178 116.514 90.1508 116.381C90.4221 116.111 90.3376 114.176 90.0023 112.976C89.8393 112.394 89.6597 111.541 89.6031 111.082L89.5002 110.248L90.0165 110.332C91.0173 110.493 91.2562 109.667 90.8871 107.324C90.657 105.864 90.5886 102.921 90.7629 101.998C90.8925 101.313 90.6972 100.032 90.4096 99.679C90.0749 99.2686 89.5741 99.4328 89.3201 100.036C88.984 100.835 88.9185 103.111 89.1678 105.329C89.4252 107.619 89.4594 108.878 89.2639 108.878C89.1912 108.878 89.0588 108.513 88.9698 108.066C88.8808 107.619 88.7514 107.063 88.6821 106.829C88.5557 106.404 88.4159 105.415 88.0923 102.661C87.6366 98.7811 87.9887 90.5715 88.7796 86.6346C89.0578 85.2501 88.9655 84.1567 88.5153 83.5003C88.2103 83.0559 87.7891 82.8744 87.6426 83.1245ZM51.1134 86.8126C50.9265 87.1592 50.9154 87.3992 51.0865 87.3992C51.2259 87.3992 51.4407 86.6993 51.3339 86.5932C51.2972 86.5568 51.1981 86.6556 51.1134 86.8126ZM78.0075 88.0316C77.6552 88.1323 76.7904 88.4717 76.0857 88.7857C74.7242 89.3927 73.0724 89.8526 71.6752 90.0142C70.0366 90.2037 69.1405 90.7143 69.2099 91.4193C69.2491 91.8164 69.2996 91.8539 69.8476 91.8934C70.5858 91.9467 72.3655 91.5355 74.8756 90.7316C75.9327 90.393 77.0217 90.0688 77.2957 90.0112C78.0723 89.8477 79.1872 89.3086 79.5167 88.9374C80.0119 88.3793 80.0432 88.1149 79.6327 87.9599C79.1727 87.7864 78.8091 87.8024 78.0075 88.0316ZM79.5735 91.7326C79.456 91.7756 79.0123 91.9699 78.5875 92.1643C77.4065 92.7053 73.9137 93.5803 71.7217 93.8842C69.9212 94.1341 68.855 94.8618 69.4055 95.4656C69.7301 95.8217 70.4309 95.816 72.2406 95.4423C76.6675 94.5283 79.6676 93.5649 80.7755 92.7015C81.0491 92.4882 81.0489 92.4814 80.7614 92.0975C80.4783 91.7195 80.0064 91.5745 79.5735 91.7326ZM33.6731 93.9802C33.2446 94.4057 33.5358 95.03 34.1627 95.03C34.6667 95.03 35.0836 94.4092 34.8536 94.0011C34.6807 93.6946 33.9735 93.6822 33.6731 93.9802ZM34.3001 97.936C34.1193 98.4083 34.1238 99.0783 34.3123 99.6942C34.4661 100.197 34.6988 102.043 35.0873 105.84C35.45 109.386 35.8639 112.761 36.3045 115.763C36.8405 119.416 37.0007 119.799 38.5177 121.054C39.8448 122.152 42.1024 123.673 43.1611 124.181C44.9914 125.061 45.8691 125.412 46.2368 125.412C47.2938 125.412 47.2014 124.245 46.1193 123.928C45.5922 123.773 43.4343 122.741 42.7766 122.329C38.8488 119.869 38.3574 119.282 38.0113 116.635C37.9261 115.983 37.7318 114.655 37.5796 113.683C37.263 111.662 36.9692 109.168 36.5761 105.165C36.4251 103.628 36.2369 101.975 36.1578 101.491C36.0788 101.007 36.0132 100.326 36.0122 99.9759C36.0097 99.0896 35.7639 98.3037 35.3661 97.9088C34.9173 97.4634 34.4769 97.4745 34.3001 97.936ZM77.452 100.398C76.8725 100.625 76.1999 100.853 75.9573 100.904C75.7147 100.956 75.4522 101.047 75.3739 101.107C75.2109 101.232 72.1691 102.125 71.1032 102.361C70.7117 102.448 69.9109 102.584 69.3237 102.664C68.024 102.84 67.7579 102.915 67.4374 103.194C66.8504 103.706 67.3549 104.357 68.3384 104.356C69.4369 104.356 72.0758 103.82 73.9503 103.216C74.4201 103.064 75.4642 102.743 76.2706 102.502C78.7694 101.754 79.758 101.147 79.4392 100.556C79.2868 100.273 78.8571 99.9709 78.6219 99.9807C78.558 99.9834 78.0316 100.171 77.452 100.398ZM26.53 106.959C26.4209 107.241 26.8523 110.011 27.2075 111.308C27.6451 112.905 28.3806 113.445 28.7653 112.45C29.0612 111.685 28.4738 108.714 27.7587 107.359C27.4957 106.861 27.3707 106.759 27.0246 106.759C26.7951 106.759 26.5726 106.849 26.53 106.959ZM77.6516 108.407C77.495 108.441 76.7263 108.628 75.9433 108.823C73.845 109.344 71.9011 109.698 70.1955 109.87C67.7029 110.12 67.5532 110.147 67.0769 110.435C66.5534 110.751 66.4758 111.195 66.9045 111.422C67.432 111.703 68.9265 111.738 70.3914 111.504C75.4082 110.705 78.5036 109.976 79.204 109.429C80.1147 108.718 79.1511 108.084 77.6516 108.407ZM76.7975 112.492C76.4843 112.603 76.0999 112.753 75.9433 112.824C74.9424 113.282 68.9864 114.74 66.3464 115.175C64.8763 115.417 64.2898 115.653 64.0498 116.098C63.7478 116.658 63.9616 116.792 65.1553 116.791C67.0228 116.79 69.6162 116.277 73.3809 115.164C74.0856 114.956 75.0145 114.695 75.4451 114.586C77.6508 114.024 78.4346 113.58 78.4346 112.892C78.4346 112.294 77.7953 112.138 76.7975 112.492ZM76.7975 116.031C76.0928 116.139 74.5874 116.49 73.4521 116.811C69.1205 118.035 68.8526 118.086 66.2334 118.184C64.0109 118.267 63.7638 118.302 63.5687 118.558C63.3111 118.897 63.3012 118.991 63.4874 119.336C63.7041 119.738 64.6787 119.817 67.0884 119.629C69.3339 119.453 71.2085 119.102 74.2605 118.285C75.2643 118.017 76.5055 117.725 77.0187 117.638C78.6792 117.355 79.6204 116.543 78.9087 116.008C78.599 115.775 78.4612 115.776 76.7975 116.031ZM78.1499 119.553C77.7975 119.66 76.9648 119.916 76.2992 120.123C72.4389 121.324 68.4295 121.955 65.5418 121.815C63.3536 121.709 62.9176 121.81 62.9176 122.424C62.9176 122.967 63.1491 123.132 64.1794 123.322C66.1609 123.688 73.6154 122.743 76.0145 121.822C76.2886 121.716 76.801 121.584 77.1534 121.527C78.0575 121.381 79.2265 120.785 79.4153 120.373C79.6236 119.92 79.6156 119.821 79.3498 119.557C79.088 119.298 79.0006 119.297 78.1499 119.553ZM74.9468 128.623C72.3521 130.028 66.8599 130.952 61.3516 130.909C55.8774 130.867 49.7227 130.009 45.7279 128.731C45.4568 128.645 45.4077 128.68 45.4081 128.963C45.4105 130.503 48.0335 131.667 53.522 132.566C55.7101 132.924 56.1728 132.95 60.284 132.958C64.7147 132.965 65.3992 132.918 69.0744 132.343C71.1936 132.012 72.7276 131.638 74.0262 131.137C74.941 130.784 74.9629 130.763 75.3551 129.869C75.9227 128.576 75.7886 128.167 74.9468 128.623ZM84.0204 130.252C83.9416 130.349 83.6381 130.905 83.3459 131.488C82.1768 133.821 80.7634 135.477 79.3705 136.146C78.5761 136.528 78.0583 137.272 78.2891 137.7C78.6829 138.43 80.2902 137.698 81.9873 136.015C83.5154 134.5 83.7403 134.207 84.38 132.901C84.7597 132.126 84.915 131.604 84.9577 130.958L85.0162 130.075H84.59C84.3556 130.075 84.0993 130.155 84.0204 130.252ZM35.1104 130.876C35.0581 130.928 35.0154 131.176 35.0154 131.427C35.0154 132.118 35.8509 133.263 38.28 135.903C39.5418 137.275 41.112 138.173 43.9128 139.126C45.8005 139.768 47.6515 140.506 48.5394 140.97C49.4132 141.427 49.979 141.489 50.2548 141.16C50.5518 140.804 50.2484 140.23 49.5005 139.732C48.8501 139.299 48.4907 139.164 45.7634 138.333C42.3145 137.281 39.5414 135.316 37.3993 132.405C37.0556 131.938 36.5657 131.381 36.311 131.169C35.873 130.803 35.3198 130.668 35.1104 130.876ZM84.1726 135.288C83.3835 135.856 82.9681 136.418 83.0188 136.85C83.1074 137.604 84.4633 137.316 85.339 136.357C86.2475 135.362 86.2866 135.26 85.8466 135.026C85.3657 134.77 84.7611 134.865 84.1726 135.288ZM36.1302 137.459C35.7032 137.8 35.7234 138.094 36.1984 138.448C37.3132 139.28 38.7374 139.819 39.0782 139.538C39.45 139.232 39.3151 138.754 38.7011 138.203C37.7611 137.36 36.6541 137.04 36.1302 137.459ZM60.1759 140.451C59.4614 140.704 59.2163 140.925 59.2163 141.316C59.2163 141.768 59.9847 142.006 61.4228 142C62.5564 141.995 63.487 141.71 63.487 141.367C63.487 140.975 63.1328 140.664 62.4622 140.466C61.5714 140.204 60.888 140.199 60.1759 140.451Z" fill="#D4B7AA"/>
</g>
<defs>
<clipPath id="clip0_570_428">
<rect width="105" height="142" fill="white" transform="translate(0.5)"/>
</clipPath>
</defs>
</svg>
