<svg width="108" height="142" viewBox="0 0 108 142" fill="none" xmlns="http://www.w3.org/2000/svg">
<g clip-path="url(#clip0_570_3)">
<path fill-rule="evenodd" clip-rule="evenodd" d="M20.4345 0.432832C19.4689 1.02498 18.4208 2.06222 18.3178 2.52788C18.2255 2.94554 18.5706 3.77346 18.837 3.77346C19.128 3.77346 21.6716 1.44754 22.1435 0.749894C22.6998 -0.072564 21.5934 -0.277689 20.4345 0.432832ZM25.6534 2.45973C23.9384 2.81276 22.274 3.46829 21.3855 4.14089C20.5862 4.74577 20.3147 5.58446 20.6685 6.35543C20.9668 7.00564 21.416 6.78163 22.5481 5.41795C22.8744 5.02491 24.1495 4.33286 25.3662 3.88847C26.1168 3.61423 26.4963 3.57855 28.7479 3.57001C31.5489 3.55938 32.2001 3.42715 32.2001 2.86873C32.2001 2.18983 31.8623 2.0937 29.5118 2.10349C27.772 2.11091 27.003 2.18185 25.6534 2.45973ZM59.9586 2.74979C59.1119 2.79778 54.898 3.23462 51.9974 3.57519C50.99 3.69342 49.3414 3.82173 48.3339 3.86035C46.1156 3.94528 45.9097 3.98222 45.8038 4.31369C45.5754 5.02855 46.1603 5.31259 47.861 5.31259C49.0209 5.31259 50.5493 5.1868 57.1405 4.54918C63.0839 3.9741 62.8193 4.02168 62.9864 3.49907C63.0346 3.34796 63.005 3.0961 62.9205 2.93925C62.7601 2.64163 62.3402 2.61477 59.9586 2.74979ZM84.7248 3.66852C84.5161 3.82845 84.4185 4.15768 84.4601 4.5601C84.4689 4.64643 84.7141 4.75599 85.0047 4.80356C86.2265 5.00337 88.14 6.01374 89.0406 6.9347C89.6565 7.56435 90.2995 8.6507 90.5443 9.47526C90.7494 10.1663 91.1179 10.2639 91.653 9.76881C91.9361 9.50688 91.9677 9.37759 91.8958 8.77509C91.7834 7.8316 91.245 6.96549 90.0477 5.8019C88.9486 4.73374 87.7607 4.05414 86.3841 3.70602C85.3636 3.44786 85.0224 3.44016 84.7248 3.66852ZM76.3037 7.70371C73.94 7.76346 70.7062 7.88113 69.1175 7.96508C64.7523 8.19609 62.5564 8.19777 46.3612 7.98257C30.0174 7.76542 28.4119 7.80347 25.5776 8.47496C21.1083 9.53374 20.5593 10.1062 19.7932 14.5045C19.2875 17.4077 19.2169 17.6257 18.7818 17.6258C17.8794 17.6264 15.0527 18.4753 13.8119 19.1185C12.1246 19.9932 11.9052 20.1871 11.1129 21.5047C9.71803 23.8242 8.81764 26.265 8.43268 28.7692C8.07535 31.0949 8.1148 38.2521 8.51201 43.1226C9.00998 49.2275 9.627 50.894 12.0506 52.6778C12.9114 53.3114 14.9761 54.0842 17.0988 54.5672C17.5115 54.6611 17.8756 54.8092 17.9078 54.8963C17.94 54.9835 18.0298 59.4622 18.1076 64.8492C18.1907 70.6225 18.3346 75.8213 18.4579 77.5121C18.73 81.2449 18.7319 90.7095 18.4618 97.1011C18.2265 102.67 18.1956 109.402 18.3938 111.933C18.5834 114.355 18.9337 119.288 19.0298 120.888C19.0736 121.619 19.136 122.388 19.1685 122.596C19.222 122.94 19.1779 122.984 18.7037 123.064C13.864 123.88 12.4478 124.533 11.1339 126.555C10.4688 127.578 10.1857 128.963 10.133 131.452C10.0792 134 10.4335 136.291 11.0789 137.565C11.8337 139.054 13.7133 140.059 16.9118 140.683C19.1623 141.121 19.9154 141.172 26.423 141.32C29.4842 141.39 32.9716 141.519 34.1728 141.606C35.7435 141.721 41.9761 141.74 56.3655 141.676C74.5331 141.595 76.6821 141.609 79.721 141.829C82.5728 142.036 83.3706 142.047 85.1156 141.904C87.253 141.728 90.4427 141.163 91.1693 140.831C91.4018 140.725 91.7822 140.593 92.0147 140.537C92.5854 140.4 94.587 139.417 95.113 139.016C96.1958 138.189 97.0075 137.206 97.4553 136.181C97.6935 135.635 97.7482 135.222 97.7475 133.97C97.7461 131.087 97.0006 128.859 95.5218 127.32C94.2699 126.017 92.7118 125.352 90.2536 125.074C89.5173 124.99 88.892 124.899 88.8639 124.872C88.8358 124.844 88.8842 124.203 88.9716 123.449C89.0591 122.694 89.1241 120.566 89.1162 118.719C89.1066 116.466 89.1749 114.739 89.324 113.472C89.4901 112.059 89.5465 110.189 89.5475 106.051C89.5487 100.841 89.7667 95.7325 90.1115 92.8335C90.2619 91.5687 90.5741 87.1381 90.8857 81.8496C91.0012 79.8872 91.0975 76.5186 91.0996 74.3638C91.1015 72.209 91.1497 70.3825 91.2066 70.3048C91.3604 70.0951 92.3106 69.5182 93.4038 68.971C93.9354 68.7048 94.5519 68.2821 94.774 68.0318C95.6404 67.0543 95.834 65.0578 95.2019 63.6176C94.7389 62.5626 92.9181 60.9329 91.4831 60.2891L91.0922 60.1139L91.1308 57.8057L91.1693 55.4972L92.0852 55.1979C94.5856 54.3807 96.2735 52.8333 97.5834 50.1574C98.9565 47.3521 99.623 44.1636 100.186 37.7044C100.387 35.3957 100.605 32.9797 100.671 32.3353C100.969 29.395 99.796 25.6064 97.7751 22.9854C96.4514 21.2685 94.5105 19.6313 92.5784 18.6016C91.017 17.7697 91.1487 17.9777 91.0593 16.2013C90.9268 13.5675 90.2199 11.7106 88.8741 10.4613C88.1322 9.77245 86.0369 8.37603 85.2639 8.05533C84.5889 7.77521 82.8553 7.5463 81.6128 7.57316C81.0565 7.58534 78.6674 7.64396 76.3037 7.70371ZM70.4561 10.7776C69.1387 10.8354 66.7926 10.9481 65.2426 11.0281C63.3223 11.1272 60.8083 11.1293 57.3519 11.0345C54.5619 10.958 46.8262 10.8829 40.1613 10.8675L28.0434 10.8395L26.5639 11.1683C25.7502 11.3492 24.68 11.664 24.1857 11.8679C23.4137 12.1865 23.2519 12.3175 23.0372 12.7984C22.82 13.2846 22.428 15.5735 22.3063 17.066L22.2663 17.5557H29.382C36.9993 17.5557 36.3767 17.5178 43.3722 18.4087C45.9537 18.7375 49.5427 18.8886 51.5782 18.7544C53.8799 18.6026 55.6942 18.2748 60.5927 17.1255C64.5123 16.206 65.1086 16.1559 72.0765 16.1625C78.0614 16.1683 78.7314 16.1943 82.1513 16.553C84.1663 16.7645 86.3538 17.0232 87.0126 17.1281C87.6713 17.2329 88.2652 17.285 88.3323 17.244C88.5535 17.1087 88.2661 15.2174 87.8824 14.2835C87.447 13.224 86.4353 12.1161 85.1133 11.2509L84.271 10.6996L78.5612 10.6861C75.4209 10.6789 71.7736 10.72 70.4561 10.7776ZM65.6602 11.5539C65.1702 11.668 64.5519 12.2401 64.6485 12.4903C64.8341 12.9702 66.2091 13.1951 68.413 13.1059C70.1752 13.0346 70.6499 13.0642 71.8652 13.322C73.1253 13.5892 73.7361 13.6217 77.6423 13.6294C81.9636 13.6378 82.0173 13.6416 82.6624 13.9722C83.5617 14.4334 84.0536 14.3143 84.0536 13.6353C84.0536 13.0683 83.7103 12.6676 82.9491 12.3457C82.5184 12.1636 81.6191 12.124 77.5014 12.1059C73.2439 12.0872 72.4638 12.0508 71.7947 11.8403C71.2148 11.6579 70.3817 11.5829 68.4834 11.5419C67.0885 11.512 65.8181 11.5173 65.6602 11.5539ZM39.1045 12.1724C38.3683 12.2325 37.4806 12.3571 37.1319 12.449C36.7693 12.5447 34.7786 12.6622 32.482 12.7235C28.8889 12.8197 28.3776 12.8626 27.6254 13.1324C26.168 13.655 25.4641 14.688 26.423 14.8972C26.9183 15.0052 27.4746 14.9083 28.5176 14.5322C29.1757 14.2947 29.7315 14.2536 32.8152 14.2138C35.6666 14.177 36.5765 14.117 37.4841 13.9054C38.4331 13.6841 39.1905 13.6423 42.2749 13.6403C45.4385 13.6382 46.3978 13.6926 49.3046 14.0385C53.3183 14.5161 53.8057 14.4808 53.8699 13.7079C53.9335 12.9422 53.6483 12.8482 50.8774 12.7203C49.556 12.6593 47.5871 12.5143 46.5021 12.3982C43.9859 12.1287 40.8192 12.032 39.1045 12.1724ZM58.0916 12.6032C57.5976 12.8819 57.886 13.9877 58.4528 13.9877C58.8744 13.9877 59.395 13.6116 59.395 13.3069C59.395 12.7454 58.6003 12.3164 58.0916 12.6032ZM98.426 15.9279C98.426 16.2497 98.6269 16.5059 99.4408 17.2221C102.208 19.6573 102.126 19.5464 102.659 21.5838C102.917 22.5733 103.911 23.2176 104.128 22.5371C104.254 22.1429 103.951 20.4776 103.606 19.6652C103.242 18.8083 102.282 17.5248 101.56 16.93C100.887 16.3751 99.1938 15.5269 98.7594 15.5269C98.4863 15.5269 98.426 15.5995 98.426 15.9279ZM96.1877 17.333C95.8795 17.5268 96.092 18.0357 96.854 18.9299C97.2357 19.3778 97.8191 20.1346 98.1504 20.6117C98.9197 21.7198 99.5862 22.2431 100.229 22.2431H100.718L100.641 21.6754C100.584 21.254 100.351 20.8488 99.7355 20.1013C99.2797 19.5478 98.6661 18.7639 98.3719 18.3594C98.0778 17.9549 97.7019 17.53 97.5366 17.415C97.2054 17.1846 96.4925 17.1413 96.1877 17.333ZM7.30191 18.3772C5.99783 19.934 5.59146 20.9033 6.02685 21.4187C6.51369 21.995 6.65149 21.9985 6.98995 21.4436C7.16763 21.1523 7.58964 20.5523 7.92768 20.1105C8.61995 19.206 9.16709 18.0229 9.04239 17.7003C8.99011 17.5651 8.78847 17.4888 8.49708 17.494C8.1062 17.501 7.92148 17.6376 7.30191 18.3772ZM68.8357 18.8902C66.8702 19.0526 61.8599 19.7684 59.7349 20.1902C58.3407 20.4668 57.9022 20.6165 57.3189 21.015C56.7556 21.3999 56.4186 21.5197 55.7109 21.5869C54.2225 21.7282 46.9623 21.4413 44.459 21.1423C37.2909 20.2861 30.0224 19.9527 23.135 20.1641C19.73 20.2687 19.3037 20.3102 17.8155 20.6835C16.0133 21.1355 14.7122 21.7252 13.8904 22.4625C12.7995 23.4411 11.7537 26.2576 11.3482 29.3091C10.6646 34.4514 11.4055 48.146 12.4119 48.9756C12.5232 49.0673 12.6142 49.2167 12.6142 49.3075C12.6142 49.7952 14.394 50.9434 15.4515 51.1377C16.0319 51.2445 16.0415 51.2352 16.972 49.6677C17.5472 48.6987 18.0543 48.358 18.5045 48.6377C19.0316 48.9654 18.87 49.6334 17.9679 50.857C17.7409 51.1649 17.5531 51.4819 17.5506 51.5615C17.5431 51.7928 19.0601 52.0196 19.4232 51.8415C19.5919 51.7587 19.9888 51.239 20.3053 50.6867C21.0597 49.3702 21.1724 49.2479 21.6322 49.2479C22.5288 49.2479 22.53 50.0772 21.6353 51.4132C21.3274 51.873 21.1215 52.29 21.1778 52.3398C21.234 52.3896 21.7353 52.4699 22.2918 52.5183C23.2794 52.6041 23.3104 52.597 23.5768 52.2214C23.727 52.0097 23.9852 51.571 24.1506 51.2464C24.4913 50.578 24.8914 50.3064 25.3627 50.4238C25.8334 50.5412 25.8787 51.0826 25.4877 51.9206C25.3046 52.3129 25.1548 52.6906 25.1548 52.7598C25.1548 52.8292 25.6318 52.8859 26.2146 52.8859C27.2397 52.8859 27.2796 52.8733 27.4281 52.5011C27.9747 51.131 28.2166 50.6656 28.5917 50.2624C28.8243 50.0122 29.1191 49.8076 29.2469 49.8076C29.4897 49.8076 29.9456 50.2257 29.9456 50.4483C29.9456 50.5191 29.686 51.0929 29.3686 51.7233C29.0512 52.3536 28.8331 52.9361 28.8838 53.0176C28.9345 53.099 29.4189 53.1657 29.9603 53.1657C31.2424 53.1657 31.4446 52.9676 32.0391 51.1295C32.5872 49.434 32.9712 48.8841 33.5123 49.0189C33.7576 49.08 33.9184 49.2374 33.9784 49.4749C34.1076 49.986 33.799 51.2261 33.3154 52.139C33.0895 52.5655 32.9047 52.9708 32.9047 53.0401C32.9047 53.1092 33.4129 53.1657 34.034 53.1657C35.3491 53.1657 35.2472 53.2631 36.3753 50.927C36.7284 50.1959 37.1427 49.3382 37.2959 49.021C37.5403 48.515 38.0166 48.1286 38.3958 48.1286C38.4636 48.1286 38.5881 48.3365 38.6725 48.5904C38.8775 49.2071 38.6263 50.0203 37.7813 51.4749C37.4241 52.0899 37.1319 52.7246 37.1319 52.8852C37.1319 53.16 37.1972 53.1751 38.2239 53.1366L39.3159 53.0958L39.7052 52.3455C39.9194 51.9329 40.2139 51.2403 40.3597 50.8064C41.1043 48.5916 41.7541 47.7088 42.6397 47.7088C42.9663 47.7088 43.1901 47.7849 43.2396 47.9129C43.283 48.0253 42.9872 48.7651 42.5822 49.557C41.6275 51.4244 41.0772 52.6617 41.0772 52.9419C41.0772 53.1238 41.246 53.1657 41.9763 53.1657C42.8253 53.1657 42.8951 53.1404 43.2243 52.711C43.5563 52.2782 44.459 50.3887 44.459 50.1265C44.459 49.8426 45.3279 48.8598 45.8007 48.609C46.2888 48.3501 46.3186 48.3491 46.496 48.5883C46.7712 48.9591 46.5874 49.543 45.6168 51.3813C45.1467 52.2718 44.7995 53.0376 44.8453 53.083C44.8911 53.1285 45.3904 53.1657 45.9548 53.1657H46.9809L48.0266 51.3118C48.6017 50.292 49.1127 49.2435 49.1618 48.9814C49.2749 48.3808 49.484 48.128 49.8658 48.1307C50.8925 48.1381 50.8386 49.1195 49.6883 51.3607C49.2175 52.2782 48.8991 53.0535 48.9742 53.0995C49.1378 53.2 50.3555 53.0373 50.6772 52.872C50.8034 52.8073 51.0042 52.5162 51.1233 52.2253C51.2423 51.9346 51.5968 51.357 51.9112 50.942C52.2256 50.527 52.5891 49.8973 52.719 49.5427C53.2026 48.2238 53.4578 47.7288 53.7278 47.5854C54.1065 47.384 54.463 47.7877 54.5635 48.5317C54.6514 49.1826 54.3552 49.8321 53.1988 51.5246C52.8093 52.0948 52.4906 52.6342 52.4906 52.7234C52.4906 52.9623 53.9147 52.9298 54.2697 52.6829C54.4303 52.5712 54.7998 51.9889 55.0907 51.3886C55.3817 50.7885 55.745 50.0455 55.898 49.7377C56.205 49.12 57.0754 48.3758 57.416 48.4397C57.7284 48.4984 57.7684 49.3043 57.4928 49.9883C57.3657 50.3038 57.0124 50.9858 56.7079 51.5035C56.4033 52.0213 56.1542 52.5442 56.1542 52.6654C56.1542 52.9284 56.7777 52.956 57.6337 52.7311C57.9437 52.6497 58.3696 52.5499 58.5801 52.5094C58.9961 52.4293 59.0279 52.3652 59.2404 51.1777C59.5114 49.6624 60.2118 48.7585 61.0415 48.8529C61.368 48.8901 61.4446 48.9723 61.4748 49.3179C61.4949 49.5488 61.4173 49.8951 61.3023 50.0875C60.7873 50.9491 60.5282 51.5906 60.5254 52.0114L60.5223 52.4661H61.6361H62.75L63.1352 51.8015C63.347 51.4359 63.6075 51.0365 63.7139 50.9141C63.8204 50.7915 64.1018 50.1619 64.3393 49.5149C64.8281 48.1833 65.0711 47.8487 65.5498 47.8487C65.9708 47.8487 66.2136 48.4178 66.0866 49.1066C66.0369 49.3767 65.6487 50.2432 65.2241 51.0319L64.4523 52.4661H65.3782C66.438 52.4661 66.3397 52.5823 67.0837 50.4529C67.5023 49.2549 68.0511 48.5122 68.6782 48.2952C69.6478 47.9595 69.6175 48.6479 68.566 50.8453C68.1719 51.6688 67.8494 52.3706 67.8494 52.4046C67.8494 52.4384 68.3231 52.4661 68.9021 52.4661H69.9546L70.3275 51.6616C71.8818 48.307 72.2752 47.6671 73.3117 46.807C73.6251 46.5469 73.6347 46.5469 73.8356 46.8106C73.9482 46.9583 74.0423 47.2507 74.0447 47.4606C74.0495 47.8633 73.1304 49.7104 72.3775 50.8113C72.1315 51.1709 71.8356 51.6903 71.7198 51.9656L71.5091 52.4661H72.6779H73.8469L74.716 50.6821C75.2638 49.5574 75.8325 48.6209 76.2547 48.1481L76.9243 47.3983L77.1776 47.7089C77.6821 48.3277 77.5464 48.7667 76.153 51.0223C75.8764 51.47 75.6127 51.9781 75.5673 52.1513C75.4865 52.4591 75.5107 52.4661 76.6575 52.4661H77.8304L78.051 51.8715C78.1723 51.5445 78.3746 50.962 78.5005 50.5772C78.8901 49.3869 79.4123 48.4092 79.9367 47.8883L80.4395 47.3891L80.6966 47.7045C81.1188 48.2223 81.0091 48.8212 80.1932 50.4543C79.2389 52.364 79.1868 52.6385 79.7559 52.7615C79.9884 52.8117 80.4118 52.8603 80.6969 52.8694C81.277 52.8878 81.2652 52.9093 82.1461 50.2551C82.6001 48.8874 83.0423 48.0589 83.6032 47.5252C83.9754 47.1711 84.0264 47.1579 84.2031 47.3693C84.5876 47.8294 84.4231 48.964 83.777 50.3105C83.0461 51.8334 82.7624 52.5958 82.8652 52.7608C82.908 52.8296 83.2533 52.8859 83.6328 52.8859C84.3187 52.8859 84.3231 52.8829 84.4198 52.3612C84.4732 52.0727 84.6614 51.6644 84.838 51.4539C85.1481 51.0841 85.7444 49.6969 85.7444 49.3452C85.7444 49.0074 86.4381 48.167 86.86 47.9934C87.9465 47.5465 87.9726 48.2979 86.9442 50.4254C86.1839 51.9985 85.9902 52.5674 86.1757 52.6813C86.415 52.8281 86.8418 52.2616 87.4035 51.0512C87.7111 50.3886 88.0288 49.8058 88.1094 49.7563C88.1901 49.7067 88.3006 49.3989 88.3549 49.0723C88.4791 48.3236 88.6386 48.1286 89.1262 48.1286C90.0924 48.1286 90.0505 49.1717 89.0026 51.2131C88.6055 51.9866 88.2807 52.6883 88.2807 52.7726C88.2807 52.9717 89.7047 52.8292 90.7914 52.5215C92.7094 51.9785 94.4434 50.5643 95.33 48.8203C95.8574 47.7831 96.4002 46.0663 96.522 45.0503C96.5729 44.627 96.7041 43.777 96.8139 43.1613C97.2116 40.9276 97.5805 37.3381 97.5805 35.701C97.5805 34.701 97.6725 33.5844 97.8091 32.9292C98.1089 31.489 97.9924 30.2901 97.3737 28.4542C96.8281 26.835 96.124 25.3791 95.3225 24.2133C93.5481 21.6321 89.9379 20.1682 83.7524 19.5219C82.6393 19.4056 80.8726 19.2086 79.8264 19.0842C77.6098 18.8208 71.0717 18.7052 68.8357 18.8902ZM16.0262 23.7472C15.578 24.3124 15.011 25.3509 14.4792 26.5807C12.9467 30.1247 12.2332 36.2263 13.0158 39.0949C13.2408 39.9202 13.3187 40.6071 13.3187 41.7667C13.3187 43.4945 13.4127 43.7047 14.2604 43.8731C14.6442 43.9492 14.701 43.9162 14.7899 43.5645C14.9804 42.8106 14.8765 41.1055 14.5066 38.922C14.0751 36.3738 14.0925 34.503 14.5753 31.4779C15.0506 28.5009 15.7426 26.5566 16.8432 25.1053C17.0792 24.7941 17.3085 24.3191 17.3525 24.0496C17.4228 23.6192 17.3873 23.5393 17.0599 23.3911C16.5289 23.1509 16.488 23.1649 16.0262 23.7472ZM92.1134 23.8102C91.7124 24.2084 91.9019 24.7555 92.9274 26.1609C94.2682 27.9986 94.9743 30.788 94.8708 33.8384C94.8169 35.4247 94.7586 35.7531 94.3015 37.0466C93.3803 39.653 93.2852 41.2724 94.0531 41.2724C94.3349 41.2724 94.9174 40.5209 95.0835 39.9432C95.1278 39.7892 95.3242 39.1281 95.5202 38.474C96.1226 36.4629 96.3585 34.4802 96.2693 32.1775C96.1716 29.6546 95.959 28.7941 94.903 26.6501C93.7004 24.2081 92.7189 23.209 92.1134 23.8102ZM23.2526 26.1691C22.8651 26.2327 21.9502 26.5872 21.2195 26.9573C19.3919 27.8826 17.4391 29.763 16.5971 31.4079C15.8305 32.9054 15.4619 34.1582 15.3071 35.7911C15.0823 38.1643 15.5132 40.4295 16.434 41.7137C16.5806 41.918 16.7005 42.1273 16.7005 42.179C16.7005 42.3467 18.201 44.2572 19.0855 45.2153C20.0163 46.2239 21.6159 47.4832 22.5919 47.976C23.4278 48.3982 24.7421 48.7851 26.0003 48.9794C29.2924 49.4879 32.8331 48.242 35.241 45.7278C36.6166 44.2915 37.3026 43.1542 38.01 41.1374C38.3535 40.1581 38.4421 39.6411 38.5026 38.2641C38.5726 36.667 38.3883 34.6899 38.1381 34.354C38.0776 34.2728 37.9414 33.923 37.8354 33.5767C37.48 32.4148 36.4017 30.3653 35.9291 29.953C35.665 29.7229 34.9649 29.388 34.2919 29.17C33.0347 28.763 32.3785 28.3982 31.3298 27.5234C30.5055 26.836 29.0271 26.3846 26.9039 26.1725C25.1968 26.0019 24.28 26.0011 23.2526 26.1691ZM24.2188 28.9631C23.1843 29.1479 21.5317 29.9414 20.7584 30.6245C19.7825 31.4869 18.8995 32.8987 18.5183 34.2064C18.2616 35.0872 18.1913 35.6743 18.1886 36.9607C18.1868 37.86 18.2362 38.6465 18.2986 38.7083C18.3609 38.7702 19.1572 38.066 20.0681 37.1433C23.5041 33.6628 26.0169 31.4631 28.3579 29.886C28.6859 29.6651 28.9215 29.4316 28.8812 29.3669C28.6509 28.9967 25.5395 28.7272 24.2188 28.9631ZM31.4252 31.417C31.2702 31.5305 30.4343 32.0878 29.5676 32.6555C25.9116 35.0502 22.2108 38.6017 20.4897 41.3667L20.193 41.8437L20.5908 42.4137C21.3053 43.4376 23.0062 44.8638 24.226 45.4618C25.6556 46.1627 26.6036 46.3661 27.999 46.2711C29.0017 46.2028 29.2572 46.1149 31.0781 45.212C33.2586 44.1307 33.5748 43.8428 34.432 42.1566C35.1845 40.6761 35.4976 39.2119 35.4887 37.2147C35.4823 35.7679 35.421 35.2723 35.1342 34.3463C34.6102 32.6546 34.2114 32.1213 33.0953 31.6187C32.0482 31.1473 31.8294 31.1208 31.4252 31.417ZM81.2354 33.2415C80.9642 33.2704 80.0448 33.3625 79.1923 33.4462C78.2217 33.5413 77.4227 33.7013 77.0548 33.8743C75.9241 34.4059 75.3089 35.6498 75.2968 37.4292C75.2834 39.3726 75.8923 40.6258 77.1492 41.2422L77.9241 41.6222H82.6445C87.279 41.6222 87.3809 41.6162 88.2516 41.2881C89.4946 40.8196 90.2846 39.915 90.6132 38.5838C91.2988 35.8053 89.8083 34.1857 85.954 33.5212C84.7541 33.3144 82.0526 33.1542 81.2354 33.2415ZM50.6268 34.1472C49.6333 34.8005 49.2251 35.7188 49.139 37.4947C49.0632 39.0594 49.1166 39.1954 50.4204 40.7512C51.7889 42.3839 53.0903 42.8149 54.1546 41.9873C55.0442 41.2954 55.4391 41.2398 58.7278 41.3443C61.2293 41.4238 61.9048 41.4016 62.8472 41.2085C65.1547 40.7357 66.607 39.6737 66.7943 38.3223C67.0001 36.8354 66.4554 34.9957 65.6934 34.6043C65.4599 34.4844 64.8507 34.2574 64.3398 34.0999C63.4775 33.8339 62.9757 33.8097 57.3519 33.7613L51.2929 33.7092L50.6268 34.1472ZM103.993 34.5912C103.951 34.7644 103.894 36.1023 103.866 37.5645C103.823 39.7155 103.745 40.557 103.455 41.972C102.79 45.2105 101.329 49.0134 99.4702 52.3465C99.2708 52.704 99.0727 53.2549 99.03 53.5708C98.9597 54.0913 98.9813 54.1452 99.2599 54.1452C99.6595 54.1452 100.383 53.7701 100.711 53.3932C101.733 52.218 104.022 46.0299 104.858 42.1819C105.301 40.1428 105.466 36.7385 105.195 35.2295L105.023 34.2763H104.545C104.166 34.2763 104.052 34.3413 103.993 34.5912ZM4.11772 34.805C3.99302 34.9417 3.81449 35.5142 3.72079 36.0773C3.18999 39.2694 5.35361 50.2285 6.95979 52.4826C7.65982 53.4649 9.36013 54.081 9.49032 53.3995C9.58389 52.9097 9.37985 52.5247 8.80792 52.112C7.8685 51.4341 6.93105 49.3589 6.34474 46.6594C5.79112 44.1106 5.31345 39.345 5.29612 36.2003L5.2871 34.5562H4.81577C4.54297 34.5562 4.2489 34.661 4.11772 34.805ZM80.6014 36.0346C80.4464 36.071 79.9516 36.1718 79.5019 36.2586C78.5874 36.4352 77.9946 36.817 77.9946 37.2294C77.9946 37.3801 78.0817 37.7106 78.1882 37.9637C78.366 38.3864 78.4723 38.4459 79.4916 38.6938C80.3899 38.9122 81.1117 38.9637 83.2786 38.9637C85.892 38.9637 85.9751 38.9547 86.7667 38.5863C87.5586 38.2178 87.9692 37.7044 87.8073 37.2852C87.7092 37.0314 86.2424 36.5299 84.9146 36.2961C83.6561 36.0745 81.0934 35.9192 80.6014 36.0346ZM52.3067 36.4009C52.0014 36.6309 51.813 37.4053 51.9213 37.9843C51.9962 38.3836 52.0444 38.4098 52.9146 38.5213C54.5211 38.7272 60.9006 38.7069 61.9705 38.4923C62.9798 38.29 63.8335 37.8302 63.8335 37.4889C63.8335 37.3766 63.5165 37.1272 63.129 36.9348C62.4479 36.5966 62.3006 36.5821 58.6905 36.4946C56.6368 36.445 54.4175 36.3605 53.7588 36.3067C52.8413 36.232 52.5016 36.2541 52.3067 36.4009ZM106.123 44.9453C105.317 46.6384 104.765 48.6152 104.726 49.9475L104.696 50.9969L105.145 51.0402C105.724 51.0959 105.97 50.7266 106.092 49.6163C106.142 49.1648 106.303 48.5037 106.45 48.1472C107.305 46.077 107.484 45.4923 107.499 44.7308C107.514 43.9256 107.37 43.6588 106.916 43.6532C106.819 43.6521 106.462 44.2336 106.123 44.9453ZM93.4786 45.003C93.3538 45.0362 93.1795 45.2207 93.0911 45.4132C92.5923 46.5003 93.4091 47.3541 94.1743 46.5455C94.5766 46.1201 94.5961 45.2614 94.2081 45.0552C93.9267 44.9056 93.8629 44.9011 93.4786 45.003ZM1.68864 45.3387C1.49208 45.6545 1.4467 47.9135 1.62016 48.7428C1.81052 49.6526 2.31595 50.2692 2.81335 50.1986C3.07445 50.1615 3.10672 50.0469 3.13983 49.038C3.16576 48.2479 3.08192 47.5277 2.85492 46.5894C2.55578 45.3536 2.50702 45.2571 2.16208 45.2172C1.95805 45.1936 1.745 45.2483 1.68864 45.3387ZM14.4574 46.0085C14.3781 46.1558 14.3657 46.4419 14.4288 46.6731C14.518 47.0006 14.6052 47.0698 14.8803 47.0305C15.6603 46.9192 15.8202 46.3037 15.1576 45.9634C14.6355 45.6953 14.6259 45.6959 14.4574 46.0085ZM20.7605 55.4395C20.7294 55.5357 20.7511 59.4552 20.8087 64.1496C20.8822 70.1462 20.986 73.5796 21.1576 75.6931C21.4314 79.0639 21.4486 81.0697 21.3676 100.319C21.3152 112.759 21.389 116.177 21.7959 120.166C21.8854 121.043 22.0269 121.778 22.1121 121.81C22.2835 121.873 23.5608 121.572 26.0003 120.894C32.739 119.02 33.5699 118.82 37.3432 118.162C39.4144 117.801 40.5721 117.67 41.7113 117.669C43.3013 117.668 44.3732 117.484 44.2868 117.227C44.26 117.147 43.7013 116.87 43.0451 116.612C38.2481 114.723 34.9133 111.835 33.5234 108.365C32.8086 106.58 32.3997 105.48 31.9117 104.027C31.6016 103.104 31.2893 102.222 31.2179 102.068C30.7963 101.16 30.1877 99.0044 29.9294 97.505C29.6916 96.125 29.6447 95.4005 29.6986 93.9493C29.7752 91.8995 29.9349 91.4303 30.8831 90.4733C32.445 88.8965 34.7126 87.9737 39.2454 87.0705C41.0637 86.7083 41.3418 86.6912 45.5448 86.6842C49.7724 86.6772 49.9501 86.6661 50.155 86.3971C50.4703 85.9829 50.4246 85.7813 49.9551 85.516C49.7232 85.385 49.5333 85.1833 49.5333 85.0678C49.5329 84.3843 50.3501 82.3826 51.3039 80.7303C52.16 79.2472 52.1593 79.1408 51.2929 79.0361C50.9054 78.9894 50.2279 78.9025 49.7873 78.843L48.9863 78.735L48.6508 79.4178C48.4662 79.7933 48.0898 80.5099 47.8144 81.0101C47.5389 81.5103 47.1349 82.4863 46.9165 83.1789C46.4994 84.5014 45.9485 85.2701 45.481 85.1817C45.2844 85.1446 45.2251 84.9639 45.1904 84.2969C45.1398 83.3209 45.5266 82.2028 46.5244 80.4409C46.8618 79.8451 47.1752 79.1721 47.221 78.9451C47.2974 78.5655 47.2578 78.5142 46.724 78.3022C45.8739 77.9644 45.6468 78.0042 45.4426 78.5265C45.3448 78.7767 44.9803 79.5794 44.6327 80.3105C44.2851 81.0416 43.8886 81.9546 43.7516 82.3394C43.043 84.3309 42.432 85.2757 41.7579 85.4228C41.0767 85.5714 41.0049 85.3551 41.3542 84.2044C41.6741 83.1506 42.0901 82.1937 43.0774 80.2405C43.7181 78.973 44.2069 77.6731 44.1047 77.5088C44.0072 77.3523 42.8178 76.6725 42.6413 76.6725C42.5603 76.6725 42.3523 77.003 42.179 77.4071C42.0055 77.8112 41.5402 78.7714 41.1449 79.5409C40.7495 80.3105 40.2133 81.4679 39.9534 82.113C39.512 83.2078 38.6632 84.3682 38.3035 84.3682C38.1155 84.3682 37.8364 83.738 37.8364 83.3138C37.8364 82.7433 38.3253 81.649 39.2288 80.1973C39.7114 79.4218 40.2462 78.333 40.4501 77.7102C40.6494 77.101 40.9353 76.3948 41.0853 76.141C41.3537 75.6861 41.3538 75.6718 41.0885 75.1615C40.9404 74.8766 40.5698 74.4041 40.265 74.1113L39.7107 73.5787L39.5032 73.9014C39.389 74.0788 39.1925 74.4758 39.0664 74.7836C38.9401 75.0914 38.6374 75.8155 38.3937 76.3927C38.1499 76.9699 37.8544 77.7569 37.7368 78.1417C37.3839 79.2972 36.8848 80.1455 36.4165 80.386C36.0794 80.5591 35.9401 80.5714 35.7831 80.442C35.5245 80.2291 35.5354 79.4163 35.8064 78.7014C35.923 78.3936 36.1169 77.8269 36.2374 77.4421C36.4255 76.8407 37.0742 75.4791 38.2375 73.2445C38.3978 72.9366 38.6088 72.3834 38.7063 72.015C38.8633 71.4231 38.8518 71.2523 38.6067 70.5458C38.4364 70.0544 38.2487 69.7464 38.1197 69.7464C37.978 69.7464 37.6233 70.496 37.0274 72.0551C36.542 73.3249 35.9389 74.7695 35.6873 75.2651C35.2446 76.1371 34.5661 76.8298 34.3576 76.6229C34.3018 76.5673 34.2305 76.1236 34.1992 75.6368C34.1459 74.8061 34.1919 74.6416 34.9509 72.9488C35.3956 71.957 36.0357 70.5596 36.3735 69.8434C37.3132 67.8509 37.5935 66.7969 37.5333 65.4816C37.4821 64.3621 37.2343 63.7558 37.0508 64.3011C36.8946 64.7654 36.1218 66.6385 35.9919 66.8682C35.6745 67.429 35.1231 68.8404 34.9495 69.5365C34.3359 71.9969 33.7804 73.2105 33.004 73.7861C32.6423 74.0543 32.6058 74.057 32.3801 73.8328C32.0082 73.4636 32.1207 72.6571 32.7477 71.1984C33.0578 70.4767 33.5631 69.1937 33.8706 68.3472C34.178 67.5007 34.6482 66.3358 34.9155 65.7587C35.9675 63.4872 36.8321 61.1523 37.0658 59.9519C37.3138 58.6778 37.3945 56.5527 37.2063 56.2504C36.9236 55.7961 36.0397 57.3164 35.7327 58.7853C35.5667 59.5792 34.6792 61.8739 33.343 64.9642C32.6348 66.602 31.7642 69.0401 31.5714 69.9251C31.4288 70.5799 30.8403 71.5711 30.4391 71.8322C30.0185 72.1059 30.0169 72.1059 29.7443 71.8353C29.3748 71.4683 29.4852 70.7288 30.0918 69.5091C30.4046 68.88 30.7805 68.0149 30.9272 67.5866C31.3029 66.4893 32.3729 63.5304 32.904 62.1207C33.1504 61.4666 33.4174 60.7425 33.4973 60.5116C33.5774 60.2807 33.8671 59.4937 34.1413 58.7626C34.4155 58.0315 34.7222 57.213 34.8228 56.9436C35.1871 55.9692 35.1806 55.9642 33.5927 55.9642C32.1742 55.9642 32.1679 55.9657 32.2826 56.279C32.3461 56.4522 32.3971 57.0031 32.3961 57.5033C32.3946 58.2026 32.3031 58.6069 32.0005 59.2523C31.784 59.7141 31.4202 60.5641 31.1922 61.1413C30.9641 61.7184 30.6925 62.3796 30.5883 62.6104C30.4843 62.8413 30.199 63.5024 29.9544 64.0796C29.7098 64.6568 29.3888 65.4124 29.2411 65.7587C29.0934 66.105 28.7849 66.8291 28.5553 67.3678C28.3258 67.9065 27.9766 68.9023 27.7795 69.5808C27.3596 71.0249 27.0003 71.6604 26.4674 71.9015C25.6642 72.2649 25.4882 71.277 26.0783 69.7177C26.2762 69.1949 26.5628 68.4207 26.7152 67.9974C26.8677 67.5741 27.1178 66.9609 27.2713 66.6347C27.4247 66.3084 27.5524 65.9936 27.555 65.9351C27.5577 65.8765 27.6823 65.5768 27.8321 65.2689C27.9818 64.9611 28.1064 64.6527 28.1091 64.5837C28.1118 64.5148 28.466 63.6647 28.8963 62.6948C29.3267 61.7249 29.8102 60.6165 29.9709 60.2318C30.1314 59.847 30.4237 59.1859 30.6203 58.7626C30.817 58.3393 31.0086 57.6802 31.0463 57.2976C31.0839 56.9152 31.2004 56.5171 31.3051 56.4132C31.6846 56.0365 31.4949 55.9528 30.353 55.9935L29.2104 56.0341L28.7308 57.3634C28.4671 58.0945 27.9053 59.7001 27.4826 60.9314C27.0598 62.1627 26.5174 63.6738 26.2772 64.2895C26.0371 64.9051 25.7166 65.7552 25.5653 66.1784C25.1354 67.3802 24.7909 68.0392 24.4066 68.3949C23.9168 68.8481 23.5642 68.7432 23.4028 68.0962C23.2945 67.662 23.3283 67.4388 23.593 66.8384C23.77 66.437 24.0282 65.8251 24.1664 65.4788C24.3048 65.1325 24.638 64.314 24.9069 63.6598C26.0317 60.9234 27.6358 55.9891 27.4553 55.821C27.219 55.6012 25.9177 55.5156 25.7626 55.7096C25.5561 55.9679 25.074 57.5156 24.8113 58.7626C24.6899 59.3398 24.4954 60.1563 24.3794 60.5771C24.2635 60.9978 24.1685 61.4835 24.1685 61.6562C24.1685 62.1485 23.6112 63.5031 23.2842 63.8058C22.9075 64.1542 22.5284 64.1554 22.3417 63.809C22.1273 63.4112 22.1614 62.8697 22.47 61.7709C23.4616 58.2398 23.9354 56.4004 23.9456 56.0427C23.9571 55.6324 23.9545 55.631 22.7594 55.4539C21.2248 55.2265 20.8302 55.2236 20.7605 55.4395ZM59.395 55.364C58.5813 55.3864 56.3303 55.5005 54.3928 55.6174C52.4554 55.7344 48.5104 55.8706 45.6262 55.9197L40.3823 56.0092L40.3423 59.3683C40.2679 65.6105 40.5896 68.6097 41.5591 70.7147C41.7591 71.1487 41.9227 71.5369 41.9227 71.5773C41.9227 71.8069 43.133 73.3633 43.6906 73.8507C45.136 75.1141 46.6385 75.6286 50.377 76.1406C53.4919 76.567 58.8135 76.6021 60.653 76.2084C61.3063 76.0686 62.023 75.8607 62.2458 75.7463C62.934 75.3928 63.772 74.4465 64.1989 73.5404C64.6423 72.5993 65.1451 69.8735 64.917 69.6469C64.7849 69.5158 63.5823 69.2869 61.1245 68.9251L59.6837 68.713L58.4473 69.9373C57.0472 71.3239 56.2086 71.7523 54.2973 72.0575C51.6832 72.4749 48.7455 71.3859 47.5848 69.5693C47.0988 68.8084 46.5726 67.2145 46.5726 66.5033C46.5726 66.2365 46.7057 65.4718 46.8683 64.804C47.7098 61.3503 50.0255 59.6002 53.7495 59.603C55.5742 59.6044 56.4029 59.8049 57.3519 60.4747L58.1973 61.0713L60.3109 61.0688C61.7629 61.067 62.7332 60.9946 63.4108 60.8373C63.9533 60.7116 64.7459 60.5686 65.1721 60.5194L65.9471 60.4303L65.9047 58.0224C65.8813 56.6979 65.8358 55.5357 65.8034 55.4395C65.7455 55.2673 63.7737 55.2441 59.395 55.364ZM68.8357 57.6432V60.0219H69.1689C69.6501 60.0219 70.154 59.5727 70.4525 58.8777C70.5953 58.545 70.9878 57.6533 71.3245 56.896C71.6612 56.1388 71.901 55.462 71.8573 55.3919C71.8138 55.3219 71.1161 55.2646 70.3069 55.2646H68.8357V57.6432ZM72.7458 57.2754C72.2228 58.375 71.7947 59.3484 71.7947 59.4384C71.7947 59.6649 72.5738 59.6438 73.0347 59.4047C73.4991 59.1637 74.074 58.5569 74.3722 57.993C74.7139 57.3463 75.5992 55.4362 75.5992 55.3454C75.5992 55.3009 75.1711 55.2671 74.6481 55.2703L73.697 55.2759L72.7458 57.2754ZM77.9086 55.6048C77.6676 55.7091 77.2967 55.9742 77.0846 56.194C76.693 56.5997 75.5992 58.6662 75.5992 59C75.5992 59.1278 75.832 59.1824 76.378 59.1824H77.1569L78.245 57.5383C79.5346 55.5899 79.4881 55.6835 79.2447 55.5304C78.9666 55.3554 78.4145 55.3861 77.9086 55.6048ZM84.5115 55.637C84.4147 55.6759 84.3354 55.8388 84.3354 55.999C84.3354 56.1593 84.0576 56.7365 83.7181 57.2817C82.6779 58.9522 82.6043 58.844 84.8609 58.9621C85.9282 59.0179 87.1183 59.1149 87.5058 59.1776C87.8932 59.2403 88.2578 59.2632 88.316 59.2287C88.3742 59.1941 88.4216 58.4124 88.4216 57.4915C88.4216 55.8231 88.4204 55.8168 88.0602 55.6808C87.694 55.5426 84.8353 55.5073 84.5115 55.637ZM81.6293 55.7991C81.1137 56.0032 80.2698 56.9713 79.7716 57.9305C79.4843 58.4833 79.2773 58.9637 79.3116 58.9977C79.3459 59.0318 79.764 59.0158 80.2405 58.9623C81.0266 58.874 81.1274 58.8246 81.3291 58.429C81.4514 58.1892 81.8291 57.5469 82.1684 57.0018C82.5078 56.4567 82.7854 55.9372 82.7854 55.8475C82.7854 55.672 82.0301 55.6404 81.6293 55.7991ZM11.321 56.3895C10.9445 56.6077 11.239 57.3165 12.0428 58.1271C12.4277 58.5151 12.8397 59.065 12.9586 59.349C13.3469 60.277 13.6101 62.4322 13.569 64.347C13.5333 66.0016 13.5553 66.1892 13.8271 66.5517C14.2477 67.1128 14.6011 67.0608 14.9362 66.3883C15.1671 65.9248 15.2105 65.5763 15.1893 64.3594C15.1229 60.5762 13.9296 57.0199 12.5318 56.4399C11.9828 56.2121 11.651 56.1982 11.321 56.3895ZM99.0114 61.2258C98.8391 61.3457 98.7078 61.5873 98.7078 61.7845C98.7078 62.136 99.1051 63.0187 99.5519 63.6598C100.268 64.6871 100.307 67.5218 99.6238 68.9349C99.0855 70.0485 98.67 70.572 97.9145 71.0881C97.3448 71.4774 96.876 72.1646 96.876 72.6103C96.876 72.7901 98.0113 72.8005 98.452 72.6246C100.331 71.8748 101.76 68.0434 101.384 64.7665C101.135 62.6051 99.8298 60.6566 99.0114 61.2258ZM79.2627 61.7806C77.9065 61.8826 76.0677 62.0628 75.1765 62.1811C74.2852 62.2994 73.1439 62.4322 72.6402 62.476C70.8664 62.6306 65.6442 63.2522 63.8335 63.5243C62.8261 63.6757 61.5579 63.8468 61.0154 63.9046L60.0291 64.0096L59.9864 64.6669C59.9071 65.8913 60.28 66.0389 65.5949 66.8856C67.5711 67.2004 69.4416 67.5129 69.7516 67.5797C70.0616 67.6468 70.8225 67.7668 71.4425 67.8464C72.0625 67.9262 73.2989 68.0906 74.1901 68.2119C76.4583 68.5204 81.1213 68.6757 84.2005 68.5452C86.386 68.4526 87.0599 68.3688 88.4216 68.0206C89.9606 67.6273 91.585 66.9838 92.1183 66.5565C92.5526 66.2084 92.7697 65.4995 92.6051 64.967C92.0738 63.2475 89.3137 62.0423 85.138 61.7063C82.9839 61.5329 82.4668 61.5395 79.2627 61.7806ZM51.6246 62.6393C51.1912 62.7054 51.0362 62.8718 50.3484 64.0096C49.3614 65.6427 49.19 66.7951 49.7686 67.9072C50.8066 69.9019 55.0554 69.8018 56.6968 67.7439C57.238 67.0652 57.4649 66.2054 57.3437 65.292C57.2555 64.6264 57.1966 64.5362 56.5987 64.1496C56.1277 63.8451 55.9124 63.5953 55.8139 63.2401C55.7393 62.9707 55.611 62.704 55.5287 62.6475C55.3761 62.5427 52.3007 62.5361 51.6246 62.6393ZM102.382 69.3069C101.231 70.4527 101.108 70.6167 101.108 71.0057C101.108 71.5259 101.314 71.6799 101.871 71.5759C102.566 71.4465 103.396 70.6737 103.772 69.8048C104.132 68.975 104.108 68.56 103.693 68.4086C103.444 68.318 103.223 68.4699 102.382 69.3069ZM67.9273 70.5398C67.3824 73.348 66.331 76.4558 65.5208 77.652C65.1819 78.1522 64.5182 79.1282 64.0456 79.8208C63.0366 81.2999 62.2568 82.8582 62.1291 83.651C61.9787 84.5852 61.1959 85.021 60.8407 84.3682C60.4097 83.5763 60.8995 82.0876 62.286 79.9752C62.727 79.3035 63.0479 78.7141 62.9991 78.6656C62.9502 78.6172 62.4566 78.6684 61.9021 78.7793C60.737 79.0127 60.8983 78.8021 59.3813 82.0667C58.4888 83.9875 58.1284 84.428 57.5197 84.3419C57.2463 84.3033 57.2138 84.2203 57.2351 83.6184C57.2535 83.0984 57.4606 82.5345 58.1157 81.22C58.5869 80.2748 58.9723 79.4294 58.9723 79.3414C58.9723 78.7753 57.6836 80.3521 57.3226 81.3599C57.0493 82.1223 56.231 83.4263 55.8481 83.7089C55.2786 84.1294 55.0269 83.9489 55.0269 83.1198C55.0269 82.3146 55.1715 81.9343 55.8817 80.8702C56.5596 79.8543 56.8676 79.2467 56.7591 79.1389C56.7106 79.0907 56.0458 79.0512 55.2818 79.0512C53.971 79.0512 53.8859 79.069 53.772 79.366C53.7056 79.5391 53.295 80.2614 52.8596 80.9709C51.9853 82.3956 51.9049 82.6892 52.3887 82.6892C52.8358 82.6892 53.2869 83.0355 53.3945 83.461C53.4444 83.6582 53.7686 84.2719 54.1151 84.8249C54.4616 85.3777 54.7451 85.8978 54.7451 85.9807C54.7451 86.353 55.0562 86.4406 55.5701 86.2131C55.9765 86.0331 56.7578 85.9702 59.3106 85.9116L62.5376 85.8374L62.7166 85.3232C62.9885 84.542 64.6688 81.2793 65.3504 80.2092C65.6825 79.6877 66.0329 79.1037 66.129 78.9113C66.2253 78.7189 66.4907 78.2781 66.7192 77.9318C67.9274 76.0994 70.1039 71.4575 70.1039 70.7129C70.1039 70.4632 69.6979 70.3019 68.7437 70.1723L68.0176 70.0737L67.9273 70.5398ZM71.9596 70.9008C71.8898 71.0354 71.5918 71.7123 71.2973 72.4049C70.7933 73.5902 68.7641 77.3139 67.523 79.331C66.0162 81.7798 64.07 85.8897 64.339 86.0548C64.4218 86.1056 65.0146 86.184 65.6564 86.2289C68.9204 86.4577 71.4752 87.2997 72.9039 88.6173C73.5121 89.1783 74.1899 90.5757 74.19 91.2687C74.1901 91.6141 74.3091 91.9601 74.5268 92.2482C74.9919 92.8634 75.1765 93.8865 75.1765 95.8486C75.1765 96.7683 75.2303 97.5208 75.296 97.5208C75.3618 97.5208 76.0116 97.3894 76.7403 97.229C77.668 97.0247 78.7897 96.9146 80.4833 96.8618L82.9015 96.7865L83.7241 97.2481C84.5845 97.7309 86.3668 99.4222 86.52 99.9012C86.7244 100.541 86.8432 100.07 86.9345 98.2554C87.0778 95.409 87.2317 93.2714 87.9378 84.3106C88.2076 80.8867 88.4105 76.2149 88.4168 73.2794C88.4216 71.0862 88.4201 71.0757 88.1046 71.0747C87.1989 71.0718 83.6308 71.4263 83.6308 71.5191C83.6308 71.9871 82.483 73.9042 80.8803 76.1128C80.3901 76.7885 79.3529 78.7606 78.6106 80.4285C78.1248 81.5203 77.8365 81.838 77.3253 81.8452C77.0386 81.8492 77.0083 81.7834 77.0083 81.1553C77.0083 80.3697 77.388 79.259 78.055 78.0939C79.015 76.417 80.4917 74.0298 81.3383 72.7862C81.8243 72.0725 82.2218 71.4586 82.2218 71.422C82.2218 71.3855 81.7458 71.3555 81.1639 71.3555H80.1061L79.7065 72.1601C79.1034 73.3743 78.4771 74.4821 77.432 76.1828C75.0771 80.0147 74.4519 81.1818 74.1856 82.2418C74.0308 82.8583 73.6236 83.3904 73.3095 83.3867C72.57 83.3776 72.5011 82.106 73.1641 80.7035C73.5644 79.8569 74.6525 77.9404 75.572 76.4627C76.4582 75.0383 78.2764 71.734 78.2764 71.5479C78.2764 71.4007 78.0122 71.3555 77.1527 71.3555H76.029L75.725 72.0201C75.0406 73.517 73.8808 75.8429 73.1958 77.0923C72.7949 77.8234 71.9928 79.3345 71.4136 80.4504C70.8345 81.5663 70.2383 82.6773 70.0891 82.9192C69.8071 83.376 68.9362 83.8867 68.6933 83.7376C68.34 83.5209 68.6634 81.8812 69.175 81.2951C69.2783 81.1767 69.6144 80.6078 69.9218 80.0306C70.2293 79.4535 70.69 78.6034 70.9458 78.1417C71.3234 77.4597 72.4077 75.4798 73.0696 74.2634C73.4649 73.5373 74.4756 71.1726 74.4161 71.1135C74.3309 71.0289 72.6645 70.6677 72.3281 70.6608C72.1952 70.6581 72.0293 70.7662 71.9596 70.9008ZM94.4334 79.9018C93.6004 80.8681 93.2326 82.1151 93.0615 84.5537C92.9795 85.7215 92.8214 87.2587 92.7103 87.9697C92.5989 88.6807 92.5079 89.5212 92.5079 89.8375C92.5079 91.0695 93.3649 91.9746 93.9661 91.3776C94.2312 91.1144 94.2364 91.0448 94.0604 90.1186C93.7039 88.2422 94.1999 83.479 94.9213 81.8496C95.0748 81.5033 95.351 81.0626 95.5353 80.8702C95.8494 80.5423 95.9631 80.1513 95.9116 79.5759C95.8953 79.3947 95.7644 79.331 95.4075 79.331C95.0177 79.331 94.831 79.4405 94.4334 79.9018ZM12.3166 83.4937C12.0681 84.133 12.2945 85.0582 13.0958 86.6769C14.3228 89.1558 14.4466 89.5127 14.8073 91.6202C15.2699 94.3222 15.2662 96.7725 14.7937 100.826C14.5975 102.51 14.3975 104.627 14.3495 105.531L14.2621 107.175H14.6984C15.3223 107.175 15.5732 106.75 15.5732 105.694C15.5732 105.222 15.6361 104.506 15.7127 104.104C16.189 101.611 16.5885 97.5835 16.5948 95.2121C16.6049 91.4386 16.3888 90.4675 14.7255 86.8168C14.2697 85.8164 13.8018 84.635 13.6855 84.1916C13.413 83.1522 13.381 83.1089 12.8842 83.1089C12.5586 83.1089 12.4333 83.1939 12.3166 83.4937ZM57.9693 88.7953C57.896 88.8832 57.5248 89.088 57.1442 89.2506C56.7634 89.4132 56.4071 89.6185 56.352 89.7069C56.297 89.7952 56.2648 90.2569 56.2803 90.733C56.3168 91.8515 55.9793 93.4449 55.5767 94.0547C54.8726 95.1215 53.5033 95.5439 52.2683 95.0754C50.9134 94.5616 49.9543 92.6472 49.9543 90.4569V89.3698L46.326 89.4474C42.3898 89.5315 40.7679 89.7454 37.215 90.6496C34.6688 91.2974 33.8493 91.604 33.2805 92.1214C32.8492 92.5136 32.7638 92.6846 32.7638 93.1554C32.7638 93.6418 32.8379 93.7777 33.3017 94.1426C34.034 94.7185 35.3156 95.1734 37.4137 95.6022C39.7988 96.0896 39.7127 96.0785 43.5431 96.3894C51.7802 97.0578 57.4133 96.8523 62.2836 95.7058C62.9036 95.5598 64.1717 95.2736 65.1017 95.0697C69.7702 94.0462 71.4361 93.1751 71.4361 91.7576C71.4361 90.4262 68.928 89.1924 65.5244 88.8493C63.4142 88.6367 58.1332 88.5989 57.9693 88.7953ZM71.8652 95.878C70.8249 96.5572 66.4314 97.8796 63.8423 98.2928C63.0721 98.4158 62.4032 98.54 62.3559 98.5691C62.3085 98.5982 60.8145 98.7645 59.0358 98.9385C55.2629 99.3078 48.0553 99.3856 45.0226 99.0896C44.0539 98.995 42.215 98.8553 40.9363 98.7789C38.0074 98.6041 35.5626 98.1979 34.0636 97.6374C33.4224 97.3974 32.8678 97.2311 32.8311 97.2674C32.7943 97.3038 32.8824 97.7949 33.0266 98.3588C33.2691 99.3071 33.3294 99.4047 33.8303 99.66C35.4317 100.476 40.5993 101.579 42.8205 101.579C43.7419 101.579 44.0565 102.104 43.4567 102.641C43.1966 102.874 42.9594 102.904 41.5798 102.879C39.9225 102.849 36.7344 102.289 34.9968 101.722C34.518 101.566 34.0733 101.439 34.0087 101.439C33.6472 101.439 34.2337 102.937 34.8504 103.589C35.059 103.809 35.5004 104.106 35.8313 104.249C36.4096 104.499 38.6374 105.008 41.0068 105.431C42.457 105.69 43.725 106.16 43.9127 106.508C43.9938 106.659 44.0205 106.939 43.9719 107.131C43.889 107.459 43.8391 107.477 43.1497 107.414C42.7461 107.378 42.0671 107.22 41.6408 107.063C41.2146 106.906 40.3586 106.682 39.7386 106.565C37.8324 106.206 35.8242 105.909 35.7569 105.976C35.7217 106.011 35.8716 106.39 36.09 106.818C36.4466 107.518 36.5641 107.626 37.2375 107.876C37.6502 108.029 38.0504 108.155 38.1269 108.155C38.2036 108.155 38.6291 108.288 39.0728 108.45C39.7461 108.697 40.2873 108.756 42.3454 108.806C43.7016 108.84 44.9531 108.897 45.1264 108.933C45.5465 109.021 45.8801 109.548 45.7731 109.954L45.6878 110.278L43.0654 110.187C41.6232 110.136 39.8794 110.003 39.1902 109.891C38.501 109.779 37.9081 109.716 37.8726 109.751C37.742 109.881 38.7086 110.917 39.2345 111.21C39.7048 111.473 39.9996 111.513 41.4487 111.516C43.435 111.52 44.0978 111.651 44.5827 112.132C44.9234 112.47 44.9302 112.504 44.7032 112.73C44.5417 112.89 44.1611 112.988 43.5466 113.027C43.0429 113.058 42.6634 113.137 42.7033 113.201C42.8022 113.36 45.3072 114.616 46.4333 115.072C46.9361 115.275 47.9471 115.596 48.6798 115.786C49.8426 116.087 50.3166 116.13 52.4073 116.13C53.7247 116.13 55.4812 116.205 56.3106 116.297C57.4876 116.427 58.0233 116.426 58.7505 116.293C60.4908 115.975 63.5513 114.316 65.1721 112.812C65.7335 112.292 65.5963 112.238 64.5253 112.561C63.4544 112.883 59.7189 113.594 58.62 113.685C57.0289 113.816 56.3868 113.216 57.3958 112.541C57.9586 112.164 58.7246 112.001 61.2268 111.725C62.273 111.61 63.4461 111.426 63.8335 111.317C65.2616 110.914 66.0048 110.664 66.7807 110.323C67.218 110.131 67.755 109.974 67.9742 109.974C68.3234 109.974 68.4561 109.834 69.0442 108.845C69.7283 107.694 69.8903 107.218 69.5762 107.28C69.3789 107.319 66.9316 108.373 66.5371 108.588C65.9826 108.891 60.7914 110.463 59.6064 110.687C58.3302 110.928 57.5676 110.485 58.0358 109.775C58.2768 109.41 59.7168 108.918 60.945 108.78C62.5268 108.603 64.1885 108.052 66.7221 106.865C67.3809 106.556 68.2633 106.185 68.6831 106.039C69.3462 105.81 69.4757 105.801 69.6694 105.975C70.1323 106.388 70.2536 106.282 70.6921 105.077C71.2993 103.408 71.5312 102.52 71.3953 102.385C71.3311 102.322 70.618 102.589 69.8106 102.98C66.4218 104.621 64.7623 105.318 62.4245 106.078C59.8062 106.93 59.1572 107.064 58.5038 106.885C57.8532 106.706 57.6785 106.248 58.1242 105.89C58.4132 105.658 59.0151 105.455 62.4949 104.414C63.5523 104.098 64.5185 103.737 66.5108 102.913C67.5418 102.487 68.0485 102.252 69.5705 101.492C70.5085 101.024 71.261 100.739 71.5577 100.739H72.0353L72.2012 99.7407C72.2926 99.1916 72.3328 98.7081 72.2906 98.6662C72.2104 98.5866 71.9055 98.7295 70.3857 99.5582C69.0747 100.273 66.3813 101.323 63.129 102.387C60.271 103.323 59.4702 103.47 59.0643 103.135C58.8637 102.97 58.8614 102.906 59.0443 102.555C59.2633 102.135 59.8472 101.665 60.3109 101.537C64.8565 100.283 68.4385 99.0001 70.2937 97.9631C72.0358 96.9894 72.2441 96.7953 72.1912 96.1955C72.1501 95.729 72.1274 95.7067 71.8652 95.878ZM91.6718 99.3311C91.4989 99.4398 91.5242 99.7583 91.8479 101.538C92.2864 103.948 92.315 104.814 91.9936 105.951C91.7773 106.717 91.7773 106.79 91.9952 107.006C92.2117 107.221 92.2579 107.221 92.6151 107.011C92.8273 106.886 93.1596 106.51 93.3533 106.175C93.6735 105.622 93.7055 105.42 93.7041 103.957C93.7029 102.672 93.6369 102.137 93.3758 101.299C92.8396 99.5777 92.2898 98.9428 91.6718 99.3311ZM79.1923 99.6304C78.7273 99.6938 77.5881 99.9535 76.6606 100.207L74.9744 100.669L74.8494 101.229C74.6195 102.259 74.0699 104.013 73.4934 105.559C73.1791 106.401 72.922 107.17 72.922 107.267C72.922 107.574 73.8437 107.631 76.2691 107.472C80.7371 107.179 83.2154 106.141 84.0516 104.211C84.7181 102.672 84.1815 100.935 82.7348 99.9471C82.1057 99.5177 81.9684 99.4811 81.0439 99.4975C80.4905 99.5073 79.6573 99.567 79.1923 99.6304ZM86.0935 106.004C85.6488 106.821 84.6348 107.855 83.7013 108.444C82.8242 108.997 81.7241 109.4 80.0377 109.786C78.6743 110.099 78.072 110.15 75.0343 110.213L71.5807 110.284L71.0889 111.07C70.0827 112.679 68.1919 114.388 65.2729 116.328C64.592 116.78 64.0563 117.214 64.0824 117.292C64.1084 117.369 64.6656 117.546 65.3202 117.685C65.975 117.824 67.2399 118.1 68.1312 118.297C70.2045 118.757 72.9786 119.321 74.331 119.558C74.9123 119.659 75.8634 119.942 76.4446 120.185C77.409 120.588 78.3515 120.941 81.165 121.953C82.8405 122.555 84.2297 123.092 85.0695 123.463C85.5119 123.658 85.9091 123.761 85.9521 123.692C86.0927 123.466 86.299 118.563 86.4492 111.878C86.5303 108.269 86.5779 105.298 86.5548 105.275C86.5318 105.252 86.3243 105.58 86.0935 106.004ZM48.9811 118.905C48.8175 119.208 48.5909 120.943 48.6566 121.389C48.6888 121.608 48.9167 121.754 49.5736 121.976C51.7912 122.728 53.3927 123.045 56.0405 123.257C57.7987 123.398 58.035 123.332 58.8555 122.472C59.3185 121.986 59.8177 120.553 59.8177 119.709V119.081L57.1757 119.086C54.6776 119.09 49.8807 118.856 49.364 118.705C49.2215 118.664 49.0679 118.743 48.9811 118.905ZM44.1053 119.593C43.9673 119.959 43.5892 120.762 43.2649 121.377C42.351 123.113 42.3288 122.987 43.5474 122.987H44.5999V122.546C44.5999 122.291 44.8603 121.628 45.2182 120.972C45.5583 120.348 45.8803 119.634 45.934 119.384L46.0313 118.929H45.1938H44.3564L44.1053 119.593ZM62.6358 119.741C62.6358 120.193 62.4814 121.075 62.2865 121.734C61.8423 123.238 61.8445 123.518 62.2943 122.648C62.4899 122.27 62.7731 121.789 62.9236 121.579C63.3113 121.038 64.0446 119.465 64.0448 119.174C64.0449 118.973 63.9175 118.929 63.3404 118.929H62.6358V119.741ZM40.7946 119.421C40.7175 119.622 40.6544 119.861 40.6542 119.952C40.6541 120.044 40.3931 120.621 40.0744 121.236C39.116 123.084 39.1168 122.988 40.0592 122.978L40.8659 122.969L41.6692 121.334C42.7525 119.128 42.7517 119.149 41.7457 119.097C40.9837 119.057 40.9263 119.077 40.7946 119.421ZM37.8911 119.656C37.0483 119.785 37.0262 119.799 36.8647 120.335C36.774 120.636 36.4469 121.355 36.1382 121.934L35.5767 122.987H36.7065C37.6884 122.987 37.8365 122.954 37.8371 122.742C37.8374 122.607 38.1224 121.899 38.4705 121.168C38.8185 120.436 39.1036 119.76 39.1038 119.663C39.1045 119.47 39.1076 119.47 37.8911 119.656ZM65.2587 120.224C65.1402 120.629 64.6918 121.536 64.2623 122.24C63.8327 122.944 63.4813 123.589 63.4813 123.673C63.4813 123.757 63.7198 123.826 64.0114 123.826C64.515 123.826 64.5784 123.772 65.2812 122.742C65.6881 122.145 66.3369 121.217 66.723 120.679C67.5199 119.569 67.4967 119.516 66.2037 119.498L65.474 119.489L65.2587 120.224ZM69.0063 120.035C68.9358 120.081 68.7977 120.269 68.6996 120.454C68.6014 120.639 68.1088 121.332 67.6046 121.993C66.7128 123.164 66.1867 124.044 66.3094 124.159C66.3427 124.191 66.8454 124.239 67.4266 124.266L68.4834 124.316L68.5539 123.66C68.6131 123.108 68.7483 122.866 69.3993 122.146C70.2135 121.245 70.3596 121.003 70.3758 120.526C70.3837 120.294 70.2598 120.207 69.7603 120.093C69.4164 120.015 69.0771 119.989 69.0063 120.035ZM34.3184 120.243C33.7896 120.383 33.6749 120.475 33.6013 120.823C33.553 121.051 33.3123 121.631 33.0662 122.112L32.6188 122.987H33.2526C33.8641 122.987 33.8989 122.963 34.2461 122.322C34.4441 121.956 34.7252 121.468 34.8709 121.238C35.1782 120.75 35.2926 120.159 35.0887 120.111C35.0112 120.092 34.6646 120.152 34.3184 120.243ZM71.714 121.252C71.5204 121.913 70.9397 122.827 70.4785 123.196C70.2503 123.379 69.5402 124.316 69.5402 124.434C69.5402 124.484 70.0475 124.526 70.6675 124.526H71.7947L71.7956 124.071C71.7967 123.46 72.0701 122.978 72.7749 122.346C73.0983 122.056 73.4464 121.656 73.5484 121.458C73.7332 121.099 73.7301 121.096 72.8314 120.808L71.9287 120.518L71.714 121.252ZM8.80975 120.702C7.73323 121.106 5.54355 124.419 4.99486 126.475C4.13857 129.684 4.46393 133.534 5.63612 134.064C6.41195 134.415 6.63529 133.754 6.18453 132.441C5.84805 131.46 5.98557 128.774 6.45126 127.234C6.81579 126.027 7.81791 124.054 8.62122 122.96C8.99462 122.452 9.204 122.294 9.55091 122.26C9.86725 122.23 10.062 122.104 10.2144 121.832C10.4082 121.487 10.4082 121.408 10.2144 121.063C10.0503 120.77 9.88134 120.671 9.50991 120.651C9.24106 120.636 8.926 120.659 8.80975 120.702ZM31.1081 120.98C31.0113 121.019 30.932 121.132 30.932 121.232C30.932 121.332 30.8322 121.495 30.7103 121.596C30.5086 121.762 29.9456 122.73 29.9456 122.911C29.9456 122.953 30.191 122.987 30.4908 122.987C31.0246 122.987 31.0442 122.968 31.4214 122.112C31.6333 121.631 31.8386 121.159 31.8776 121.063C31.9491 120.886 31.4705 120.835 31.1081 120.98ZM27.973 121.887C27.7792 121.965 27.1547 122.119 26.5852 122.228C26.0156 122.338 25.4926 122.463 25.4227 122.505C25.0366 122.742 25.4465 122.847 26.7637 122.847H28.2318L28.525 122.375C28.6864 122.116 28.8184 121.864 28.8184 121.816C28.8184 121.686 28.3784 121.724 27.973 121.887ZM75.3598 121.869C74.9269 122.042 74.0251 122.965 73.426 123.849L72.9207 124.594L73.3088 124.7C73.6226 124.787 73.7511 124.743 73.9788 124.473C74.1338 124.289 74.5142 123.84 74.8242 123.474C75.1342 123.109 75.445 122.692 75.5151 122.548C75.585 122.405 75.696 122.287 75.7617 122.287C75.8273 122.287 75.881 122.161 75.881 122.007C75.881 121.701 75.8208 121.685 75.3598 121.869ZM3.0326 122.141C2.75558 122.203 2.53802 122.504 2.0147 123.548C1.11924 125.334 0.609301 126.995 0.528703 128.388C0.465577 129.48 0.477836 129.538 0.867441 129.971C1.60269 130.788 2.03485 130.185 2.01244 128.374C1.99525 126.978 2.63271 125.262 3.8841 123.336C4.31273 122.676 4.34275 122.576 4.17126 122.371C3.97202 122.132 3.49773 122.036 3.0326 122.141ZM77.2798 122.807C76.709 123.284 75.8366 124.621 75.9634 124.825C76.1121 125.064 77.0672 124.874 77.5686 124.506C78.0153 124.178 78.9809 122.959 78.9809 122.723C78.9809 122.583 78.4972 122.432 78.0407 122.429C77.8722 122.428 77.5297 122.598 77.2798 122.807ZM96.7547 123.173C96.636 123.315 96.77 123.691 97.3165 124.747C97.7112 125.51 98.0836 126.198 98.1442 126.275C98.4584 126.674 99.2645 128.95 99.4816 130.051C99.7778 131.553 99.7076 132.974 99.2711 134.319C98.9049 135.447 98.9783 135.859 99.5456 135.859C100.713 135.859 101.346 133.286 100.907 130.319C100.509 127.628 99.3357 124.759 98.0944 123.441C97.6382 122.957 97.0361 122.836 96.7547 123.173ZM79.9949 124.148C79.5382 124.616 79.444 124.806 79.6687 124.806C79.8231 124.806 80.6718 123.954 80.6718 123.799C80.6718 123.574 80.4365 123.695 79.9949 124.148ZM82.4567 124.339C82.2316 124.562 82.3995 124.781 82.8621 124.867C83.3881 124.965 83.9127 124.867 83.9127 124.67C83.9127 124.418 82.663 124.134 82.4567 124.339ZM21.7026 125.438C21.6251 125.466 20.8008 125.555 19.8709 125.635C16.9822 125.885 14.632 126.644 13.7822 127.602C12.9659 128.523 12.722 130.538 13.1017 133.224C13.2359 134.173 13.3951 135.002 13.4557 135.066C13.6139 135.232 14.4447 134.465 15.6899 133.003C16.7893 131.713 18.0898 130.402 18.2712 130.402C18.5048 130.402 18.8141 130.871 18.8141 131.225C18.8141 131.829 18.0532 132.868 16.394 134.53C15.5486 135.377 14.727 136.273 14.568 136.523L14.2792 136.976L14.6647 137.121C15.2535 137.344 15.8359 137.079 16.7065 136.195C17.1295 135.766 17.8559 135.123 18.3209 134.766C19.2792 134.032 20.5006 132.835 21.6177 131.538C22.036 131.052 22.6367 130.468 22.9528 130.241C23.4876 129.856 23.5395 129.844 23.7069 130.072C24.2136 130.76 23.6752 131.866 22.1809 133.206C21.5582 133.764 20.5936 134.669 20.0371 135.218C19.4807 135.767 18.729 136.414 18.3666 136.657C18.0043 136.9 17.6371 137.229 17.5507 137.39C17.4136 137.644 17.4438 137.701 17.7869 137.837C18.003 137.923 18.8259 138.025 19.6153 138.064L21.0505 138.134L22.8561 136.472C23.8491 135.558 24.9787 134.469 25.3662 134.053C26.999 132.298 27.9315 131.41 28.3872 131.176C28.8649 130.931 28.8757 130.932 29.1298 131.243C29.3802 131.551 29.3793 131.573 29.0985 132.046C28.548 132.972 27.2381 134.426 25.2852 136.279C24.206 137.303 23.3231 138.194 23.3231 138.259C23.3231 138.324 23.8096 138.378 24.4044 138.378H25.4858L26.4827 137.432C27.0311 136.911 28.0144 136.014 28.6678 135.438C29.9585 134.299 31.4938 132.768 31.4949 132.617C31.4953 132.565 31.6598 132.329 31.8604 132.092C32.1365 131.766 32.3422 131.662 32.7059 131.662C33.147 131.662 33.1865 131.697 33.1865 132.086C33.1865 132.993 32.7843 133.52 30.1366 136.084L27.5202 138.617L27.9756 138.707C28.226 138.757 29.1436 138.798 30.0146 138.798H31.5982L31.832 138.19C31.964 137.847 32.3557 137.311 32.7318 136.96C33.0981 136.618 34.0407 135.617 34.8264 134.735C36.3348 133.041 37.8733 131.522 38.0796 131.522C38.3366 131.522 38.5409 131.874 38.5409 132.318C38.5409 132.802 37.7651 133.782 35.5712 136.069C34.0091 137.698 33.2226 138.719 33.4346 138.844C33.492 138.878 33.9385 138.951 34.427 139.006L35.3152 139.107L36.752 137.652C37.5422 136.851 38.5454 135.79 38.9815 135.293C40.2574 133.84 43.7764 130.402 43.9886 130.402C44.0956 130.402 44.2562 130.561 44.3454 130.756C44.4752 131.039 44.4622 131.204 44.2806 131.582C44.0322 132.099 42.2715 134.087 40.2948 136.082C39.0062 137.383 37.9221 138.547 37.7661 138.797C37.7099 138.888 38.243 138.938 39.2702 138.938H40.8618L44.175 135.6C45.9974 133.764 47.7966 132.02 48.1732 131.723C48.8385 131.198 48.8638 131.191 49.0626 131.457C49.3256 131.81 49.2096 132.413 48.7553 133.057C48.344 133.64 44.2662 137.743 43.6307 138.214C42.8109 138.82 43.0095 138.938 44.8546 138.938H46.5183L47.7856 137.643C48.4827 136.932 49.5544 135.751 50.1672 135.02C51.4713 133.464 54.4974 130.402 54.7309 130.402C54.8195 130.402 54.961 130.553 55.0452 130.736C55.3456 131.391 54.1943 132.989 51.1533 136.139C49.9574 137.378 48.968 138.586 48.968 138.808C48.968 138.881 49.767 138.938 50.7824 138.938H52.5969L54.8391 136.651C56.3186 135.142 57.289 134.023 57.692 133.361C58.4399 132.131 58.9695 131.662 59.6071 131.662C60.0921 131.662 60.5223 131.956 60.5223 132.289C60.5223 132.392 60.3162 132.642 60.0643 132.844C59.1803 133.554 58.846 133.935 58.7581 134.333C58.7016 134.588 57.9804 135.452 56.7777 136.705C55.7372 137.788 54.886 138.734 54.886 138.806C54.886 138.881 55.6714 138.938 56.7178 138.938C58.3853 138.938 58.829 138.846 58.4087 138.588C58.1949 138.457 58.2397 137.993 58.5072 137.568C58.6388 137.36 59.6375 136.276 60.7264 135.16C62.6072 133.232 63.3371 132.233 63.3425 131.576C63.3453 131.233 63.4804 131.041 63.8588 130.843C64.1235 130.705 64.2062 130.734 64.4576 131.051C65.3021 132.117 64.6025 133.278 60.706 137.274C59.985 138.013 59.395 138.69 59.395 138.778C59.395 138.893 60.4109 138.938 63.0621 138.938H66.7292L66.8725 138.563C66.9512 138.357 67.6312 137.55 68.3837 136.77C69.8085 135.292 70.3421 134.69 71.5076 133.25C72.3204 132.246 72.9066 131.795 73.4488 131.758C73.8176 131.733 73.8373 131.762 73.8263 132.317C73.8121 133.043 73.2785 133.772 71.2317 135.859C69.8295 137.289 68.9766 138.384 68.9766 138.755C68.9766 138.893 69.3211 138.938 70.3857 138.938H71.7947L71.7957 138.483C71.7967 137.939 72.0123 137.598 73.1552 136.331C74.7264 134.589 74.8911 134.395 75.2798 133.83C76.3336 132.299 76.7846 131.77 77.2065 131.57C77.627 131.371 77.707 131.372 78.1152 131.581C78.5168 131.787 78.546 131.843 78.3983 132.121C78.2117 132.472 76.5317 134.591 74.5478 136.979C73.8122 137.864 73.2089 138.667 73.207 138.763C73.2046 138.892 73.5886 138.938 74.6671 138.938C76.0425 138.938 76.1432 138.918 76.3447 138.613C76.4627 138.434 77.1618 137.642 77.8985 136.852C78.6352 136.062 79.6605 134.793 80.1769 134.032C81.2261 132.487 82.0163 131.802 82.7471 131.802C83.8359 131.802 83.5036 132.406 80.3257 136.209C78.7325 138.116 78.2195 138.788 78.298 138.866C78.3315 138.899 78.8648 138.968 79.4834 139.019L80.6078 139.112L81.0958 138.36C81.3641 137.947 81.6098 137.545 81.642 137.468C81.6739 137.391 81.8333 137.167 81.9962 136.969C82.1589 136.771 82.4508 136.399 82.6445 136.142C82.8382 135.885 83.4093 135.166 83.9136 134.543C84.4179 133.92 85.0761 133.048 85.3764 132.604C85.9089 131.818 86.2796 131.583 86.8253 131.685C87.5972 131.831 86.7608 133.542 84.7513 135.929C83.4796 137.439 82.8509 138.277 82.5195 138.903C82.3562 139.211 82.3687 139.217 83.1244 139.217C83.8953 139.217 83.8967 139.217 84.5032 138.434C84.8371 138.002 85.8253 136.767 86.6992 135.689C87.5732 134.611 88.3585 133.598 88.4445 133.438C88.5304 133.279 88.719 133.022 88.8634 132.868C89.0079 132.714 89.1262 132.551 89.1262 132.505C89.1262 132.355 89.9374 131.942 90.2304 131.942C90.5895 131.942 90.7277 132.348 90.5375 132.845C90.2212 133.671 88.6416 135.817 87.1866 137.398C86.6834 137.945 86.1174 138.795 86.2011 138.878C86.2428 138.919 86.6485 138.861 87.1026 138.747C87.5569 138.634 88.2138 138.5 88.5625 138.45C89.6251 138.298 91.605 137.7 92.5808 137.237C93.6362 136.736 94.6748 135.7 94.8141 135.008C94.9662 134.253 94.908 132.616 94.6934 131.61C94.2188 129.386 92.7858 128.244 89.9956 127.867C89.4787 127.797 85.5683 127.68 81.3059 127.607C77.0435 127.534 72.8903 127.409 72.0765 127.33C71.2628 127.25 68.9167 127.092 66.863 126.977C61.1625 126.66 56.4051 126.366 52.9838 126.121C50.8803 125.97 46.3737 125.86 38.9636 125.777C32.9575 125.71 27.5996 125.591 27.0571 125.515C26.1374 125.384 22.0162 125.325 21.7026 125.438ZM101.467 126.052C101.241 126.3 101.24 126.35 101.451 126.756C101.586 127.015 101.736 127.858 101.821 128.832C101.899 129.734 102.032 130.648 102.116 130.862C102.403 131.594 103.112 131.674 103.369 131.004C103.68 130.19 103.421 127.857 102.906 126.839C102.36 125.761 101.941 125.532 101.467 126.052ZM69.2433 131.202C68.9246 131.488 67.7672 132.783 66.6714 134.081C65.5756 135.378 64.4962 136.652 64.273 136.911C63.7917 137.471 63.6891 138.318 64.0727 138.564C64.4337 138.795 65.0525 138.519 65.3827 137.98C65.9498 137.052 67.8451 134.782 68.9631 133.691C69.8414 132.834 70.1759 132.396 70.3929 131.82C70.6634 131.102 70.6648 131.061 70.4251 130.88C70.0424 130.592 69.8719 130.638 69.2433 131.202ZM92.8389 133.869C92.5171 134.156 91.9275 134.633 91.5286 134.93C90.7946 135.477 89.8307 136.722 89.8307 137.124C89.8307 137.441 90.1187 137.678 90.5028 137.678C90.7362 137.678 91.2144 137.3 92.0928 136.419C92.7837 135.726 93.4084 135.16 93.4813 135.16C93.8095 135.16 94.4806 134.418 94.4806 134.056C94.4806 133.19 93.7008 133.101 92.8389 133.869Z" fill="#D4B7AA"/>
</g>
<defs>
<clipPath id="clip0_570_3">
<rect width="107" height="142" fill="white" transform="translate(0.5)"/>
</clipPath>
</defs>
</svg>
