<svg width="158" height="142" viewBox="0 0 158 142" fill="none" xmlns="http://www.w3.org/2000/svg">
<g clip-path="url(#clip0_570_193)">
<path fill-rule="evenodd" clip-rule="evenodd" d="M100.705 0.0721503C98.6898 0.32826 96.2046 1.06782 96.2046 1.41139C96.2046 1.47385 96.1281 1.52484 96.0346 1.52484C95.7685 1.52484 94.6237 2.78999 94.5216 3.19689C94.3353 3.93979 95.1462 4.30747 96.0706 3.89941C96.3839 3.76111 96.6402 3.60291 96.6402 3.548C96.6402 3.27722 99.2042 2.25119 99.8808 2.25119C100.143 2.25119 100.419 2.19061 100.495 2.11667C100.571 2.04272 101.786 1.96108 103.195 1.93508C105.471 1.89324 105.791 1.85707 106.062 1.61128C106.23 1.45903 106.368 1.22413 106.368 1.08903C106.368 0.796171 105.923 0.362688 105.623 0.362688C105.506 0.362688 105.344 0.297463 105.265 0.21771C105.071 0.0236304 101.888 -0.0780579 100.705 0.0721503ZM103.9 5.67503C102.35 5.871 101.293 6.06798 100.495 6.30957C100.252 6.38336 99.6601 6.55972 99.1809 6.70165C98.7018 6.84343 98.2477 7.01136 98.1719 7.07484C98.0961 7.13833 97.9238 7.19033 97.7892 7.19033C97.6546 7.19033 97.3574 7.28795 97.1286 7.40736C96.8999 7.52663 96.6093 7.62469 96.4829 7.62527C96.3565 7.6257 96.2083 7.67088 96.1535 7.72565C95.9764 7.90288 93.1348 8.88054 92.212 9.08174C91.2098 9.30037 90.3341 9.54398 90.0725 9.67705C89.9339 9.7475 89.7528 9.80518 89.6702 9.80518C89.3274 9.80518 87.5262 10.7841 87.0197 11.2458C86.4894 11.7291 86.0415 12.4322 86.0415 12.7812C86.0415 12.8753 86.278 13.0251 86.5673 13.1138C86.9916 13.2441 87.2085 13.2297 87.6925 13.0392C88.0222 12.9094 88.3246 12.766 88.3645 12.7206C88.4685 12.6023 88.9797 12.2883 89.2356 12.1854C89.3554 12.1373 89.7428 11.9685 90.0963 11.8103C91.1996 11.3166 94.2092 10.241 94.4875 10.241C94.6334 10.241 94.7527 10.1756 94.7527 10.0957C94.7527 10.0158 94.8672 9.95001 95.0068 9.94957C95.1465 9.94899 95.4481 9.85094 95.6767 9.73167C95.9055 9.61226 96.2027 9.51464 96.3373 9.51464C96.4719 9.51464 96.6442 9.45726 96.72 9.38695C96.796 9.31678 97.348 9.11573 97.9469 8.9401C98.5458 8.76461 99.2252 8.56051 99.4567 8.48671C99.6882 8.41292 100.051 8.35249 100.262 8.35249C100.474 8.35249 100.709 8.29322 100.785 8.22087C101.062 7.95663 104.326 7.55917 107.529 7.39952C109.074 7.32253 109.827 7.35623 111.086 7.55917C114.135 8.05047 114.975 7.98568 115.33 7.23232C115.571 6.72155 115.349 6.36186 114.591 6.03675C113.326 5.49446 107.015 5.28092 103.9 5.67503ZM79.7615 5.79531C79.6336 5.92344 79.4589 6.02818 79.3732 6.02818C79.2877 6.02818 79.216 6.07714 79.2138 6.13713C79.2117 6.19713 78.9503 6.40632 78.6331 6.60214C78.3159 6.79796 78.0563 7.01049 78.0563 7.07426C78.0563 7.13804 77.9983 7.19033 77.9276 7.19033C77.8569 7.19033 77.4076 7.45182 76.9293 7.77141C76.4509 8.091 75.9666 8.35249 75.8529 8.35249C75.7392 8.35249 75.5842 8.41059 75.5082 8.48163C75.4324 8.55267 74.9783 8.72496 74.4992 8.86456C73.3304 9.20478 69.4233 9.20856 67.3746 8.87124C64.9087 8.46521 64.6285 8.36483 63.8057 7.59186C63.1614 6.98652 62.9809 6.89137 62.548 6.92885C61.8759 6.98681 61.6937 7.29623 61.9097 8.01212C62.1425 8.78292 62.8366 9.49067 63.8355 9.97558C65.6245 10.844 70.1211 11.4207 72.7251 11.1156C74.1699 10.9464 74.5217 10.8696 75.8785 10.4268C77.2486 9.97964 78.9866 8.96494 79.8711 8.09579C81.4446 6.54955 81.6302 5.82815 80.5016 5.64496C80.1438 5.58685 79.9257 5.63116 79.7615 5.79531ZM43.5744 11.3635C43.1266 11.4691 40.8219 12.593 40.7675 12.7322C40.7408 12.8002 40.6516 12.8558 40.5691 12.8558C40.3846 12.8558 38.6115 14.0299 38.1723 14.4429C37.9959 14.6086 37.8116 14.7443 37.7625 14.7443C37.7136 14.7443 37.5893 14.8261 37.4864 14.9259C37.0359 15.363 36.3834 15.9065 36.3094 15.9065C36.2649 15.9065 36.0846 16.0539 35.9088 16.2342C35.733 16.4145 35.132 16.9539 34.5734 17.4327C32.8869 18.8784 32.6106 19.131 31.4645 20.2757C30.3197 21.419 29.3559 22.5233 28.9857 23.116C28.8674 23.3055 28.7205 23.4605 28.659 23.4605C28.5978 23.4605 28.5475 23.5335 28.5475 23.6229C28.5475 23.7122 28.3547 24.0049 28.1191 24.2735C27.6304 24.8305 27.4399 25.5821 27.6368 26.1764C27.8442 26.8025 28.3132 26.7831 28.953 26.1218C29.4973 25.5592 30.2564 24.6199 30.4894 24.2202C30.9274 23.4693 35.0545 19.3302 36.678 18.0135C37.3567 17.463 37.9448 16.9706 37.9847 16.919C38.1455 16.7117 40.302 15.1801 40.433 15.1801C40.5105 15.1801 40.5956 15.1286 40.6223 15.0655C40.6956 14.8916 42.0133 14.1191 42.9936 13.6751C43.4727 13.4581 43.9627 13.2158 44.0825 13.1366C44.2023 13.0575 44.4086 12.9558 44.541 12.9109C44.7431 12.842 44.9439 12.4531 44.9516 12.1154C44.9528 12.0677 44.8392 11.8973 44.6996 11.7367C44.4083 11.402 43.9938 11.2644 43.5744 11.3635ZM29.7341 12.8778C28.9247 13.1889 27.386 14.5569 27.386 14.9654C27.386 15.0835 27.3342 15.1801 27.2709 15.1801C27.1032 15.1801 26.6202 16.6803 26.6823 17.0081C26.7209 17.2116 26.8785 17.2984 27.2673 17.331C27.7287 17.3695 27.8833 17.2918 28.4276 16.7482C28.773 16.4032 29.219 15.9257 29.4187 15.6868C29.6183 15.4482 30.0281 15.0686 30.3294 14.8434C31.2362 14.1656 31.5965 13.6982 31.5965 13.1997C31.5965 12.4799 31.0259 12.3812 29.7341 12.8778ZM134.861 13.0331C134.235 13.3349 134.536 14.2546 135.642 15.4259C136.005 15.81 136.41 16.3193 136.543 16.5576C136.676 16.7958 136.866 17.0782 136.966 17.1853C137.066 17.2923 137.147 17.4733 137.147 17.5874C137.147 17.7016 137.206 17.795 137.277 17.795C137.348 17.795 137.446 17.952 137.494 18.1441C137.609 18.6037 138.807 19.8293 139.138 19.8266C139.678 19.8219 139.802 19.605 139.733 18.7914C139.671 18.0701 138.806 15.9653 138.391 15.5249C138.306 15.4346 138.138 15.2143 138.018 15.0349C137.899 14.8555 137.719 14.6233 137.619 14.519C137.519 14.4147 137.438 14.2969 137.438 14.2574C137.438 14.1166 136.598 13.3599 136.164 13.11C135.667 12.8233 135.336 12.8038 134.861 13.0331ZM101.794 14.1845C97.9943 14.3717 96.9602 14.5299 92.7927 15.5615C92.3136 15.68 91.6929 15.8337 91.4135 15.9028C91.134 15.972 90.546 16.1382 90.1068 16.272C89.6676 16.4058 89.1122 16.5499 88.8727 16.5923C88.6331 16.6347 88.3718 16.719 88.2919 16.7795C88.2121 16.8403 87.9181 16.9376 87.6386 16.996C87.3591 17.0544 87.0651 17.1463 86.9853 17.2002C86.9054 17.2541 86.4481 17.4219 85.9689 17.5731C85.4898 17.7244 85.0325 17.8903 84.9526 17.9418C84.8728 17.9933 84.4808 18.1499 84.0815 18.2896C83.6823 18.4295 83.2249 18.6006 83.0652 18.6699C82.9055 18.7392 82.4681 18.9303 82.0932 19.0944C81.7183 19.2586 81.3426 19.3929 81.2584 19.3929C81.1741 19.3929 81.1052 19.4583 81.1052 19.5382C81.1052 19.6181 81.0362 19.6835 80.9519 19.6835C80.8196 19.6835 79.8097 20.1536 78.8548 20.6595C78.6951 20.7442 78.3031 20.9351 77.9837 21.0837C77.6643 21.2325 77.3811 21.4032 77.3546 21.463C77.3279 21.5229 77.2474 21.572 77.1756 21.572C77.1038 21.572 76.618 21.8335 76.0962 22.153C75.5744 22.4726 75.1146 22.7341 75.0746 22.7341C75.0343 22.7341 74.7428 22.8975 74.4266 23.0973C73.8344 23.4714 73.4103 23.5652 73.4103 23.3222C73.4103 22.9981 71.9326 21.7444 71.0219 21.2958C70.1061 20.8448 69.9268 20.8084 68.5581 20.7974C67.3441 20.7875 66.9672 20.8397 66.4349 21.0905C65.8767 21.3536 64.8443 22.2784 64.8443 22.5152C64.8443 22.5589 64.6957 22.8384 64.5142 23.1365C64.2207 23.6185 63.7301 25.0047 63.1655 26.9469C63.0611 27.3065 62.8733 27.9513 62.7483 28.38C62.6235 28.8085 62.5213 29.2834 62.5213 29.4351C62.5213 29.5869 62.4639 29.8246 62.3938 29.9633C62.1099 30.5249 61.7953 32.8187 61.7953 34.3263C61.7953 35.2081 61.7397 35.9511 61.6719 35.9779C61.5681 36.0185 60.8565 37.2195 60.4812 37.9874C59.265 40.4757 58.6953 41.4809 58.5325 41.4268C58.2602 41.3358 58.1416 40.0945 58.1205 37.1158C58.108 35.3458 58.1739 33.6369 58.2831 32.903C58.535 31.21 58.8824 29.5403 59.0459 29.2369C59.1208 29.0982 59.182 28.8389 59.182 28.6607C59.182 28.3758 59.4012 27.6464 59.7627 26.729C59.8257 26.5692 59.9882 26.1116 60.1241 25.7121C60.4913 24.6316 60.7257 24.1489 61.515 22.8486C62.1554 21.7936 62.2309 21.5802 62.2309 20.8249C62.2309 20.1568 62.1367 19.8055 61.7795 19.1421C61.5312 18.6808 61.2699 18.2816 61.1988 18.255C61.1276 18.2283 61.0694 18.1488 61.0694 18.0784C61.0694 17.8612 60.2851 17.1545 59.7563 16.8952C58.5552 16.3061 57.8246 16.1633 55.9879 16.1582C53.8832 16.1524 52.56 16.4124 50.7611 17.1853C49.3126 17.8076 47.193 18.8867 46.9863 19.1072C46.9463 19.1498 46.5543 19.4091 46.1151 19.6835C45.676 19.9579 45.284 20.2229 45.244 20.2724C45.2041 20.3218 44.5181 20.8414 43.7196 21.4271C42.921 22.0129 42.2459 22.5466 42.2193 22.6131C42.1926 22.6796 42.0837 22.7341 41.9773 22.7341C41.8709 22.7341 41.762 22.7837 41.7353 22.8441C41.7087 22.9047 41.3929 23.1808 41.0336 23.4579C40.6743 23.7347 40.3476 23.9959 40.3077 24.0381C40.2677 24.0803 39.75 24.5068 39.1571 24.9861C37.1271 26.6267 36.0546 27.8655 34.1262 30.7966C33.6532 31.5156 33.2172 32.1258 33.1572 32.1523C33.0974 32.1791 33.0483 32.2577 33.0483 32.327C33.0483 32.4908 31.8858 34.136 31.307 34.7915C31.06 35.0711 30.4852 35.7563 30.0295 36.314C29.5737 36.8718 29.0664 37.4602 28.9022 37.6214C28.738 37.7828 28.3787 38.2416 28.1037 38.6411C27.8287 39.0406 27.5706 39.4001 27.5298 39.4401C27.4891 39.48 27.3272 39.7579 27.1701 40.0575C27.0131 40.3571 26.8416 40.6022 26.7892 40.6022C26.7368 40.6022 26.6556 40.7167 26.6087 40.8564C26.5274 41.0987 26.4637 41.209 25.9165 42.0543C25.787 42.2544 25.4867 42.7776 25.2492 43.2171C24.3691 44.8454 24.2629 45.0342 24.1874 45.1054C24.0909 45.1965 21.9125 49.6195 21.2896 50.9889C20.7636 52.1459 20.6635 52.3857 20.41 53.0953C20.3101 53.375 20.1477 53.7999 20.0493 54.0396C19.9509 54.2793 19.7875 54.7042 19.6863 54.9838C19.5851 55.2635 19.423 55.6884 19.3258 55.9281C18.9363 56.8898 18.3845 58.4119 18.3845 58.5246C18.3845 58.5904 18.2943 58.8503 18.1839 59.1021C18.0738 59.3538 17.8496 59.9847 17.686 60.5041C17.3198 61.6655 16.788 63.2372 16.6291 63.6274C16.4321 64.111 15.6198 67.1379 15.2454 68.7844C14.8783 70.3976 14.3943 72.9231 14.1735 74.3773C14.1007 74.8567 13.9387 75.8372 13.8134 76.5563C13.6882 77.2754 13.5232 78.4194 13.4468 79.0985C13.3703 79.7776 13.2713 80.4864 13.2267 80.6734C12.8117 82.4135 12.6475 91.7334 12.9741 95.0055C13.2723 97.9947 13.9414 102.269 14.3157 103.576C14.3844 103.816 14.484 104.241 14.537 104.521C14.59 104.8 14.6923 105.225 14.7644 105.465C14.8365 105.705 15.0232 106.424 15.1793 107.063C15.3355 107.702 15.567 108.584 15.6936 109.024C15.8202 109.463 15.9635 110.068 16.0118 110.368C16.0602 110.667 16.1564 110.912 16.2258 110.912C16.2951 110.912 16.3518 111.034 16.3518 111.182C16.3518 111.33 16.5224 111.902 16.7309 112.453C16.9394 113.004 17.143 113.635 17.1832 113.856C17.2235 114.077 17.3143 114.293 17.3848 114.337C17.4555 114.38 17.5138 114.527 17.5142 114.662C17.5148 114.797 17.6128 115.095 17.732 115.323C17.8513 115.552 17.9489 115.85 17.9489 115.984C17.9489 116.119 18.0035 116.291 18.0701 116.367C18.1368 116.443 18.3052 116.832 18.4443 117.232C18.7261 118.04 18.7618 118.127 19.3916 119.53C19.6361 120.075 19.8363 120.558 19.8363 120.604C19.8363 120.782 20.9079 122.934 21.34 123.623C21.9945 124.668 22.9517 125.552 23.6234 125.733C24.2281 125.896 25.6557 125.73 26.3697 125.414C28.3796 124.524 29.4837 123.799 30.7356 122.545C31.3402 121.94 31.9771 121.256 32.1512 121.025C32.3251 120.795 32.4676 120.685 32.4676 120.781C32.4676 120.991 31.8672 122.432 31.7369 122.534C31.6859 122.574 31.47 123.101 31.2573 123.706C30.8618 124.83 30.7314 126.353 31.0157 126.529C31.0956 126.578 31.1609 126.718 31.1609 126.839C31.1609 127.09 32.3616 128.345 32.6013 128.345C32.6874 128.345 32.7582 128.394 32.7585 128.454C32.7595 128.671 34.7202 129.336 36.2424 129.636C37.5831 129.9 41.1451 130.162 43.1388 130.142C45.4242 130.12 49.2139 129.641 50.3238 129.234C50.5245 129.161 51.0805 128.986 51.5597 128.845C52.0388 128.704 52.5288 128.539 52.6486 128.479C52.7683 128.419 53.2257 128.227 53.6649 128.053C54.6378 127.667 55.7441 127.142 55.8427 127.021C55.8826 126.971 56.0622 126.885 56.2419 126.829C56.4217 126.773 56.5686 126.674 56.5686 126.609C56.5686 126.543 56.683 126.452 56.8227 126.405C57.0696 126.322 57.5835 126.022 57.7301 125.875C57.77 125.835 58.1694 125.556 58.6178 125.254C59.9459 124.359 61.8527 122.55 62.8501 121.238C63.1883 120.793 63.5778 120.303 63.7157 120.15C64.1789 119.636 65.229 117.968 65.8741 116.723C66.226 116.044 66.5628 115.467 66.6228 115.44C66.6828 115.413 66.7317 115.298 66.7317 115.184C66.7317 115.069 66.7938 114.862 66.8699 114.724C67.0104 114.467 67.2406 113.916 67.642 112.874C67.7651 112.554 67.9752 111.9 68.1089 111.421C68.2426 110.941 68.4067 110.386 68.4738 110.186C68.5407 109.986 68.6333 109.649 68.6796 109.435C68.772 109.01 69.2595 108.85 71.0147 108.667C71.4938 108.617 72.1145 108.52 72.394 108.451C72.6735 108.382 73.4248 108.214 74.0636 108.078C74.7024 107.941 75.3558 107.778 75.5155 107.714C75.6752 107.65 76.1652 107.491 76.6044 107.361C77.4787 107.103 78.1604 106.842 79.3306 106.317C79.752 106.128 80.1603 105.973 80.238 105.973C80.3157 105.973 80.3792 105.915 80.3792 105.844C80.3792 105.773 80.5426 105.673 80.7422 105.623C80.9418 105.573 81.1052 105.468 81.1052 105.389C81.1052 105.311 81.174 105.247 81.2581 105.247C81.4599 105.247 83.3769 103.824 83.9546 103.246C84.5537 102.646 86.0415 100.663 86.0415 100.464C86.0415 100.378 86.1025 100.308 86.177 100.308C86.2515 100.308 86.3582 100.161 86.4142 99.9809C86.4704 99.8012 86.5564 99.6214 86.6056 99.5814C86.9346 99.3139 88.4724 96.0781 89.1601 94.2065C89.3802 93.6072 89.6091 92.9862 89.6686 92.8264C89.728 92.6666 89.8891 92.1763 90.0266 91.7369C90.1641 91.2975 90.3273 90.8072 90.3892 90.6474C90.451 90.4876 90.6072 89.9973 90.7363 89.5579C90.8654 89.1184 91.0705 88.4461 91.1922 88.0638C91.3139 87.6814 91.4135 87.244 91.4135 87.0918C91.4135 86.9395 91.4718 86.7787 91.5432 86.7346C91.6147 86.6904 91.7067 86.4087 91.748 86.1086C91.819 85.5904 91.9414 85.1036 92.5064 83.0934C92.9144 81.6414 93.025 81.2341 93.203 80.5269C93.2968 80.154 93.4227 79.7999 93.4825 79.74C93.5423 79.6802 93.5913 79.4903 93.5913 79.318C93.5913 79.1459 93.6816 78.7156 93.792 78.3617C93.9024 78.008 94.0641 77.457 94.1512 77.1374C94.5832 75.5531 95.2407 73.4902 95.3527 73.3676C95.4219 73.2917 95.4787 73.1142 95.4787 72.9731C95.4787 72.832 95.5857 72.4692 95.7166 72.1668C95.8475 71.8645 96.003 71.4864 96.0622 71.3266C96.1802 71.008 96.5094 70.1514 96.8103 69.3793C97.1059 68.621 98.7155 65.4519 99.1783 64.7169C100.009 63.3978 101.36 61.7126 102.397 60.7003C103.322 59.7986 105.784 57.8892 106.022 57.8892C106.068 57.8892 106.31 57.7421 106.56 57.5624C106.811 57.3825 107.349 57.066 107.756 56.8587C108.163 56.6514 108.687 56.3799 108.92 56.2551C110.129 55.6082 114.756 53.3859 114.894 53.3859C114.983 53.3859 115.076 53.3368 115.103 53.2769C115.149 53.1739 116.071 52.6407 116.784 52.3045C116.963 52.2201 117.11 52.1021 117.11 52.0421C117.111 51.9822 117.205 51.9332 117.319 51.9332C117.433 51.9332 117.613 51.8478 117.718 51.7435C117.824 51.6392 118.008 51.5089 118.128 51.4538C118.382 51.3373 118.894 51.0213 118.999 50.9163C119.039 50.8764 119.366 50.6158 119.725 50.3371C120.084 50.0586 120.694 49.5357 121.079 49.175C122.334 48.0022 130.398 39.9629 130.844 39.4401C132.224 37.8232 133.356 35.9192 133.883 34.3279C134.023 33.9037 134.192 33.4259 134.258 33.2661C134.62 32.3916 134.734 31.1635 134.735 28.1091C134.735 24.9915 134.676 24.3623 134.231 22.8068C134.057 22.1962 134.015 22.0855 133.51 20.9183C132.967 19.6628 131.126 17.0686 130.778 17.0686C130.701 17.0686 130.616 17.0184 130.59 16.9571C130.563 16.8956 130.357 16.703 130.132 16.5288C129.75 16.2329 129.613 16.2175 128.027 16.292C125.83 16.395 120.571 16.0378 117.039 15.5456C116.081 15.4121 114.864 15.2474 114.336 15.1797C113.807 15.112 112.995 14.9863 112.531 14.9005C112.066 14.8146 111.414 14.7443 111.081 14.7443C110.749 14.7443 110.287 14.6795 110.055 14.6004C109.824 14.5213 108.524 14.4003 107.166 14.3315C105.809 14.2628 104.6 14.1741 104.48 14.1346C104.36 14.0951 103.152 14.1176 101.794 14.1845ZM101.322 18.0572C100.025 18.1767 98.9632 18.3222 98.9632 18.3803C98.9632 18.4385 99.1754 18.5697 99.435 18.672C100.332 19.025 101.223 19.4121 103.101 20.2645C103.66 20.5182 104.346 20.823 104.625 20.9418C106.473 21.7268 107.155 22.0557 107.215 22.1894C107.241 22.2492 107.353 22.2983 107.462 22.2983C107.781 22.2983 108.4 23.0072 108.4 23.3719C108.4 23.5556 108.281 23.8142 108.135 23.9464C107.845 24.2089 106.875 24.2746 106.731 24.0415C106.681 23.9616 106.514 23.8963 106.359 23.8963C106.204 23.8963 106.077 23.8435 106.077 23.7789C106.077 23.7144 105.8 23.5466 105.46 23.406C104.606 23.0518 103.963 22.7547 101.867 21.7445C99.2967 20.5061 98.5735 20.1979 97.5839 19.9192C97.1048 19.7843 96.5121 19.6107 96.2669 19.5334C95.7033 19.3557 92.9594 19.3498 92.3675 19.5248C92.1223 19.5973 91.5296 19.7693 91.0505 19.9072C90.5714 20.0449 89.9834 20.2372 89.7438 20.3346C89.5042 20.4319 89.0796 20.595 88.8001 20.697C87.7383 21.0846 87.4944 21.2117 87.5409 21.3533C87.5672 21.4337 87.7469 21.5168 87.9403 21.5381C88.4801 21.5975 89.8039 22.0145 90.6551 22.3932C91.0766 22.5807 91.5138 22.7341 91.6266 22.7341C91.7395 22.7341 91.8692 22.7944 91.9146 22.8682C91.9602 22.942 92.1928 23.0453 92.4314 23.0977C92.67 23.1502 92.8653 23.2532 92.8653 23.3267C92.8653 23.4003 92.9401 23.4605 93.0316 23.4605C93.123 23.4605 93.662 23.6811 94.2294 23.9509C96.4917 25.0263 97.152 25.2633 98.3098 25.4148C99.2331 25.5356 99.9898 25.7743 100.238 26.0232C100.345 26.1301 100.469 26.4385 100.512 26.7084C100.59 27.1856 100.573 27.2059 99.8969 27.4363C99.0304 27.7317 98.5051 27.7344 97.5014 27.4488C96.6534 27.2075 95.2375 26.5528 94.9242 26.2569C94.8185 26.1571 94.6442 26.0753 94.5367 26.0753C94.4293 26.0753 94.3197 26.0255 94.2929 25.9645C94.225 25.8087 91.7663 24.6226 91.5113 24.6226C91.3959 24.6226 91.1144 24.525 90.8856 24.4056C90.6569 24.2863 90.3359 24.1883 90.1721 24.1877C90.0085 24.1872 89.8125 24.1325 89.7365 24.0661C89.6608 23.9997 89.1739 23.8321 88.6549 23.6935C88.1359 23.555 87.5152 23.3848 87.2756 23.3152C87.0361 23.2458 86.1501 23.0829 85.3069 22.9535C83.8854 22.7353 83.6949 22.7357 82.6935 22.9596C82.0994 23.0924 81.5512 23.2594 81.4754 23.3307C81.3995 23.4021 81.2505 23.4605 81.1442 23.4605C80.9427 23.4605 77.2515 25.7055 76.9263 26.0259C76.8238 26.1269 76.44 26.4244 76.0733 26.6872L75.4067 27.1648L76.1235 27.2078C76.5179 27.2314 77.5551 27.1894 78.4284 27.1144C80.6024 26.9279 87.6758 27.3711 89.7476 27.8239C90.069 27.8941 90.8857 27.9934 91.5624 28.0447C93.6707 28.2042 94.3014 28.472 94.3125 29.2124C94.3178 29.5516 94.0123 29.8546 93.4029 30.1148C92.8421 30.3542 92.4966 30.3343 91.1778 29.9865C87.9053 29.1238 87.7685 29.114 79.8374 29.1844L72.6621 29.248L71.6857 30.1675C71.1488 30.6734 70.5006 31.2626 70.2451 31.4771C69.9897 31.6917 69.7806 31.9089 69.7806 31.9597C69.7806 32.0106 69.6826 32.1502 69.5628 32.27C69.2006 32.6323 69.2852 32.9494 69.7153 32.8415C70.7365 32.585 73.6694 32.2065 77.04 31.8961C78.0381 31.8043 79.2516 31.6615 79.7366 31.579C81.0899 31.3487 88.883 31.3323 89.1111 31.5592C89.2116 31.6592 89.3991 31.7408 89.5279 31.7408C89.8691 31.7408 90.5782 32.537 90.5175 32.8521C90.4285 33.3146 89.4507 33.6658 88.5228 33.5683C86.5064 33.3565 83.9169 33.3158 82.0489 33.4665C79.5102 33.6713 76.1938 33.9153 73.9184 34.0648C71.7204 34.2091 69.0754 34.5706 68.0384 34.8684C67.5992 34.9945 67.0967 35.1339 66.9216 35.1779C66.5077 35.282 65.3845 36.34 65.0959 36.8979C64.7332 37.5985 64.4087 38.3816 64.4087 38.5561C64.4087 38.645 64.3522 38.8312 64.2831 38.97C63.4294 40.685 63.2783 41.0401 63.3758 41.1003C63.4384 41.1391 63.7128 41.112 63.9855 41.0401C65.7212 40.582 66.2838 40.4569 66.6081 40.4569C66.8092 40.4569 67.0218 40.4087 67.0807 40.3499C67.1395 40.291 67.6241 40.1619 68.1574 40.063C68.6908 39.964 69.3886 39.8195 69.708 39.7418C70.7393 39.4911 72.3042 39.1378 72.9747 39.0043C73.3341 38.9328 74.0854 38.7688 74.6444 38.6401C75.8548 38.3613 77.4169 38.0356 78.4192 37.853C79.9335 37.5773 81.9258 37.2448 82.4845 37.1744C83.0237 37.1066 83.5378 36.9796 85.1415 36.5178C85.4849 36.4189 86.3149 36.3333 86.9861 36.3274C88.0424 36.3182 88.2363 36.3559 88.4297 36.6073C89.0121 37.3647 88.1028 38.2706 86.7554 38.2756C86.3894 38.2769 86.0415 38.3269 85.9825 38.3869C85.9234 38.4469 85.3735 38.5796 84.7606 38.6819C84.1474 38.7843 83.2866 38.9281 82.8474 39.0015C82.4082 39.075 81.5262 39.2377 80.8874 39.3631C80.2486 39.4886 79.3012 39.6561 78.7822 39.7352C78.2632 39.8144 77.7405 39.9173 77.6207 39.9638C77.5009 40.0104 77.0762 40.1047 76.677 40.1732C74.9753 40.4657 74.1911 40.6282 73.9184 40.7452C73.7587 40.8136 73.3994 40.9077 73.1199 40.9542C72.3677 41.0794 70.6461 41.4645 68.1835 42.0585C67.9041 42.1259 67.3814 42.2519 67.0221 42.3385C66.6627 42.425 66.238 42.5552 66.0783 42.6277C65.9186 42.7 65.6246 42.7949 65.425 42.8383C64.4386 43.0529 63.6828 43.2945 63.6828 43.3953C63.6828 43.457 63.5683 43.5073 63.4287 43.5069C63.289 43.5064 62.8739 43.6139 62.5066 43.7457C61.9572 43.9427 61.8059 44.0784 61.6551 44.5091C61.5542 44.7971 61.3882 45.229 61.2863 45.4687C60.5907 47.1058 60.4359 48.0109 60.8516 48.0109C60.9714 48.0109 61.0697 47.962 61.07 47.902C61.0703 47.842 61.3805 47.6717 61.7596 47.5234C62.1385 47.3751 62.6545 47.1627 62.9062 47.0513C63.1578 46.9399 63.4355 46.8488 63.5232 46.8488C63.611 46.8488 63.6828 46.7834 63.6828 46.7035C63.6828 46.6236 63.779 46.5582 63.8966 46.5582C64.0142 46.5582 64.4878 46.3899 64.9492 46.184C65.4105 45.9783 65.984 45.7238 66.2235 45.6188C66.4631 45.5136 66.8976 45.3224 67.1892 45.1939C67.4807 45.0655 67.8107 44.9603 67.9224 44.9603C68.0341 44.9603 68.1876 44.9081 68.2634 44.8444C68.3392 44.7806 68.7607 44.6116 69.1999 44.4688C69.639 44.326 70.1291 44.1551 70.2888 44.0887C70.4485 44.0223 70.9385 43.851 71.3777 43.7079C71.8168 43.5647 72.2415 43.4033 72.3214 43.3491C72.4012 43.2949 72.6931 43.2021 72.9699 43.1427C73.2468 43.0834 73.5735 42.9855 73.6959 42.9252C73.9832 42.7837 75.8037 42.3279 77.1125 42.0697C77.432 42.0068 77.9546 41.8842 78.274 41.7973C80.4976 41.193 82.6852 41.0738 83.5896 41.5075C84.2655 41.8316 84.4917 42.1132 84.3741 42.4839C84.2205 42.9684 83.7302 43.1386 82.1941 43.2412C80.6161 43.3466 79.0925 43.5574 78.2366 43.7887C77.0479 44.11 75.2013 44.5618 74.7896 44.632C74.55 44.6728 74.2887 44.7559 74.2088 44.8165C74.129 44.8772 73.8371 44.9752 73.5603 45.0347C73.2834 45.0939 72.9567 45.1937 72.8343 45.2563C72.7119 45.3191 72.2851 45.4802 71.8858 45.6146C70.2458 46.1666 67.8994 47.0434 66.6591 47.568C66.4994 47.6356 66.1074 47.7999 65.788 47.9334C65.4686 48.0667 65.0765 48.2352 64.9168 48.3079C64.0617 48.6965 60.9508 49.9384 60.6701 50.0032C60.4904 50.0447 60.3435 50.1292 60.3435 50.1911C60.3435 50.253 60.1965 50.3406 60.0168 50.3858C59.7553 50.4515 59.6381 50.6646 59.4294 51.4547C59.2859 51.9976 59.1068 52.6412 59.0311 52.885C58.6924 53.9768 58.3641 55.8555 58.5121 55.8555C58.5597 55.8555 59.0729 55.6101 59.6525 55.3101C60.2321 55.0103 61.0658 54.6114 61.505 54.4237C62.3305 54.0708 63.1766 53.6873 64.5539 53.042C64.9931 52.8362 65.8751 52.4679 66.5139 52.2234C67.1527 51.9791 67.8061 51.7208 67.9658 51.6496C68.1255 51.5783 68.5828 51.406 68.9821 51.2667C69.3813 51.1275 69.7701 50.959 69.8459 50.8923C69.9217 50.8257 70.0752 50.771 70.187 50.771C70.2986 50.771 70.596 50.6752 70.8476 50.5579C71.5064 50.2508 74.8725 49.1731 75.1724 49.1731C75.3118 49.1731 75.4626 49.1134 75.5076 49.0405C75.5528 48.9675 75.8644 48.8613 76.2003 48.8045C76.5361 48.7479 76.9115 48.6501 77.0344 48.5875C77.4211 48.3902 78.8018 48.0109 79.1328 48.0109C79.3073 48.0109 79.5168 47.9441 79.5986 47.8623C79.6802 47.7807 80.4369 47.6989 81.28 47.6807C82.6116 47.6521 82.8534 47.6841 83.1207 47.9245C84.074 48.7822 82.6963 49.5243 78.4918 50.418C77.9728 50.5283 77.3194 50.6832 77.04 50.7622C76.3354 50.9613 75.2685 51.287 75.0073 51.3828C74.8876 51.4266 74.3975 51.5776 73.9184 51.7182C73.4393 51.8588 72.9166 52.0247 72.7569 52.0869C72.5972 52.1489 71.8459 52.4055 71.0873 52.6569C70.3287 52.9084 69.5946 53.1752 69.456 53.2501C69.3173 53.3247 69.1175 53.3859 69.0121 53.3859C68.8399 53.3859 66.2206 54.3556 65.4976 54.6871C64.0427 55.354 63.2051 55.7102 63.0918 55.7102C63.0177 55.7102 62.9568 55.7756 62.9568 55.8555C62.9568 55.9354 62.868 56.0007 62.7595 56.0007C62.4208 56.0007 58.7033 58.1299 58.456 58.4657C58.4161 58.5198 58.2729 58.6048 58.1378 58.6547C57.7281 58.8057 57.4404 59.3971 57.3014 60.3743C57.2286 60.8851 57.0641 61.7606 56.9356 62.3199C56.5644 63.9362 56.4282 64.7523 56.5079 64.8815C56.5841 65.0049 57.0585 64.7841 57.4082 64.4627C57.5168 64.3629 57.699 64.2811 57.813 64.2811C57.9271 64.2811 58.0205 64.2157 58.0205 64.1358C58.0205 64.0559 58.0964 63.9905 58.1892 63.9905C58.3406 63.9905 59.7279 63.1724 59.9079 62.977C59.9478 62.9337 60.2256 62.7695 60.5249 62.6124C60.8245 62.4552 61.0694 62.2761 61.0694 62.2143C61.0694 62.1526 61.1627 62.102 61.2769 62.102C61.3908 62.102 61.5706 62.0201 61.6761 61.9202C61.7815 61.8201 62.113 61.609 62.4124 61.4512C62.7119 61.2935 62.9568 61.1139 62.9568 61.0522C62.9568 60.9904 63.0328 60.9399 63.1255 60.9399C63.2757 60.9399 64.6591 60.1251 64.8443 59.9278C64.8842 59.8852 65.0475 59.779 65.2072 59.6919C66.2751 59.1089 67.3027 58.529 67.6754 58.299C67.915 58.1513 68.2254 57.9911 68.365 57.9428C68.5047 57.8947 68.6191 57.7976 68.6191 57.727C68.6191 57.6565 68.7125 57.5987 68.8266 57.5987C68.9406 57.5987 69.1216 57.517 69.2286 57.4171C69.6093 57.0622 73.9238 55.0248 75.4429 54.4828C76.0418 54.269 76.632 54.0412 76.7544 53.9764C76.8768 53.9116 77.2013 53.8093 77.4755 53.7491C77.7498 53.6888 78.0743 53.5901 78.1967 53.5299C78.9831 53.1424 80.7593 52.9777 81.2599 53.2457C81.9229 53.6007 81.3945 54.7559 80.4851 54.94C80.2638 54.9847 80.0476 55.0783 80.0047 55.1479C79.9617 55.2174 79.7856 55.2744 79.6132 55.2744C79.3377 55.2744 78.6019 55.4971 77.6933 55.8555C77.5336 55.9185 77.0762 56.0811 76.677 56.217C76.2777 56.3529 75.7452 56.5558 75.4936 56.6681C75.242 56.7804 74.9642 56.8723 74.8765 56.8723C74.7887 56.8723 74.717 56.9377 74.717 57.0176C74.717 57.0975 74.6211 57.1629 74.5041 57.1629C74.2416 57.1629 73.2104 57.6309 73.1441 57.7803C73.1174 57.8401 73.0085 57.8892 72.902 57.8892C72.7135 57.8892 71.8369 58.2815 70.5065 58.9612C68.9686 59.7469 67.9608 60.2923 67.8932 60.3755C67.8532 60.4248 67.6737 60.5108 67.4939 60.567C67.3143 60.623 67.1672 60.7298 67.1672 60.8043C67.1672 60.8789 67.0968 60.9399 67.0107 60.9399C66.9246 60.9399 66.1914 61.3484 65.3814 61.8478C64.5714 62.3472 63.7963 62.8211 63.6589 62.901C63.0065 63.2806 61.1246 64.5035 60.9858 64.638C60.8998 64.7214 60.5242 64.9823 60.1509 65.2179C59.7777 65.4537 59.4723 65.6987 59.4723 65.7627C59.4723 65.8267 59.39 65.879 59.2894 65.879C59.1888 65.879 58.9436 66.026 58.7445 66.2059C58.5456 66.3857 57.9908 66.8268 57.512 67.186C57.0331 67.5454 56.6085 67.8757 56.5686 67.9201C56.5287 67.9645 56.2511 68.1849 55.9516 68.4099C55.4444 68.7908 55.4071 68.8708 55.4071 69.5754C55.4071 70.2326 55.2445 72.3158 55.0578 74.0504C55.0232 74.3719 55.0619 74.5952 55.1519 74.5952C55.3836 74.5952 56.4025 73.7208 58.0546 72.104C60.2826 69.9239 62.0873 68.2177 63.0258 67.4044C63.4868 67.0049 63.9374 66.6118 64.0274 66.5308C64.1173 66.4499 64.3756 66.2653 64.6013 66.1208C64.827 65.9761 65.156 65.7323 65.3322 65.5789C65.7983 65.1735 67.5192 64.1407 68.6923 63.5624C69.251 63.2871 69.7298 63.0092 69.7564 62.945C69.7831 62.881 69.8982 62.8284 70.0125 62.8284C70.1267 62.8284 70.3336 62.7653 70.4723 62.6882C70.6109 62.6111 71.051 62.4115 71.4503 62.2444C71.8495 62.0775 72.3069 61.8843 72.4666 61.8153C72.6263 61.7461 73.2469 61.516 73.8458 61.3039C74.4447 61.0917 75.1961 60.8171 75.5155 60.6938C75.8349 60.5703 76.2269 60.42 76.3866 60.3598C76.5463 60.2995 77.3826 59.9432 78.2452 59.5678C80.0513 58.7819 80.6823 58.6409 81.1858 58.9103C81.6187 59.1423 81.6608 59.7401 81.2753 60.1848C80.9408 60.5706 79.7666 61.1621 77.9111 61.8793C77.5517 62.0182 77.1515 62.186 77.0215 62.2522C76.8916 62.3185 76.5479 62.4173 76.2577 62.4717C75.9675 62.5262 75.6942 62.6288 75.6505 62.6995C75.6068 62.7704 75.4464 62.8284 75.2941 62.8284C75.0439 62.8284 74.3331 63.0899 73.6664 63.4272C73.5277 63.4973 73.3492 63.5547 73.2696 63.5547C73.1031 63.5547 70.6818 64.7307 69.9258 65.1785C69.6463 65.3443 69.2216 65.5888 68.9821 65.722C68.3793 66.0574 66.82 67.0686 66.7317 67.1817C66.6917 67.2326 66.4304 67.4155 66.1509 67.588C65.7077 67.8614 65.4657 68.0472 64.5963 68.7815C64.4999 68.863 64.3767 68.9297 64.3226 68.9297C64.2684 68.9297 64.0841 69.0768 63.9127 69.2565C63.7414 69.4364 63.146 69.9731 62.5895 70.4493C61.472 71.4058 57.7006 75.1592 56.3768 76.6326C55.9119 77.1499 55.4016 77.7173 55.2428 77.8933C54.9708 78.1948 54.9637 78.2925 55.1198 79.5639C55.2108 80.3067 55.3387 81.5027 55.4036 82.2218C55.5211 83.5208 55.7326 84.336 55.9479 84.3196C56.0098 84.315 56.3476 83.8629 56.6985 83.3149C57.0495 82.7671 57.4741 82.164 57.6423 81.975C57.8104 81.7858 58.1741 81.339 58.4507 80.9822C58.7272 80.6253 59.0048 80.3115 59.0677 80.2849C59.1306 80.2582 59.182 80.1835 59.182 80.1189C59.182 79.6433 65.3122 73.6681 67.0811 72.4196C67.2483 72.3017 67.5157 72.0716 67.6754 71.9084C67.8351 71.7451 68.3578 71.3231 68.8369 70.9704C69.316 70.6177 69.7407 70.2922 69.7806 70.2468C69.8205 70.2015 69.9643 70.0991 70.1 70.0192C70.3849 69.8514 72.816 68.1326 73.0775 67.9141C73.1739 67.8335 73.321 67.7675 73.4042 67.7675C73.4874 67.7675 73.5555 67.717 73.5555 67.6552C73.5555 67.5935 73.8005 67.417 74.0999 67.263C74.3994 67.109 74.7443 66.9008 74.8664 66.8006C75.5119 66.2708 77.2679 66.1351 77.9837 66.5598C78.2694 66.7293 78.2697 66.7402 78.0037 67.2376C77.7228 67.7627 76.7474 68.3755 75.8939 68.5632C75.6457 68.6176 75.4422 68.7061 75.4413 68.7596C75.4403 68.8132 75.1789 68.982 74.8606 69.1347C74.542 69.2873 74.2814 69.467 74.2814 69.5341C74.2814 69.6011 74.1998 69.6557 74.0999 69.6554C73.9055 69.6549 71.4828 71.2534 71.4019 71.4356C71.3752 71.4956 71.2663 71.5445 71.1599 71.5445C71.0535 71.5445 70.9446 71.5958 70.9179 71.6584C70.8913 71.721 70.4775 72.0762 69.9984 72.4477C69.5193 72.8191 68.9227 73.3072 68.6727 73.5322C68.4227 73.7574 67.8379 74.2683 67.373 74.6678C66.3221 75.5711 63.5239 78.3736 62.7187 79.3293C62.3881 79.7217 61.8819 80.2846 61.5935 80.5802C61.3053 80.876 61.0694 81.157 61.0694 81.2046C61.0694 81.2524 60.92 81.4354 60.7375 81.6114C60.555 81.7873 60.1792 82.2253 59.9027 82.5845C59.256 83.4245 59.0532 83.6732 58.559 84.2326C58.1251 84.7238 57.1409 85.8573 56.6024 86.4862C55.7518 87.4795 55.8315 89.5467 56.8084 91.8315C56.916 92.0832 57.0062 92.3774 57.0088 92.4852C57.0113 92.593 57.1042 92.801 57.215 92.9474C57.4076 93.2015 57.4248 93.1983 57.5964 92.8748C58.5523 91.0729 58.8753 90.5142 59.4553 89.659C59.824 89.1154 60.191 88.5632 60.2709 88.4319C60.3507 88.3006 60.563 88.027 60.7427 87.8238C60.9225 87.6207 61.0694 87.4047 61.0694 87.344C61.0694 87.2832 61.1838 87.1131 61.3235 86.9658C61.4631 86.8185 61.7827 86.4427 62.0336 86.1305C62.2843 85.8184 62.7402 85.2688 63.0465 84.9093C63.6301 84.2245 67.3149 80.5152 68.1862 79.7356C68.4642 79.4868 69.0483 78.9078 69.484 78.449C70.5076 77.3711 71.0153 76.9917 71.79 76.7252C72.5662 76.4584 73.2323 76.6603 73.1501 77.1374C72.9943 78.0433 72.2177 78.9941 70.7221 80.11C68.7074 81.6133 66.0693 84.2919 64.1183 86.8152C63.9187 87.0735 63.6864 87.3549 63.602 87.4407C63.5177 87.5266 63.3239 87.8091 63.1714 88.0689C63.019 88.3286 62.843 88.541 62.7803 88.541C62.7177 88.541 62.6664 88.6062 62.6664 88.6858C62.6664 88.8087 61.6779 90.264 61.2147 90.8229C61.1349 90.9193 61.0694 91.0302 61.0694 91.0693C61.0694 91.1082 60.6447 91.7404 60.1257 92.4742C59.6066 93.2079 59.182 93.8979 59.182 94.0073C59.182 94.1169 59.1293 94.2065 59.0646 94.2065C59.0002 94.2065 58.8263 94.4815 58.678 94.8175C58.3744 95.5061 58.2825 97.4925 58.5465 97.6639C58.6326 97.7198 58.7804 97.9126 58.8749 98.0924C59.1211 98.5602 59.4326 98.4957 59.5519 97.952C59.6082 97.6948 59.7033 97.3844 59.763 97.2619C61.1567 94.4051 61.588 93.5401 61.6497 93.4801C61.6906 93.4402 62.1865 92.7865 62.7515 92.0275C63.3166 91.2684 64.0186 90.3932 64.3116 90.0823C64.6045 89.7716 64.8443 89.496 64.8443 89.47C64.8443 89.2919 68.6865 85.6607 69.9258 84.6677C70.2053 84.4437 70.7439 83.9489 71.1229 83.568C71.5018 83.1871 71.8475 82.8755 71.8912 82.8755C71.9349 82.8755 72.1139 82.7419 72.2891 82.5784C73.0126 81.9041 74.2577 81.4851 74.6612 81.7803C75.0268 82.0478 74.8531 83.0147 74.3338 83.6031C74.1053 83.8622 73.4284 84.436 72.8295 84.8785C72.2306 85.321 71.708 85.7213 71.668 85.7682C71.6281 85.8152 71.1381 86.2457 70.5791 86.7251C68.7367 88.3052 65.294 91.8813 64.4087 93.1347C64.2889 93.3044 63.9133 93.8082 63.5739 94.2544C63.2346 94.7005 62.9568 95.104 62.9568 95.1506C62.9568 95.1974 62.8228 95.3794 62.659 95.5553C62.4699 95.7585 62.3743 96.0341 62.3968 96.3119C62.4747 97.2712 62.131 98.1927 61.394 99.0004C61.2118 99.2001 60.9331 99.6302 60.7747 99.9562C60.5351 100.449 60.5136 100.627 60.647 101.009C60.9463 101.868 61.3284 101.629 62.4009 99.9119C63.0002 98.9524 64.0838 97.4027 64.2571 97.2571C64.3047 97.2172 64.5706 96.8903 64.848 96.5308C65.5587 95.6096 65.9956 95.1355 67.9057 93.2126C69.8139 91.2915 70.2225 90.9203 71.5321 89.9186C72.0461 89.5255 72.546 89.1363 72.643 89.0539C73.6458 88.2027 74.2329 87.8347 74.738 87.741C75.3734 87.623 75.8785 87.8536 75.8785 88.2614C75.8785 88.6835 75.3752 89.5951 75.0023 89.8484C74.8257 89.9683 74.6065 90.1317 74.515 90.2116C74.4235 90.2915 74.1213 90.4805 73.8432 90.6317C72.6401 91.2856 71.3528 92.3549 69.4266 94.3005C67.1397 96.6102 66.1927 97.8147 64.5004 100.566C63.0852 102.867 63.0349 102.994 63.4031 103.337C63.5643 103.488 63.9381 103.734 64.2339 103.884C64.5296 104.034 64.8043 104.199 64.8443 104.25C64.9527 104.389 65.9416 104.662 67.1672 104.892C68.486 105.139 69.8536 105.156 71.266 104.942C72.3694 104.775 75.0155 104.148 75.5155 103.936C75.6752 103.868 76.2514 103.612 76.796 103.368C77.3406 103.123 77.8469 102.923 77.9212 102.923C77.9954 102.923 78.0563 102.864 78.0563 102.793C78.0563 102.722 78.2196 102.622 78.4192 102.572C78.6189 102.522 78.7822 102.417 78.7822 102.339C78.7822 102.26 78.8648 102.196 78.9656 102.196C79.2182 102.196 80.472 101.324 81.1916 100.648C81.8237 100.055 82.9926 98.5255 82.9926 98.2923C82.9926 98.2156 83.0481 98.1312 83.1157 98.1045C83.4055 97.9906 84.9863 94.9016 85.5936 93.2622C85.8601 92.5432 86.1678 91.7488 86.2776 91.4971C86.3874 91.2453 86.4771 90.9666 86.4771 90.8776C86.4771 90.7887 86.5353 90.6025 86.6065 90.4638C86.6777 90.325 86.8428 89.8194 86.9734 89.34C87.1039 88.8606 87.282 88.2069 87.3691 87.8873C87.4562 87.5677 87.6178 87.0167 87.7282 86.663C87.8387 86.3091 87.929 85.867 87.929 85.6804C87.929 85.4938 87.9917 85.2276 88.0684 85.0888C88.1449 84.9501 88.2793 84.5098 88.3669 84.1103C88.4545 83.7108 88.5819 83.1551 88.65 82.8755C88.7181 82.5959 88.8823 81.9095 89.015 81.3502C89.1475 80.7909 89.3514 79.9411 89.4679 79.4617C89.5845 78.9823 89.7194 78.3286 89.7678 78.009C89.8161 77.6894 89.9037 77.3625 89.9623 77.2826C90.021 77.2027 90.114 76.8759 90.1692 76.5563C90.2244 76.2367 90.3251 75.7791 90.3931 75.5394C90.6768 74.5388 91.011 73.4868 91.1314 73.2151C91.2022 73.0553 91.3886 72.5896 91.5454 72.1801C91.9778 71.0508 92.871 69.0693 93.0105 68.9297C93.0504 68.8897 93.1901 68.6282 93.3208 68.3486C94.0946 66.6933 95.5572 63.7616 95.6398 63.7C95.6934 63.66 95.8785 63.3659 96.051 63.0463C96.6319 61.9707 97.7575 60.3265 97.974 60.2378C98.0389 60.2111 98.092 60.1021 98.092 59.9956C98.092 59.8891 98.141 59.7802 98.2009 59.7535C98.2609 59.7269 98.6336 59.3129 99.0294 58.8335C99.9253 57.7482 101.002 56.7271 101.25 56.7271C101.595 56.7271 102.657 55.9608 103.464 55.1304C104.201 54.3721 105.597 53.3859 105.934 53.3859C106.013 53.3859 106.077 53.3218 106.077 53.2434C106.077 53.1651 106.241 53.0599 106.44 53.0098C106.64 52.9597 106.803 52.8603 106.803 52.7891C106.803 52.7178 106.865 52.6595 106.94 52.6595C107.015 52.6595 107.627 52.4037 108.301 52.091C108.974 51.7782 109.86 51.4033 110.27 51.2578C110.679 51.1124 111.014 50.9433 111.014 50.8822C111.014 50.821 111.074 50.771 111.148 50.771C111.268 50.771 111.978 50.46 114.208 49.4317C114.826 49.1465 117.012 47.7663 117.603 47.2879C118.923 46.2192 121.077 44.1077 125.026 40.0095C127.792 37.14 127.735 37.2068 128.653 35.7292C129.86 33.7879 130.215 32.9201 130.849 30.3623C131.235 28.8043 131.194 25.3257 130.773 23.9689C130.248 22.2764 129.609 21.1229 128.742 20.3029C128.408 19.9872 128.291 19.9739 125.838 19.9692C123.284 19.9646 120.241 19.7409 116.821 19.3064C114.163 18.9685 112.994 18.9003 113.111 19.0899C113.165 19.1766 113.333 19.2477 113.485 19.2477C113.884 19.2477 115.083 19.6748 115.468 19.9537C115.648 20.0847 115.871 20.4111 115.962 20.679C116.203 21.3881 115.901 21.6398 114.809 21.6398C114.097 21.6398 113.751 21.5341 112.598 20.9643C109.763 19.5628 107.578 18.5483 106.9 18.3187C106.178 18.0737 104.485 17.7857 103.972 17.8202C103.812 17.831 102.62 17.9376 101.322 18.0572ZM53.8826 20.1103C53.1611 20.2866 50.726 21.3008 50.147 21.6661C49.8491 21.8541 49.5388 22.0078 49.4573 22.0078C49.3759 22.0078 49.3093 22.0731 49.3093 22.153C49.3093 22.2329 49.2159 22.2983 49.1018 22.2983C48.9878 22.2983 48.8053 22.3801 48.6964 22.4799C48.4596 22.6971 48.0129 22.9894 47.7122 23.1239C47.5924 23.1775 47.4618 23.2588 47.4218 23.3046C47.3819 23.3504 47.0552 23.6142 46.6959 23.8909C46.3366 24.1676 46.0208 24.4454 45.9942 24.5083C45.9675 24.5712 45.8586 24.6226 45.7522 24.6226C45.6458 24.6226 45.5369 24.6722 45.5102 24.7326C45.4836 24.7932 45.1678 25.0699 44.8085 25.3477C44.4491 25.6253 43.985 26.0171 43.7769 26.2181C43.5689 26.4192 43.0312 26.8452 42.5822 27.1648C41.5483 27.9008 41.501 28.1808 42.4342 28.0408C42.8053 27.9852 43.2136 27.8858 43.3416 27.8201C43.6391 27.6673 45.057 27.3034 46.2192 27.0816C47.0006 26.9324 47.1905 26.9418 47.6337 27.1522C48.5177 27.572 48.4635 28.4682 47.5287 28.8908C46.9985 29.1305 44.9258 29.5606 44.2858 29.5639C43.8941 29.5658 42.9437 29.8344 42.2677 30.1343C41.262 30.5802 39.6837 31.1539 39.001 31.3217C38.0972 31.5438 38.1755 31.4638 36.287 34.0997C34.5559 36.5162 34.388 37.0045 35.4793 36.4491C35.7793 36.2964 36.0573 36.1371 36.0972 36.0948C36.1372 36.0527 36.4638 35.8911 36.8232 35.7357C37.1825 35.5803 37.5092 35.4187 37.5491 35.3766C37.6237 35.2977 38.1985 35.0689 39.2188 34.712C39.7786 34.516 40.3641 34.3542 42.3018 33.8601C42.8116 33.7301 43.8007 33.6293 44.566 33.6293C45.6982 33.6293 45.965 33.6736 46.1652 33.895C46.4812 34.2444 46.4694 34.5943 46.1317 34.8836C45.8226 35.1484 44.448 35.6631 44.0499 35.6631C43.906 35.6631 43.6747 35.7203 43.536 35.7902C43.3974 35.8601 42.794 36.0303 42.1951 36.1685C40.1562 36.639 37.5816 37.5109 36.4129 38.1267C36.2074 38.2351 35.0038 38.8064 32.4676 39.9999C31.9847 40.2271 31.665 40.503 31.1497 41.1367C30.547 41.8783 26.8053 48.0991 26.8053 48.3597C26.8053 48.4075 26.8815 48.4467 26.9746 48.4467C27.1476 48.4467 29.5509 47.3314 31.0517 46.5545C31.5107 46.3168 31.9789 46.1224 32.0921 46.1224C32.2055 46.1224 32.3199 46.0735 32.3466 46.0135C32.3947 45.9051 33.8715 45.1589 35.9521 44.1914C37.8645 43.3022 38.4006 43.0718 38.5574 43.0718C38.6417 43.0718 38.7106 43.0064 38.7106 42.9265C38.7106 42.8466 38.8064 42.7812 38.9235 42.7812C39.1193 42.7812 39.8772 42.491 40.4871 42.1824C40.6258 42.1123 40.836 42.0549 40.9542 42.0549C41.1505 42.0549 41.9008 41.7684 42.5154 41.4589C42.6517 41.3902 43.0288 41.2915 43.3534 41.2395C43.6782 41.1876 43.9789 41.0883 44.0217 41.019C44.0645 40.9496 44.4965 40.8927 44.9815 40.8927C45.7034 40.8927 45.9125 40.9494 46.1345 41.2055C46.4189 41.5337 46.4746 41.8666 46.293 42.1524C46.144 42.3867 44.7887 43.0539 44.238 43.1642C43.9895 43.2139 43.7509 43.3115 43.7079 43.3811C43.665 43.4506 43.4778 43.5076 43.2921 43.5076C42.9585 43.5076 41.6692 43.8573 41.1062 44.1004C40.9465 44.1694 40.481 44.3544 40.0717 44.5113C39.6625 44.6681 39.0091 44.9372 38.6199 45.1092C37.8897 45.432 37.549 45.5865 35.6148 46.4733C34.9901 46.7597 34.4185 46.994 34.3444 46.994C34.2704 46.994 34.2098 47.0594 34.2098 47.1393C34.2098 47.2192 34.1409 47.2846 34.0565 47.2846C33.9721 47.2846 33.5312 47.4714 33.0765 47.6999C30.8104 48.8382 28.3218 50.1237 28.2572 50.1891C28.2172 50.2295 27.7474 50.4873 27.2131 50.7619C26.3603 51.2003 26.1955 51.2403 25.8633 51.0887C25.6553 50.9939 25.4315 50.9163 25.3663 50.9163C25.2249 50.9163 24.7727 52.0544 24.7727 52.4101C24.7727 52.5474 24.7073 52.6595 24.6275 52.6595C24.5476 52.6595 24.4823 52.764 24.4823 52.8918C24.4823 53.0195 24.3843 53.3464 24.2645 53.6182C24.1447 53.8898 23.9487 54.3346 23.829 54.6063C23.7092 54.8781 23.6112 55.201 23.6112 55.3241C23.6112 55.4471 23.5509 55.5851 23.4772 55.6306C23.4034 55.6762 23.2971 55.9232 23.241 56.1793C23.1848 56.4354 23.0827 56.7451 23.0142 56.8676C22.89 57.0897 22.3045 58.8275 22.3045 58.9741C22.3045 59.0167 22.4352 59.0514 22.5949 59.0514C22.7546 59.0514 22.8852 58.9873 22.8852 58.9089C22.8852 58.8306 23.0486 58.7254 23.2482 58.6753C23.4478 58.6252 23.6112 58.5406 23.6112 58.4876C23.6112 58.4346 23.8563 58.2624 24.1556 58.1052C24.4552 57.9481 24.7327 57.7794 24.7727 57.7306C24.8493 57.637 25.9497 56.9777 26.4423 56.7303C26.602 56.6501 27.19 56.3266 27.749 56.0112C28.308 55.696 29.0593 55.2869 29.4187 55.1021C29.778 54.9173 30.1047 54.7317 30.1446 54.6894C30.1845 54.6473 30.5112 54.4856 30.8705 54.3301C31.2299 54.1747 31.5565 54.0132 31.5965 53.971C31.6364 53.9288 32.1264 53.6655 32.6854 53.3859C33.2443 53.1062 33.7343 52.8448 33.7743 52.8048C33.8142 52.7649 34.7942 52.254 35.9521 51.6695C37.1099 51.085 38.2859 50.4722 38.5654 50.3079C38.8449 50.1435 39.6031 49.7293 40.2502 49.3876C41.7852 48.5769 42.0714 48.4107 42.3088 48.1925C42.4174 48.0927 42.5941 48.0109 42.7015 48.0109C42.8089 48.0109 42.9199 47.9416 42.9482 47.8569C42.9763 47.7724 43.282 47.6992 43.6274 47.6944C44.4294 47.6834 44.7298 47.9582 44.5937 48.5784C44.4902 49.0496 43.6637 50.0447 43.3758 50.0447C43.2853 50.0447 43.2114 50.1057 43.2114 50.1802C43.2114 50.2548 43.0645 50.3612 42.8847 50.417C42.5586 50.5183 42.2734 50.6412 40.4064 51.4855C39.8618 51.7317 39.3609 51.9332 39.2934 51.9332C39.2257 51.9332 39.1486 51.9822 39.1219 52.0421C39.0774 52.1427 38.7639 52.3054 37.4039 52.9334C37.1244 53.0624 36.8631 53.2007 36.8232 53.2406C36.7833 53.2806 36.1299 53.6249 35.3713 54.0057C34.6127 54.3866 33.6327 54.9006 33.1935 55.1479C32.7543 55.3951 31.9072 55.8605 31.311 56.1823C29.1578 57.3443 25.1735 59.8883 24.0891 60.7934C23.9927 60.8741 23.8457 60.9399 23.7625 60.9399C23.6793 60.9399 23.6112 61.0009 23.6112 61.0754C23.6112 61.1499 23.4969 61.2487 23.3571 61.2952C23.2173 61.3415 22.846 61.6042 22.532 61.8789C22.1207 62.2389 21.7966 62.3905 21.3733 62.4218C20.8616 62.4595 20.7684 62.5217 20.6544 62.901C20.5824 63.1407 20.4715 63.4676 20.4081 63.6274C20.2892 63.9268 19.9899 64.9313 19.7158 65.9517C18.7683 69.4795 18.7168 69.8989 19.2984 69.3566C19.47 69.1968 19.9715 68.8228 20.413 68.5257C20.8544 68.2286 21.2374 67.9365 21.2639 67.8765C21.2907 67.8165 21.3995 67.7675 21.506 67.7675C21.6124 67.7675 21.7213 67.713 21.748 67.6465C21.8114 67.4876 26.3156 64.7169 26.5103 64.7169C26.5927 64.7169 26.6601 64.6559 26.6601 64.5813C26.6601 64.5068 26.8072 64.4 26.9868 64.344C27.1665 64.2878 27.3461 64.2017 27.3862 64.1525C27.4261 64.1034 27.6548 63.9615 27.8943 63.8371C29.1201 63.201 29.9344 62.7485 29.9994 62.6674C30.0393 62.6177 30.2191 62.5312 30.3987 62.4749C30.5784 62.4189 30.7253 62.3121 30.7253 62.2376C30.7253 62.163 30.7895 62.102 30.8679 62.102C30.9846 62.102 32.1248 61.4617 33.1935 60.7959C33.3133 60.7214 33.6889 60.5155 34.0283 60.3385C34.3678 60.1615 34.6454 59.9674 34.6454 59.907C34.6454 59.8467 34.7646 59.7594 34.9102 59.7132C35.0558 59.667 35.3028 59.5155 35.459 59.3766C35.6152 59.2376 35.9696 58.9982 36.2468 58.8444C36.5238 58.6907 36.7833 58.5273 36.8232 58.4812C36.8631 58.4353 37.1244 58.2928 37.4039 58.1645C38.7068 57.5664 39.7743 57.4245 39.9292 57.8285C40.2251 58.6 39.9132 59.0722 38.6422 59.7771C38.1654 60.0417 37.1044 60.6729 36.2845 61.18C35.4645 61.6871 34.7277 62.102 34.647 62.102C34.5663 62.102 34.5002 62.1661 34.5002 62.2445C34.5002 62.3228 34.3369 62.428 34.1372 62.4781C33.9376 62.5282 33.7743 62.6276 33.7743 62.6988C33.7743 62.7701 33.6975 62.8284 33.6037 62.8284C33.5099 62.8284 32.5621 63.3513 31.4974 63.9905C30.4329 64.6297 29.4969 65.1527 29.4176 65.1527C29.3384 65.1527 29.2735 65.2109 29.2735 65.2823C29.2735 65.3534 29.1101 65.4528 28.9105 65.5029C28.7109 65.553 28.5475 65.6582 28.5475 65.7365C28.5475 65.815 28.4716 65.879 28.3788 65.879C28.2274 65.879 26.8401 66.6972 26.6601 66.8926C26.6202 66.9359 26.3426 67.1 26.0431 67.2572C25.7437 67.4144 25.4986 67.5865 25.4986 67.6395C25.4986 67.6926 25.3504 67.7733 25.169 67.8188C24.9878 67.8643 24.7066 68.0185 24.5441 68.1613C24.2121 68.4533 23.7909 68.7368 23.466 68.8868C23.3462 68.9422 23.0856 69.1378 22.8867 69.3218C22.6879 69.5055 22.4429 69.656 22.3422 69.656C22.2416 69.656 22.1593 69.7083 22.1593 69.7721C22.1593 69.8359 21.8997 70.0484 21.5825 70.2442C21.2652 70.44 21.0039 70.6492 21.0017 70.7092C20.9996 70.7692 20.9053 70.8182 20.7921 70.8182C20.679 70.8182 20.5647 70.8696 20.538 70.9325C20.5114 70.9954 20.1971 71.2732 19.8395 71.5499C18.3628 72.6924 18.1427 73.0374 17.9438 74.5225C17.8796 75.0019 17.7202 76.0479 17.5894 76.8468C17.2417 78.9731 17.175 79.5343 17.2709 79.5343C17.3179 79.5343 17.6071 79.2891 17.9136 78.9895C18.2201 78.69 18.9247 78.0526 19.4792 77.5732C20.0338 77.0938 20.6605 76.5381 20.8721 76.3384C21.3047 75.9299 21.595 75.6838 22.7401 74.7552C23.1792 74.3992 23.5713 74.0659 23.6112 74.015C23.6511 73.9638 24.0758 73.6322 24.5549 73.278C25.0339 72.9238 25.5565 72.5156 25.7164 72.3708C25.8761 72.2261 26.5621 71.7066 27.2409 71.2164C27.9196 70.7261 28.5076 70.2888 28.5475 70.2447C28.5875 70.2006 28.7309 70.0991 28.8662 70.0192C29.1247 69.8665 30.6625 68.7953 32.9846 67.1501C33.7459 66.6109 34.4256 66.1696 34.495 66.1696C34.5644 66.1696 34.6429 66.1205 34.6696 66.0606C34.7458 65.8889 35.6093 65.4432 35.8655 65.4432C35.993 65.4432 36.0972 65.3778 36.0972 65.298C36.0972 65.0777 37.8256 65.118 38.0509 65.3436C38.5436 65.8365 36.9238 67.4112 34.7906 68.5129C34.2715 68.7809 33.7605 69.0824 33.6551 69.1829C33.5495 69.2833 33.3698 69.3655 33.2558 69.3655C33.1417 69.3655 33.0483 69.4309 33.0483 69.5107C33.0483 69.5906 32.9904 69.656 32.9197 69.656C32.7555 69.656 30.9591 70.8439 30.8948 70.9951C30.8681 71.0576 30.7795 71.1087 30.6979 71.1087C30.5372 71.1087 29.377 71.9805 29.2977 72.1609C29.271 72.2213 29.1859 72.2709 29.1084 72.2709C28.9626 72.2709 26.9512 73.7215 26.4526 74.1862C26.2971 74.3312 26.1263 74.4499 26.0731 74.4499C26.02 74.4499 25.8122 74.5971 25.6111 74.7767C25.4102 74.9564 25.1208 75.2017 24.968 75.3215C24.1285 75.9799 22.8996 77.0425 22.4957 77.4594C22.2416 77.7216 22.0021 77.9363 21.9636 77.9363C21.6803 77.9363 17.223 82.3785 17.223 82.6608C17.223 82.7789 17.1628 82.8755 17.0895 82.8755C16.6818 82.8755 16.4529 85.6058 16.7142 87.3499L16.8296 88.12L18.4486 86.4783C20.2947 84.6064 21.7571 83.2481 24.0467 81.2786C24.2464 81.1068 24.5889 80.8076 24.8077 80.6135C25.0266 80.4194 25.2717 80.2607 25.3521 80.2607C25.4327 80.2607 25.4986 80.2063 25.4986 80.1401C25.4986 80.0737 25.7762 79.8167 26.1157 79.5689C26.4551 79.3212 26.9095 78.9506 27.1256 78.7453C27.3418 78.5401 27.5813 78.3722 27.658 78.3722C27.7346 78.3722 27.8191 78.3207 27.8458 78.2578C27.8724 78.1949 28.1882 77.9172 28.5475 77.6404C28.9069 77.3637 29.2335 77.1016 29.2735 77.0579C29.3134 77.0143 29.7381 76.6756 30.2172 76.3053C30.6963 75.9348 31.2843 75.4567 31.5239 75.2425C31.7634 75.0284 32.1881 74.6812 32.4676 74.4708C32.7471 74.2605 33.0084 74.0488 33.0483 74.0003C33.2239 73.7873 34.8012 72.9972 35.0506 72.9972C35.3475 72.9972 35.8069 73.4221 35.8069 73.6968C35.8069 73.9431 33.3176 76.3997 31.879 77.5732C31.6831 77.733 31.2293 78.0925 30.8705 78.3722C30.2194 78.8797 29.6697 79.3305 29.363 79.6088C29.2739 79.6898 29.007 79.8803 28.7701 80.0323C28.401 80.2691 27.6792 80.8282 26.4394 81.8377C26.2781 81.969 25.9188 82.2488 25.6409 82.4596C25.363 82.6702 24.9723 82.986 24.7727 83.1615C24.573 83.337 23.985 83.8485 23.466 84.2983C21.3072 86.1687 17.4522 90.2232 17.0618 91.0337C16.9333 91.3007 16.747 91.6904 16.648 91.8997C16.4238 92.3739 16.6524 94.7912 17.0169 95.8021C17.0982 96.0276 17.5511 95.5883 18.3618 94.497C18.7785 93.936 20.2119 92.2018 20.8243 91.5177C21.0395 91.2774 21.6076 90.6271 22.0867 90.0726C23.3509 88.6097 25.2454 86.6198 26.6508 85.2788C27.3243 84.6362 28.5963 83.4001 29.4773 82.5319C30.3582 81.6638 31.277 80.8037 31.5192 80.6205C32.0416 80.2253 33.0928 79.9185 33.491 80.0451C33.8236 80.1507 33.8768 80.8108 33.5928 81.3099C33.278 81.863 32.282 82.8845 31.3787 83.5806C30.1192 84.5515 30.0466 84.6118 29.086 85.4903C27.0065 87.3923 23.8888 90.7125 23.0415 91.9271C22.9194 92.1021 22.6709 92.3836 22.4895 92.5526C22.3078 92.7215 22.1583 92.9177 22.157 92.9884C22.1557 93.0591 21.9761 93.3221 21.7577 93.5727C20.6704 94.8211 20.0415 95.5778 19.9221 95.7813C19.8495 95.9051 19.6373 96.1481 19.4503 96.3216C19.2634 96.4949 19.1104 96.7109 19.1104 96.8017C19.1104 96.8924 19.0581 96.9666 18.9944 96.9666C18.9306 96.9666 18.7182 97.2263 18.5225 97.5438C18.3268 97.8612 18.1176 98.1227 18.0578 98.1248C17.998 98.127 17.9489 98.2194 17.9489 98.3301C17.9489 98.4408 17.8513 98.7185 17.732 98.9475C17.3673 99.6472 17.4576 100.857 18.0231 102.85C18.1591 103.329 18.3238 103.942 18.3888 104.211C18.5671 104.95 18.7731 105.076 18.9916 104.579C19.0935 104.347 19.211 104.125 19.2527 104.085C19.3976 103.945 19.7001 103.429 19.7849 103.177C19.8318 103.037 19.9279 102.923 19.9985 102.923C20.0689 102.923 20.1267 102.829 20.1267 102.715C20.1267 102.601 20.2084 102.418 20.3082 102.309C20.5731 102.02 20.8487 101.579 20.9464 101.288C20.9933 101.148 21.0791 101.034 21.137 101.034C21.195 101.034 21.3656 100.805 21.5161 100.526C21.6667 100.246 21.8294 100.017 21.8778 100.017C21.9263 100.017 22.2033 99.6722 22.4937 99.2505C22.7839 98.8288 23.14 98.3548 23.2851 98.1973C23.4301 98.0397 23.6479 97.7676 23.7691 97.5926C24.0264 97.2208 25.2643 95.7697 25.789 95.2245C26.2296 94.7666 27.6456 93.1363 28.1242 92.5359C28.3151 92.2962 28.8455 91.7243 29.3027 91.2648C30.092 90.4715 30.1703 90.4295 30.8554 90.4295C31.452 90.4295 31.593 90.4803 31.6701 90.7232C31.9215 91.516 31.5933 91.9772 29.1861 94.2133C28.7949 94.5766 28.1483 95.2566 27.749 95.7244C27.3497 96.1922 26.9415 96.6583 26.8416 96.7603C26.7417 96.8624 26.6601 96.9785 26.6601 97.0185C26.6601 97.0584 26.4236 97.341 26.1345 97.6463C25.8455 97.9515 25.3081 98.5936 24.9404 99.073C24.5728 99.5524 24.1559 100.071 24.0141 100.226C23.8724 100.381 23.7564 100.551 23.7564 100.603C23.7564 100.656 23.5891 100.888 23.3847 101.12C23.1803 101.353 22.6284 102.131 22.1586 102.85C21.6886 103.569 21.2515 104.225 21.1873 104.307C21.0549 104.477 20.5612 105.354 20.4129 105.683C19.8352 106.964 19.8418 106.944 19.5912 108.203C19.5459 108.43 19.5814 108.855 19.6699 109.147C19.7585 109.439 19.9552 110.103 20.1069 110.622C20.3905 111.592 20.6272 111.785 20.9094 111.276C20.998 111.116 21.1031 110.952 21.143 110.912C21.2896 110.766 21.5895 110.252 21.6724 110.004C21.7192 109.865 21.8082 109.75 21.8701 109.75C21.9319 109.75 22.0237 109.587 22.0738 109.387C22.1239 109.187 22.229 109.024 22.3073 109.024C22.3857 109.024 22.4497 108.957 22.4497 108.874C22.4497 108.731 25.1631 104.237 25.3409 104.085C25.4504 103.991 25.7627 103.494 25.8881 103.213C25.9417 103.093 26.0274 102.963 26.0785 102.923C26.1296 102.883 26.4606 102.458 26.8141 101.978C27.1677 101.499 27.4957 101.074 27.5428 101.034C27.59 100.994 27.6883 100.852 27.7613 100.719C27.9174 100.433 29.698 98.4267 30.446 97.6935C31.2511 96.9044 32.0053 96.3308 32.4676 96.1561C32.5874 96.1108 32.7987 96.0132 32.9374 95.9391C33.0761 95.865 33.3852 95.8044 33.6243 95.8044C34.4093 95.8044 34.4169 96.8453 33.6378 97.6608C33.3991 97.9108 33.0219 98.2328 32.7995 98.3763C31.7891 99.0283 30.2149 100.605 28.9844 102.196C28.7065 102.556 28.3989 102.934 28.3006 103.037C28.2024 103.14 28.0077 103.417 27.8679 103.654C27.7282 103.891 27.5626 104.085 27.4999 104.085C27.4373 104.085 27.386 104.183 27.386 104.303C27.386 104.423 27.3283 104.521 27.2578 104.521C27.1873 104.521 27.0912 104.635 27.0443 104.775C26.957 105.035 26.6511 105.552 26.5077 105.683C26.3494 105.827 25.4986 107.288 25.4986 107.416C25.4986 107.488 25.4497 107.569 25.3897 107.595C25.3299 107.622 25.0522 108.101 24.7727 108.661C24.4932 109.22 24.2156 109.699 24.1556 109.726C24.0958 109.753 24.0467 109.848 24.0467 109.938C24.0467 110.028 23.7787 110.66 23.4513 111.343C23.1238 112.025 22.7573 112.812 22.6368 113.091C22.2582 113.97 22.2142 114.031 21.8193 114.225C21.3602 114.451 21.3574 114.474 21.7026 115.207C21.8506 115.522 22.0922 116.122 22.2395 116.542C22.3867 116.961 22.584 117.304 22.6779 117.304C22.7719 117.304 23.1345 116.732 23.484 116.033C23.8335 115.334 24.152 114.729 24.1919 114.689C24.2969 114.584 24.6127 114.072 24.7291 113.818C24.7841 113.698 24.9144 113.513 25.0186 113.408C25.1229 113.302 25.2082 113.123 25.2082 113.009C25.2082 112.894 25.2595 112.801 25.3221 112.801C25.3848 112.801 25.5587 112.593 25.7087 112.339C25.9523 111.926 26.2958 111.48 26.7375 111.002C26.82 110.913 27.0478 110.611 27.2436 110.331C27.6606 109.736 27.8959 109.44 28.433 108.834C28.6495 108.59 29.1379 107.928 29.5181 107.364C30.47 105.95 31.2423 105.219 31.7258 105.276C32.0833 105.317 32.1045 105.365 32.1026 106.12C32.1003 107.037 31.5922 108.22 30.874 108.98C30.6326 109.235 30.435 109.477 30.435 109.518C30.435 109.559 30.0919 109.94 29.6727 110.366C29.2534 110.792 28.7472 111.356 28.5475 111.62C28.3479 111.884 28.1028 112.187 28.0031 112.295C27.9032 112.402 27.8216 112.554 27.8216 112.633C27.8216 112.712 27.7701 112.798 27.707 112.825C27.5561 112.889 26.6601 114.362 26.6601 114.546C26.6601 114.625 26.5948 114.689 26.5149 114.689C26.4351 114.689 26.3697 114.783 26.3697 114.897C26.3697 115.011 26.2881 115.191 26.1882 115.297C25.9117 115.589 24.7727 117.926 24.7727 118.2C24.7727 118.333 24.7169 118.464 24.649 118.491C24.5809 118.517 24.3821 118.956 24.2073 119.465C23.9198 120.303 23.9108 120.415 24.1132 120.639C24.2364 120.775 24.3371 120.974 24.3371 121.081C24.3371 121.188 24.4415 121.392 24.5691 121.533C24.7884 121.775 24.8303 121.776 25.3314 121.544C25.623 121.409 25.8942 121.266 25.9342 121.226C25.9741 121.186 26.1984 121.056 26.4326 120.936C27.3881 120.447 30.435 117.245 30.435 116.729C30.435 116.646 30.4855 116.578 30.5472 116.578C30.6089 116.578 30.7879 116.333 30.945 116.033C31.1021 115.734 31.2711 115.456 31.3205 115.416C31.4611 115.302 32.3224 113.383 32.3224 113.183C32.3224 113.085 32.3786 112.942 32.4473 112.866C32.5159 112.79 32.6872 112.369 32.8278 111.929C32.9683 111.49 33.1363 111.024 33.2011 110.894C33.2658 110.764 33.3645 110.404 33.4204 110.095C33.4763 109.786 33.562 109.467 33.6109 109.387C33.7216 109.206 34.0391 108.125 34.2079 107.353C34.2779 107.034 34.4725 106.119 34.6404 105.32C34.8083 104.521 35.0099 103.573 35.0885 103.213C35.3748 101.904 35.8635 97.8708 36.092 94.9328C36.2946 92.3274 36.524 89.9563 36.6118 89.5579C36.6558 89.3581 36.7468 88.6717 36.8139 88.0325C36.9478 86.758 37.2194 84.9781 37.4015 84.1829C37.4655 83.9033 37.6235 83.2169 37.7525 82.6576C37.8816 82.0983 37.9866 81.4936 37.9858 81.3139C37.9853 81.1342 38.05 80.987 38.1299 80.987C38.2097 80.987 38.2751 80.8551 38.2751 80.694C38.2751 80.1177 39.4726 76.8171 40.2769 75.1762C40.7274 74.2574 41.1309 73.473 41.1737 73.433C41.2164 73.3931 41.5595 72.9028 41.9362 72.3435C42.3128 71.7842 42.7821 71.1417 42.9791 70.9158C43.1761 70.6898 43.554 70.2351 43.8189 69.9054C44.0837 69.5758 44.4147 69.1887 44.5544 69.0453C44.6941 68.9018 44.8085 68.7506 44.8085 68.7092C44.8085 68.6679 45.0217 68.4227 45.2824 68.1644C45.543 67.9062 46.0819 67.3029 46.4801 66.8239C46.8782 66.3448 47.3674 65.784 47.567 65.5777C48.0978 65.0295 49.3319 63.5878 49.586 63.2193C49.7068 63.0442 49.89 62.8146 49.9932 62.7088C50.3906 62.3018 51.4833 60.6804 51.8245 59.9913C52.5914 58.443 52.8091 57.8796 53.2835 56.2186C53.5968 55.1216 54.0775 52.3368 54.2488 50.6258C54.3089 50.0265 54.4361 48.7518 54.5315 47.793C54.6269 46.8343 54.7738 45.8092 54.858 45.5154C54.9678 45.1324 54.9644 44.7951 54.8462 44.3252C54.7554 43.9646 54.6812 43.3475 54.6812 42.9538C54.6812 42.5603 54.5771 41.6577 54.4497 40.9481C54.2899 40.0569 54.2172 38.7595 54.2145 36.7526C54.2099 33.181 54.3031 32.611 55.6515 27.9638C55.7791 27.5244 55.932 27.0341 55.9913 26.8743C56.0507 26.7145 56.2141 26.1915 56.3543 25.7121C56.4946 25.2327 56.6599 24.7098 56.7218 24.55C56.7836 24.3902 56.9468 23.8999 57.0843 23.4605C57.2218 23.021 57.3847 22.5307 57.4465 22.3709C57.7424 21.6057 58.0279 20.5141 57.9519 20.4381C57.8693 20.3555 54.9704 19.9801 54.536 19.9958C54.4162 20.0002 54.1222 20.0517 53.8826 20.1103ZM68.5763 25.1173C68.0581 25.6826 67.9781 25.8205 67.7239 26.5837C67.3637 27.6653 67.269 28.8354 67.5415 28.8354C67.6601 28.8354 67.7947 28.7374 67.8406 28.6175C67.8866 28.4977 68.0012 28.3996 68.0951 28.3996C68.2757 28.3996 69.5171 27.1632 70.0475 26.4552C70.4588 25.9061 70.4434 25.616 69.9786 25.1508C69.5021 24.6742 68.9933 24.662 68.5763 25.1173ZM138.381 38.859C138.222 38.9277 137.938 38.9884 137.75 38.9941C137.563 38.9996 136.875 39.2654 136.222 39.5847C134.996 40.1841 133.566 41.4154 132.507 42.785C132.23 43.1425 131.953 43.4567 131.89 43.4833C131.827 43.5101 131.775 43.5945 131.775 43.6712C131.775 43.7477 131.71 43.8894 131.63 43.9858C131.549 44.0823 130.919 44.9458 130.228 45.9045C128.991 47.6204 127.231 49.4822 125.903 50.4805C125.53 50.7602 125.115 51.072 124.98 51.1737C123.903 51.9827 122.899 52.6595 122.776 52.6595C122.695 52.6595 122.628 52.7085 122.626 52.7685C122.625 52.8285 122.234 53.1062 121.758 53.3859C121.281 53.6655 120.89 53.9433 120.889 54.0033C120.887 54.0633 120.822 54.1122 120.744 54.1122C120.548 54.1122 118.648 55.2803 118.588 55.4378C118.561 55.5077 118.451 55.5649 118.344 55.5649C118.236 55.5649 118.061 55.6467 117.954 55.7465C117.75 55.937 117.611 56.0166 115.732 57.0215C115.093 57.3631 114.342 57.7814 114.063 57.9513C113.783 58.1209 113.162 58.4542 112.683 58.6918C112.204 58.9295 111.79 59.173 111.764 59.233C111.737 59.293 111.644 59.3419 111.557 59.3419C111.361 59.3419 108.056 61.3872 107.989 61.5496C107.962 61.6138 107.876 61.6662 107.798 61.6662C107.654 61.6662 106.71 62.3172 106.44 62.6022C106.36 62.6866 105.969 63.0172 105.571 63.3368C104.63 64.0921 102.773 65.9493 102.226 66.6832C101.989 66.9999 101.759 67.2918 101.713 67.3317C101.667 67.3717 101.41 67.7312 101.141 68.1307C100.872 68.5302 100.615 68.8897 100.57 68.9297C100.525 68.9696 100.259 69.4599 99.9795 70.0192C99.7 70.5785 99.4224 71.0579 99.3624 71.0844C99.3025 71.1112 99.2535 71.2238 99.2535 71.3347C99.2535 71.4457 99.0989 71.8815 98.91 72.3033C98.4131 73.4124 98.1386 74.1259 97.8608 75.031C97.7259 75.4704 97.5595 75.9434 97.4908 76.0821C97.4223 76.2209 97.3661 76.4946 97.3661 76.6901C97.3661 76.8858 97.2951 77.2299 97.2084 77.4548C97.1218 77.6797 96.9979 78.1579 96.9333 78.5174C96.8687 78.877 96.707 79.7595 96.5737 80.4786C96.4405 81.1976 96.2698 82.2436 96.1943 82.8029C95.8922 85.0409 95.2365 88.8257 94.8985 90.2842C94.8338 90.5639 94.6703 91.3156 94.5354 91.9548C94.4004 92.594 94.2389 93.2175 94.1764 93.3404C94.1139 93.4634 94.0162 93.839 93.9596 94.175C93.9028 94.5111 93.7967 94.8229 93.7238 94.868C93.6509 94.9131 93.5913 95.1057 93.5913 95.296C93.5913 95.4863 93.531 95.6794 93.4573 95.7248C93.3835 95.7705 93.281 96.0004 93.2293 96.2359C93.0754 96.9368 92.0026 99.1456 91.8161 99.1456C91.7543 99.1456 91.7038 99.2116 91.7038 99.2922C91.7038 99.5922 89.2773 102.131 88.0919 103.072C87.7421 103.349 87.3501 103.68 87.2207 103.807C87.0912 103.935 86.5932 104.324 86.1141 104.673C85.635 105.021 85.0804 105.457 84.8815 105.64C84.6827 105.823 84.4703 105.973 84.4096 105.973C84.349 105.973 84.1762 106.088 84.0256 106.227C83.8751 106.367 83.4279 106.743 83.032 107.063C82.6359 107.382 82.0898 107.938 81.8183 108.298C81.5468 108.657 81.2913 108.984 81.2505 109.024C81.0279 109.242 80.8148 110.253 80.8148 111.09C80.8148 111.996 81.3476 114.023 81.6432 114.241C81.7697 114.335 82.0665 114.785 82.223 115.121C82.4037 115.51 83.4029 116.369 84.038 116.682C84.3813 116.851 85.0869 117.031 85.606 117.083C86.5998 117.181 89.295 116.988 90.3987 116.739C93.3954 116.065 94.4529 115.799 94.8473 115.622C95.0989 115.508 95.3731 115.416 95.4566 115.416C95.5401 115.416 95.9157 115.252 96.2912 115.053C96.6666 114.853 97.0621 114.689 97.17 114.689C97.2778 114.689 97.3661 114.638 97.3661 114.576C97.3661 114.514 97.5457 114.387 97.7654 114.295C97.985 114.203 98.622 113.875 99.1809 113.565C100.056 113.08 100.579 112.778 101.888 112.002C102.023 111.922 102.71 111.555 103.416 111.187C104.121 110.819 104.927 110.381 105.206 110.214C105.486 110.047 105.878 109.822 106.077 109.712C108.152 108.576 109.309 107.867 109.392 107.68C109.419 107.62 109.497 107.571 109.565 107.571C109.784 107.571 114.307 104.406 114.908 103.832C115.013 103.731 115.145 103.649 115.2 103.649C115.255 103.649 115.462 103.502 115.661 103.322C115.86 103.142 116.415 102.705 116.894 102.351C117.373 101.997 117.798 101.67 117.837 101.625C117.877 101.58 118.204 101.316 118.563 101.039C118.923 100.763 119.239 100.485 119.265 100.422C119.292 100.359 119.382 100.308 119.466 100.308C119.55 100.308 119.757 100.159 119.926 99.9783C120.095 99.7972 120.543 99.4264 120.923 99.1546C121.302 98.883 121.612 98.6062 121.612 98.5399C121.612 98.4736 121.682 98.4193 121.768 98.4193C121.853 98.4193 122.009 98.3342 122.112 98.2301C122.216 98.126 122.577 97.8155 122.913 97.5401C123.25 97.2645 123.739 96.8431 124.002 96.6034C124.264 96.3637 124.954 95.7427 125.536 95.2234C126.599 94.2755 127.112 93.756 128.67 92.0521C129.698 90.9282 129.877 90.7228 130.492 89.9569C130.759 89.625 131.075 89.25 131.195 89.124C131.314 88.9979 131.703 88.5045 132.057 88.0277C132.412 87.551 132.755 87.1391 132.819 87.1126C132.884 87.0858 132.937 86.9769 132.937 86.8704C132.937 86.7639 132.991 86.655 133.058 86.6282C133.197 86.5727 134.824 84.388 134.824 84.2571C134.824 84.2096 134.89 84.0917 134.97 83.9952C135.372 83.5092 136.552 81.806 137.202 80.7723C137.605 80.1314 137.975 79.5743 138.024 79.5343C138.072 79.4944 138.156 79.3636 138.21 79.2438C138.31 79.0186 138.584 78.5754 138.789 78.3075C138.853 78.2233 139.306 77.5332 139.796 76.7742C140.286 76.0152 140.74 75.3724 140.804 75.3458C140.869 75.319 140.922 75.2101 140.922 75.1036C140.922 74.9971 140.975 74.8882 141.039 74.8614C141.216 74.7881 143.524 71.0059 144.127 69.8013C144.808 68.4392 145.661 66.3557 145.852 65.5885C146.793 61.7949 146.95 60.992 147.458 57.3808C147.718 55.5283 147.804 50.4647 147.603 48.8825C147.333 46.7689 147.216 46.1188 146.953 45.2508C146.819 44.8114 146.676 44.3211 146.634 44.1613C146.5 43.6481 145.677 41.9984 145.294 41.4738C144.358 40.1928 142.942 39.2681 141.319 38.8795C140.521 38.688 138.807 38.6761 138.381 38.859ZM17.3596 42.9358C16.9798 43.3426 15.6259 45.4452 15.6259 45.6281C15.6259 45.702 15.1307 46.8183 14.6333 47.8657C14.5004 48.1453 14.3427 48.3959 14.2829 48.4225C14.2231 48.4492 14.174 48.5853 14.174 48.7252C14.174 48.865 14.1274 49.0259 14.0705 49.0829C13.8202 49.3335 13.4484 50.6107 13.4482 51.2207C13.4481 51.9345 13.7492 52.369 14.2443 52.369C14.6571 52.369 15.5286 51.3372 15.7859 50.544C15.9138 50.1496 16.1422 49.4346 16.2935 48.9552C16.4446 48.4758 16.6013 48.0509 16.6416 48.0109C16.6818 47.971 16.9004 47.5788 17.1273 47.1393C17.3541 46.6999 17.7874 45.8779 18.0902 45.3127C18.6526 44.2628 18.9125 43.2805 18.7097 42.972C18.6474 42.877 18.412 42.7294 18.187 42.6437C17.8198 42.5041 17.7344 42.5341 17.3596 42.9358ZM138.164 42.636C138.164 42.7159 138.094 42.7812 138.009 42.7812C137.781 42.7812 136.891 43.4813 136.105 44.2796C135.726 44.6641 134.907 45.7427 134.285 46.6765C133.663 47.6101 133.106 48.3959 133.046 48.4225C132.986 48.4492 132.937 48.5314 132.937 48.6054C132.937 48.6793 132.757 48.9844 132.538 49.2833C131.814 50.2688 131.698 50.3926 130.206 51.7904C129.991 51.9915 129.521 52.3832 129.162 52.6609C128.803 52.9386 128.487 53.2153 128.46 53.2759C128.434 53.3364 128.357 53.3859 128.29 53.3859C128.179 53.3859 125.845 54.9365 125.678 55.1214C125.638 55.1656 125.474 55.2811 125.315 55.3778C125.155 55.4747 124.404 55.951 123.645 56.4365C122.886 56.922 122.135 57.3984 121.975 57.4953C121.816 57.592 121.652 57.704 121.612 57.744C121.466 57.8907 120.952 58.1907 120.705 58.2736C120.565 58.3205 120.451 58.4167 120.451 58.4873C120.451 58.5578 120.357 58.6156 120.243 58.6156C120.129 58.6156 119.95 58.6975 119.844 58.7975C119.739 58.8975 119.407 59.1086 119.108 59.2664C118.808 59.4241 118.563 59.6037 118.563 59.6654C118.563 59.7272 118.47 59.7777 118.356 59.7777C118.242 59.7777 118.062 59.8597 117.957 59.9596C117.851 60.0597 117.52 60.2708 117.22 60.4285C116.921 60.5863 116.676 60.7658 116.676 60.8276C116.676 60.8893 116.601 60.9399 116.51 60.9399C116.314 60.9399 113.722 62.5492 113.651 62.7146C113.625 62.7772 113.532 62.8284 113.446 62.8284C113.305 62.8284 111.917 63.6518 111.74 63.8405C111.7 63.883 111.438 64.0437 111.159 64.1975C110.879 64.3512 110.618 64.5168 110.578 64.5655C110.538 64.614 110.146 64.8793 109.707 65.1549C109.268 65.4304 108.887 65.706 108.86 65.7675C108.833 65.8288 108.725 65.879 108.618 65.879C108.512 65.879 108.403 65.9303 108.376 65.9929C108.35 66.0555 107.903 66.4308 107.384 66.8268C105.082 68.5836 103.73 70.1831 102.66 72.4161C102.046 73.698 101.141 76.4537 101.141 77.0431C101.141 77.217 101.083 77.4728 101.011 77.6115C100.883 77.8607 100.625 79.0671 100.397 80.4786C100.332 80.8781 100.184 81.7606 100.068 82.4397C99.9525 83.1188 99.7862 84.1321 99.6991 84.6914C99.6119 85.2506 99.5017 85.8063 99.4542 85.9261C99.4067 86.046 99.3112 86.569 99.2419 87.0883C99.1323 87.9107 98.8171 89.4812 98.2362 92.1001C98.1477 92.4996 98.0228 92.9572 97.9588 93.117C97.8947 93.2768 97.7268 93.7997 97.5855 94.2791C97.021 96.1941 96.0814 98.6455 95.525 99.6541C95.3487 99.9737 95.0587 100.513 94.8804 100.853C94.7019 101.192 94.5023 101.47 94.4367 101.47C94.3709 101.47 94.3172 101.568 94.3172 101.688C94.3172 101.808 94.2562 101.906 94.1817 101.906C94.1073 101.906 94.0017 102.047 93.9471 102.219C93.8524 102.517 90.7807 105.685 90.1589 106.126C89.7755 106.398 88.5509 107.415 88.1565 107.789C87.9881 107.949 87.4924 108.383 87.0548 108.753C85.7078 109.893 84.5897 111.04 84.5897 111.281C84.5897 111.408 84.7501 111.851 84.9461 112.265C85.4077 113.241 86.0886 113.659 86.7434 113.369C87.243 113.148 87.929 112.172 87.929 111.682C87.929 111.499 87.987 111.348 88.058 111.348C88.1289 111.348 88.2308 111.115 88.2842 110.83C88.3796 110.321 88.9826 109.111 89.2982 108.795C89.5803 108.513 90.2508 108.462 90.4933 108.705C90.6637 108.876 90.7038 109.154 90.6589 109.858C90.6265 110.369 90.538 110.832 90.4622 110.886C90.279 111.018 89.8164 112.029 89.8164 112.297C89.8164 112.828 90.7141 112.311 91.032 111.597C91.1466 111.34 91.3515 110.607 91.4872 109.968C91.8011 108.492 92.07 107.767 92.5279 107.164C92.8405 106.752 92.9677 106.69 93.4233 106.728L93.9542 106.772L93.9975 107.767C94.0227 108.347 93.9536 109.043 93.832 109.438C93.1898 111.516 93.1245 111.811 93.274 111.961C93.4935 112.18 94.1825 111.375 94.509 110.517C94.6545 110.136 94.8341 109.709 94.9082 109.571C94.9824 109.432 95.0431 109.257 95.0431 109.181C95.0431 109.106 95.2445 108.598 95.4906 108.054C95.7367 107.509 96.0684 106.775 96.2278 106.423C96.5936 105.615 96.7835 104.466 96.7845 103.053C96.7855 101.749 96.9693 101.129 97.4162 100.926C97.8584 100.724 98.4328 101.035 98.6686 101.605C98.9671 102.326 98.7926 105.105 98.3712 106.336C98.1799 106.896 97.9898 107.386 97.9489 107.426C97.9078 107.466 97.7681 107.727 97.6385 108.007C97.5087 108.287 97.2311 108.865 97.0214 109.292C96.6493 110.049 96.5303 110.554 96.7491 110.448C96.809 110.419 97.054 110.3 97.2935 110.184C97.5331 110.069 97.7617 109.933 97.8017 109.884C97.9646 109.682 99.1171 109.024 99.3089 109.024C99.442 109.024 99.5677 108.754 99.6635 108.261C99.7451 107.842 99.9172 107.074 100.046 106.554C100.175 106.035 100.315 105.447 100.358 105.247C100.402 105.047 100.494 104.753 100.563 104.593C100.98 103.629 101.405 100.838 101.495 98.4698C101.578 96.2892 101.672 95.8383 102.211 95.0418C102.552 94.5378 102.752 94.5386 103.126 95.045C103.725 95.856 103.811 98.2216 103.321 100.396C103.247 100.724 103.141 101.428 103.087 101.961C103.032 102.495 102.931 102.965 102.863 103.008C102.794 103.05 102.738 103.266 102.738 103.486C102.738 103.707 102.648 104.177 102.537 104.531C102.246 105.465 101.968 107.101 102.06 107.342C102.141 107.553 102.738 107.498 102.738 107.28C102.738 107.218 102.901 107.126 103.101 107.076C103.301 107.026 103.464 106.92 103.464 106.842C103.464 106.764 103.546 106.697 103.645 106.694C103.903 106.687 104.559 106.1 104.695 105.755C104.808 105.468 104.87 105.201 105.25 103.358C105.358 102.839 105.484 102.316 105.53 102.196C105.993 101.003 106.137 96.5799 105.805 93.7177C105.589 91.8508 105.638 89.233 105.899 88.7465C106.114 88.3456 106.801 88.4381 107.264 88.9303C107.59 89.2772 107.606 89.4081 107.709 92.5835C107.768 94.395 107.856 96.5635 107.904 97.4024C107.952 98.2454 107.924 99.35 107.84 99.872C107.756 100.391 107.624 101.405 107.546 102.124C107.468 102.843 107.359 103.643 107.305 103.903C107.25 104.163 107.239 104.375 107.278 104.375C107.379 104.375 107.93 104.074 108.618 103.642C108.938 103.441 109.33 103.207 109.489 103.121C109.665 103.026 109.82 102.741 109.883 102.399C109.939 102.088 110.089 101.31 110.214 100.671C110.451 99.4667 110.575 98.4114 110.872 95.0781C111.131 92.1739 110.941 89.2621 110.294 86.2167C110.084 85.2286 110.116 84.2104 110.374 83.6668C110.714 82.9487 110.914 82.8279 111.263 83.13C111.588 83.413 112.175 84.4399 112.175 84.7275C112.175 84.8297 112.238 85.0268 112.315 85.1655C112.766 85.9779 113.088 94.1131 112.758 96.3855C112.683 96.9049 112.576 98.1452 112.521 99.1416L112.42 100.953L112.914 100.556C113.619 99.9892 113.64 99.9753 114.262 99.6541C115.002 99.2713 115.991 98.3276 116.315 97.6944C116.698 96.9464 116.881 95.1882 116.882 92.2454C116.884 88.8639 116.719 86.5007 116.355 84.6914C115.701 81.4434 115.631 81.0059 115.557 79.7153C115.473 78.2452 115.582 77.9363 116.186 77.9363C116.926 77.9363 117.517 79.0498 117.842 81.0596C117.906 81.4591 118.068 82.4397 118.2 83.2387C118.521 85.1723 118.686 88.1746 118.699 92.2731C118.704 94.1533 118.768 95.6785 118.842 95.7245C118.915 95.77 119.074 95.7084 119.195 95.5878C119.315 95.4673 119.478 95.3686 119.557 95.3686C119.636 95.3686 119.722 95.3197 119.749 95.2597C119.776 95.1997 120.071 94.9729 120.405 94.7556C121.62 93.9649 122.131 92.9367 122.481 90.574C122.652 89.4232 122.624 87.0298 122.411 84.6187C122.313 83.5052 121.885 80.5242 121.786 80.2607C121.741 80.1408 121.621 79.6178 121.521 79.0985C121.328 78.106 121.183 77.4041 120.878 75.9909C120.706 75.1963 120.713 75.1202 120.971 74.9274C121.351 74.6435 122.137 74.7872 122.486 75.2044C123.056 75.8846 123.504 77.3309 123.804 79.4617C123.882 80.021 124.02 80.8221 124.11 81.242C124.222 81.771 124.243 83.3653 124.175 86.4353C124.111 89.3727 124.128 90.8653 124.225 90.8653C124.305 90.8653 125.243 89.9908 126.311 88.9219L128.251 86.9785L128.446 85.9076C128.741 84.2916 128.709 79.6847 128.391 77.7911C128.249 76.9522 128.08 75.9389 128.014 75.5394C127.88 74.7211 127.619 73.467 127.427 72.7067C126.737 69.9883 126.712 69.277 127.282 68.6646C127.656 68.2635 127.9 68.2659 128.324 68.6755C128.953 69.283 129.093 69.7497 129.878 73.8688C130.185 75.4777 130.614 79.4114 130.615 80.6337C130.617 81.8364 130.763 83.166 130.893 83.166C130.945 83.166 131.11 82.9582 131.26 82.7042C131.41 82.4501 131.648 82.107 131.79 81.9416C131.932 81.7761 132.217 81.4446 132.423 81.2049C133.845 79.5488 134.13 78.6492 134.125 75.8299C134.121 73.4709 133.972 72.3528 133.301 69.656C133.172 69.1367 133.01 68.4503 132.94 68.1307C132.87 67.8111 132.765 67.4189 132.708 67.2591C132.533 66.7702 132.064 65.6757 131.916 65.4089C131.838 65.2702 131.775 65.0632 131.775 64.9489C131.775 64.8345 131.697 64.7151 131.602 64.6833C131.489 64.6455 131.426 64.2339 131.421 63.4909C131.413 62.4197 131.435 62.3397 131.81 62.057L132.207 61.7575L132.572 62.1003C132.773 62.2888 132.937 62.5299 132.937 62.6357C132.937 62.7416 132.99 62.8284 133.054 62.8284C133.167 62.8284 133.663 63.8265 133.663 64.0537C133.663 64.1146 133.752 64.3706 133.862 64.6223C133.971 64.8741 134.141 65.3742 134.24 65.7338C134.338 66.0933 134.502 66.6489 134.603 66.9685C134.705 67.2881 134.9 68.0726 135.038 68.7118C135.175 69.351 135.346 70.1027 135.417 70.3824C135.583 71.0348 135.855 74.4547 135.754 74.6186C135.711 74.687 135.719 74.8757 135.77 75.0378C135.857 75.3105 135.904 75.2912 136.405 74.7823C136.896 74.2824 137.873 72.8361 137.873 72.6092C137.873 72.5581 138.024 72.3139 138.209 72.0666C138.802 71.2716 138.939 70.7457 138.829 69.6857C138.773 69.15 138.667 68.1234 138.595 67.4044C138.447 65.9326 138.146 64.3592 137.982 64.1959C137.922 64.1362 137.873 63.9512 137.872 63.7847C137.872 63.6182 137.774 63.2948 137.655 63.066C137.535 62.8371 137.438 62.532 137.438 62.3881C137.438 62.2441 137.389 62.1045 137.329 62.0778C137.269 62.0512 137.089 61.7679 136.93 61.4483C136.584 60.7557 135.812 59.5796 135.659 59.5114C135.599 59.4847 135.55 59.3704 135.55 59.2572C135.55 59.1439 135.496 59.0514 135.429 59.0514C135.228 59.0514 134.534 57.5034 134.534 57.0558C134.534 56.5067 134.774 56.2913 135.384 56.2913C136.01 56.2913 136.738 57.0077 137.389 58.2639C138.05 59.5406 138.373 60.132 138.454 60.2134C138.711 60.4705 139.627 62.6597 139.883 63.6274C139.968 63.9469 140.134 64.568 140.253 65.0074C140.372 65.4468 140.505 66.1216 140.549 66.5069C140.593 66.8923 140.683 67.3032 140.748 67.4203C140.873 67.643 140.954 67.5197 141.472 66.3148C141.592 66.0352 141.747 65.6929 141.815 65.5542C141.883 65.4155 141.938 65.2292 141.938 65.1403C141.938 65.0514 142.031 64.7727 142.143 64.5209C142.256 64.2691 142.381 63.8997 142.423 63.7C142.464 63.5002 142.574 63.0663 142.667 62.7358C142.823 62.1825 142.801 62.0577 142.388 61.164C142.141 60.6302 141.938 60.1325 141.938 60.0581C141.938 59.9839 141.873 59.923 141.793 59.923C141.713 59.923 141.648 59.8586 141.648 59.7799C141.648 59.5956 140.752 58.1224 140.601 58.0588C140.538 58.032 140.487 57.9577 140.487 57.8933C140.487 57.8288 139.964 56.9119 139.325 55.8555C138.686 54.7991 138.164 53.8112 138.164 53.6603C138.164 53.5094 138.098 53.3859 138.018 53.3859C137.939 53.3859 137.873 53.0605 137.873 52.6629C137.873 52.0581 137.931 51.9023 138.225 51.7092C138.547 51.4981 138.616 51.4986 139.035 51.7153C139.473 51.9419 140.922 53.9684 140.922 54.3544C140.922 54.4475 140.972 54.5456 141.032 54.5723C141.092 54.5989 141.385 55.111 141.684 55.7102C142.301 56.9495 142.815 57.8786 143.027 58.1379C143.466 58.6722 143.559 58.7608 143.686 58.7608C143.772 58.7608 143.825 57.3683 143.824 55.1654L143.823 51.57L143.207 51.0192C142.869 50.7163 142.192 50.1834 141.704 49.8354C141.123 49.4215 140.782 49.066 140.717 48.8092C140.585 48.2822 140.956 47.7204 141.436 47.7204C141.796 47.7204 141.89 47.7551 142.759 48.2081C143.011 48.3394 143.354 48.4467 143.522 48.4467C143.839 48.4467 143.931 48.2381 143.681 48.0836C143.601 48.0342 143.536 47.8221 143.536 47.6122C143.536 47.1719 143.153 45.495 142.93 44.9603C142.398 43.6821 141.753 42.7812 141.369 42.7812C141.283 42.7812 141.213 42.7159 141.213 42.636C141.213 42.5484 140.608 42.4907 139.688 42.4907C138.769 42.4907 138.164 42.5484 138.164 42.636ZM151.085 46.7035C151.085 46.7834 150.978 46.8488 150.848 46.8488C150.636 46.8488 150.621 47.0217 150.707 48.4104C150.761 49.2694 150.863 50.2989 150.935 50.6984C151.142 51.8571 151.236 56.6457 151.088 58.4703C150.948 60.1904 150.66 61.8509 150.468 62.0419C150.408 62.1016 150.359 62.3008 150.359 62.4844C150.359 62.668 150.271 63.0983 150.164 63.4407C150.056 63.7831 149.789 64.6515 149.57 65.3706C149.351 66.0897 149.12 66.7782 149.058 66.9007C148.995 67.0232 148.896 67.35 148.836 67.627C148.777 67.9041 148.688 68.1961 148.64 68.276C148.474 68.5476 148.046 69.8729 148.041 70.1281C148.038 70.2679 147.976 70.3824 147.903 70.3824C147.829 70.3824 147.727 70.5757 147.675 70.8122C147.592 71.1885 147.097 72.3567 146.749 72.9972C145.665 74.992 145.322 75.5579 144.954 75.9645C144.814 76.1185 144.662 76.3635 144.616 76.5092C144.57 76.6549 144.471 76.7742 144.397 76.7742C144.322 76.7742 144.261 76.8723 144.261 76.9921C144.261 77.1119 144.201 77.21 144.126 77.21C144.052 77.21 143.945 77.3572 143.889 77.5369C143.833 77.7166 143.734 77.8976 143.671 77.9391C143.443 78.087 143.358 79.4485 143.561 79.7069C144.085 80.3748 145.522 79.2616 146.43 77.4853C146.761 76.8356 147.193 76.0678 147.389 75.7791C147.586 75.4903 147.746 75.1767 147.746 75.082C147.746 74.9874 147.795 74.8882 147.856 74.8614C147.985 74.8044 149.024 72.7139 149.203 72.1513C149.271 71.9375 149.53 71.2068 149.78 70.5276C150.03 69.8485 150.267 69.1621 150.309 69.0023C150.35 68.8425 150.438 68.581 150.504 68.4212C150.756 67.8144 151.785 64.4746 152.384 62.3199C152.923 60.3793 153.105 58.8954 153.21 55.5649C153.296 52.8464 153.127 50.168 152.835 49.6041C152.771 49.4816 152.671 49.1596 152.611 48.8885C152.477 48.2758 151.861 47.1512 151.476 46.8125C151.142 46.5192 151.085 46.5035 151.085 46.7035ZM156.638 56.4729C156.558 56.5728 156.448 56.8179 156.393 57.0176C156.339 57.2174 156.238 57.5115 156.17 57.6713C155.977 58.1235 155.722 59.3136 155.579 60.4307C155.377 62.0019 155.166 62.9561 154.78 64.0515C154.34 65.2966 154.32 66.0156 154.717 66.3552C155.452 66.9848 156.165 66.3019 156.837 64.3264C157.455 62.5066 158.182 57.5144 157.959 56.6181C157.892 56.3514 157.777 56.2913 157.33 56.2913C157.029 56.2913 156.718 56.3731 156.638 56.4729ZM51.6322 66.8616C51.6322 66.9898 51.2896 67.3677 48.8285 69.9538C48.2545 70.5571 47.4581 71.4332 47.0589 71.9007C46.6596 72.3682 46.2513 72.8342 46.1514 72.9362C46.0517 73.0383 45.97 73.1863 45.97 73.2652C45.97 73.3443 45.9204 73.4305 45.8601 73.4573C45.6722 73.5399 44.8085 74.7006 44.8085 74.8703C44.8085 74.9586 44.7536 75.031 44.6864 75.031C44.5571 75.031 43.647 76.8091 43.647 77.0617C43.647 77.1433 43.5892 77.21 43.5188 77.21C43.4482 77.21 43.3551 77.3245 43.312 77.4642C43.2689 77.604 43.0275 78.2741 42.7754 78.9532C42.3009 80.2316 41.8456 81.6632 41.7128 82.2944C41.6708 82.4942 41.5288 83.1152 41.3974 83.6745C41.2659 84.2338 41.0985 85.0509 41.0255 85.4903C40.6657 87.6528 40.4383 89.1491 40.3191 90.1389C40.247 90.7382 40.1494 91.3919 40.1025 91.5916C40.0555 91.7914 39.9534 92.7066 39.8756 93.6254C39.7978 94.5442 39.6292 96.3746 39.501 97.6929C39.373 99.0113 39.2141 100.678 39.1482 101.397C39.0159 102.839 38.6785 105.163 38.3569 106.845C38.1348 108.006 38.0004 108.581 37.6261 109.968C37.4967 110.448 37.3293 111.069 37.2541 111.348C37.1787 111.628 36.9149 112.412 36.6677 113.091C36.4206 113.771 36.1835 114.473 36.1408 114.653C36.0983 114.833 36.0128 114.98 35.9509 114.98C35.8891 114.98 35.7934 115.159 35.7385 115.378C35.6836 115.597 35.5874 115.809 35.5245 115.85C35.4618 115.891 35.361 116.088 35.3005 116.287L35.1906 116.651L35.5111 116.287C35.9264 115.817 36.2064 115.447 37.2164 114.036C37.6737 113.397 38.0991 112.852 38.1615 112.825C38.2239 112.798 38.2751 112.689 38.2751 112.581C38.2751 112.474 38.3568 112.298 38.4565 112.192C38.7591 111.868 39.5806 110.044 40.0288 108.701C40.1962 108.2 40.4157 107.593 40.5164 107.353C40.7625 106.768 40.9495 106.216 41.2546 105.174C41.395 104.695 41.5573 104.172 41.6152 104.012C41.7171 103.731 41.9576 102.813 42.205 101.76C42.2706 101.481 42.428 100.827 42.5544 100.308C42.6809 99.7884 42.8241 99.1021 42.8724 98.7825C42.9207 98.4629 43.0086 98.136 43.0675 98.0561C43.1265 97.9762 43.2201 97.584 43.2756 97.1845C43.3309 96.785 43.4333 96.2294 43.5028 95.9497C43.6622 95.3095 44.0088 93.4291 44.2123 92.1001C44.298 91.5408 44.4408 90.6256 44.5297 90.0663C44.6187 89.507 44.7468 88.5592 44.8143 87.9599C44.984 86.4536 45.232 85.0377 45.3864 84.6914C45.4577 84.5316 45.562 84.2374 45.6179 84.0377C45.6738 83.8379 45.8782 83.3476 46.072 82.9481C46.7831 81.4827 47.0676 81.082 48.9727 78.8619C49.3068 78.4727 49.7291 77.9581 49.9115 77.7184C50.0938 77.4788 50.2813 77.25 50.3282 77.21C50.3751 77.1701 50.5971 76.8927 50.8215 76.5938C51.2231 76.0586 51.2327 75.998 51.4344 72.7441C51.547 70.9258 51.7014 69.0459 51.7774 68.5665C52.001 67.1578 52.0071 66.8526 51.8137 66.7875C51.714 66.754 51.6322 66.7872 51.6322 66.8616ZM6.41989 80.5961C6.0289 80.8821 5.92553 81.7408 5.82216 85.563C5.73258 88.8723 5.86049 92.3322 6.19282 95.5865C6.31347 96.7673 6.41089 97.447 6.91149 100.598C6.99396 101.118 7.09922 101.641 7.14539 101.76C7.19141 101.88 7.28521 102.273 7.35359 102.632C7.52259 103.519 8.47066 107.303 8.70049 108.007C8.73954 108.127 8.99014 108.911 9.25728 109.75C9.52442 110.589 9.79258 111.297 9.85327 111.324C9.91396 111.351 9.96361 111.472 9.96361 111.593C9.96361 111.714 10.0539 112.019 10.1644 112.271C10.2747 112.522 10.448 112.957 10.5492 113.237C11.1459 114.886 11.5441 115.416 12.187 115.416C12.7362 115.416 13.0021 115.063 13.0077 114.326C13.012 113.788 12.6282 112.513 12.3901 112.275C12.3332 112.218 12.2866 112.052 12.2866 111.905C12.2866 111.759 12.2213 111.639 12.1414 111.639C12.0616 111.639 11.9962 111.534 11.9962 111.406C11.9962 111.279 11.8982 110.952 11.7784 110.68C11.6587 110.408 11.4627 109.964 11.3429 109.692C11.2231 109.42 11.1251 109.104 11.1251 108.99C11.1251 108.875 11.0829 108.739 11.0312 108.688C10.8915 108.548 10.4093 107.102 10.404 106.807C10.4014 106.666 10.3376 106.437 10.2626 106.298C10.1873 106.159 10.0204 105.654 9.8916 105.174C9.76267 104.695 9.596 104.103 9.52108 103.859C9.2387 102.94 8.69918 100.231 8.50986 98.7825C8.42637 98.1433 8.2854 97.0647 8.1964 96.3855C8.09694 95.6255 8.04221 92.8333 8.05426 89.1221C8.06631 85.3964 8.0155 82.8159 7.92141 82.3671C7.83764 81.9676 7.73862 81.492 7.70117 81.3102C7.62204 80.9251 7.14466 80.4059 6.86983 80.4059C6.76529 80.4059 6.5629 80.4915 6.41989 80.5961ZM50.854 82.3839C50.4324 82.8363 49.3093 85.0371 49.3093 85.4112C49.3093 85.5367 49.2493 85.7531 49.1761 85.8919C49.0414 86.1471 48.6494 88.128 48.5225 89.1947C48.3088 90.9923 47.5371 95.6125 47.2729 96.6761C47.2035 96.9557 47.0401 97.7075 46.91 98.3466C46.7798 98.9858 46.5773 99.8683 46.46 100.308C46.3425 100.747 46.1789 101.368 46.0961 101.688C45.8535 102.626 45.5023 103.844 45.3843 104.157C45.324 104.317 45.1637 104.775 45.0278 105.174C44.8921 105.574 44.6957 106.097 44.5914 106.336C44.4872 106.576 44.3005 107.066 44.1768 107.426C43.8173 108.47 43.2217 110.088 43.0806 110.404C42.6353 111.4 42.4855 111.768 42.4855 111.866C42.4855 112.009 41.0425 114.976 40.8716 115.186C40.8007 115.272 40.4386 115.768 40.0668 116.287C39.695 116.807 39.3358 117.253 39.2684 117.28C39.2012 117.307 39.1462 117.416 39.1462 117.522C39.1462 117.629 39.0972 117.738 39.0373 117.764C38.915 117.819 37.9847 119.158 37.9847 119.279C37.9847 119.322 37.834 119.566 37.6497 119.82C37.4656 120.074 37.1879 120.544 37.0327 120.863C36.8775 121.183 36.7017 121.466 36.6417 121.493C36.5817 121.52 36.5328 121.599 36.5328 121.669C36.5328 121.739 36.3107 122.273 36.0392 122.855C35.1969 124.662 34.9353 125.321 35.0121 125.445C35.1277 125.633 36.445 125.858 38.3476 126.015C39.3059 126.094 40.2532 126.177 40.4529 126.199L40.8158 126.238L40.7432 124.786C40.7033 123.987 40.6731 122.483 40.6763 121.444C40.6811 119.813 40.7222 119.487 40.978 119.047C41.3124 118.474 41.9057 118.301 42.2751 118.671C42.3982 118.794 42.5992 119.232 42.7215 119.645C42.9582 120.442 42.9509 120.801 42.6291 124.181C42.4649 125.904 42.4669 126.21 42.643 126.322C42.756 126.393 43.4549 126.453 44.1959 126.454C45.3441 126.456 45.5589 126.419 45.6478 126.202C45.8044 125.821 45.753 122.903 45.5679 121.662C45.3115 119.944 45.0776 118.841 44.9375 118.692C44.8665 118.616 44.807 118.42 44.8053 118.256C44.8035 118.092 44.5637 117.304 44.2723 116.505C43.4333 114.205 43.4826 112.801 44.4024 112.801C45.1131 112.801 46.247 114.909 46.7071 117.086C46.7746 117.406 46.9057 118.027 46.9983 118.466C47.0909 118.906 47.2206 119.396 47.2862 119.556C47.352 119.716 47.4536 120.533 47.5121 121.372C47.5705 122.211 47.6342 123.061 47.6535 123.26C47.6729 123.46 47.6939 124.097 47.7004 124.677C47.7118 125.696 47.7237 125.73 48.0701 125.73C48.267 125.73 48.7406 125.631 49.1227 125.511C50.9512 124.934 51.3012 124.815 51.7268 124.626C51.9784 124.514 52.257 124.422 52.3458 124.422C52.4347 124.422 52.6208 124.36 52.7595 124.285C52.8981 124.209 53.5669 123.876 54.2456 123.545C56.2919 122.547 59.182 120.142 59.182 119.438C59.182 119.273 59.0411 118.848 58.8689 118.492C58.4955 117.72 58.2123 116.031 58.0242 113.455C57.8442 110.985 57.6218 109.092 57.4271 108.37C56.8903 106.38 56.7453 105.925 56.371 105.06C56.24 104.758 56.133 104.42 56.133 104.31C56.133 104.199 56.0841 104.087 56.0241 104.061C55.9642 104.034 55.6866 103.555 55.4071 102.995C55.1276 102.436 54.8663 101.946 54.8264 101.906C54.7214 101.801 54.2928 100.871 53.6875 99.4362C53.6032 99.2364 53.4218 98.6553 53.2845 98.1449C53.0436 97.2505 53.0443 97.2098 53.3048 97.019C53.4535 96.9104 53.6954 96.8213 53.8424 96.8213C54.2764 96.8213 54.2957 96.4534 53.9168 95.4087C53.4211 94.0426 53.0841 92.8594 53.0841 92.4849C53.0841 92.311 53.0208 92.0552 52.9436 91.9165C52.8662 91.7777 52.7396 91.2067 52.6623 90.6474C52.585 90.0881 52.4896 89.4671 52.4504 89.2673C52.4112 89.0676 52.2731 87.989 52.1437 86.8704C52.0144 85.7518 51.8464 84.5579 51.7703 84.2172C51.6944 83.8764 51.6322 83.3497 51.6322 83.0465C51.6322 82.7433 51.545 82.3759 51.4384 82.2301C51.2551 81.979 51.2237 81.9872 50.854 82.3839ZM0.270647 90.4658C0.190214 90.5658 0.0801619 90.855 0.025862 91.1088C-0.0796888 91.6031 0.157837 94.1397 0.377214 94.8602C0.450243 95.0999 0.621999 95.7536 0.759056 96.3129C1.44289 99.1041 2.61745 100.733 3.3113 99.8527C3.64072 99.4349 3.60719 98.3328 3.22796 97.1119C2.86252 95.9358 2.60395 94.8907 2.11525 92.6161C1.97529 91.9648 1.75504 91.2136 1.52738 90.6111C1.43258 90.3605 1.2887 90.2842 0.91034 90.2842C0.638841 90.2842 0.351081 90.366 0.270647 90.4658ZM49.5996 97.939C49.2815 98.0528 49.0187 98.4312 49.0198 98.7739C49.0203 98.9385 49.4123 99.8484 49.8909 100.796C50.3696 101.744 50.7611 102.584 50.7611 102.663C50.7611 102.742 50.8524 103.012 50.9642 103.264C51.0759 103.516 51.2807 104.081 51.4195 104.521C51.5583 104.96 51.7192 105.45 51.777 105.61C51.8346 105.77 51.9956 106.293 52.1346 106.772C52.2734 107.252 52.4459 107.757 52.5179 107.896C52.5898 108.035 52.6486 108.24 52.6486 108.352C52.6486 108.463 52.7412 108.873 52.8544 109.261C53.9237 112.933 54.3375 115.236 54.5109 118.48C54.6139 120.411 54.7133 120.694 55.3435 120.853C55.8226 120.973 56.199 120.752 56.4186 120.221C56.7285 119.473 56.489 115.826 55.9887 113.673C55.9237 113.393 55.7592 112.641 55.6228 112.002C55.4867 111.363 55.3209 110.709 55.2544 110.549C55.188 110.389 55.0889 110.032 55.0341 109.755C54.9794 109.478 54.8857 109.151 54.8259 109.029C54.7663 108.906 54.6036 108.414 54.4646 107.934C54.3256 107.455 54.1607 106.932 54.098 106.772C53.9727 106.453 53.443 104.761 52.9382 103.068C52.7595 102.469 52.5559 101.916 52.4858 101.84C52.4155 101.764 52.3582 101.552 52.3582 101.368C52.3582 101.184 52.2928 101.034 52.213 101.034C52.1331 101.034 52.0678 100.958 52.0678 100.864C52.0678 100.489 51.1187 98.7534 50.6714 98.3103C50.2017 97.8452 50.0292 97.7853 49.5996 97.939ZM58.3114 104.415C58.3123 104.641 58.9735 106.539 59.0928 106.659C59.1419 106.708 59.182 106.963 59.182 107.225C59.182 107.488 59.247 107.853 59.3266 108.037C59.48 108.391 59.6445 109.465 59.9783 112.292C60.4372 116.181 60.6261 117.345 60.832 117.551C60.9265 117.645 61.1308 117.44 61.7963 116.578C62.0741 116.218 62.3508 115.902 62.4114 115.876C62.4718 115.849 62.5213 115.743 62.5213 115.639C62.5213 115.536 62.6193 115.37 62.739 115.27C63.0123 115.044 63.0177 114.545 62.7525 114.011C62.2916 113.084 61.9682 112.084 61.586 110.404C61.0237 107.933 60.5341 106.441 60.0146 105.616C59.5333 104.851 58.31 103.988 58.3114 104.415ZM47.1631 107.798C46.8142 108.042 46.819 108.196 47.2155 109.46C48.058 112.144 48.1218 112.354 48.7831 114.617C48.8998 115.016 49.0716 115.703 49.1649 116.142C49.2582 116.582 49.3953 117.182 49.4698 117.476C49.5443 117.77 49.6696 118.62 49.7483 119.364C50.1296 122.972 50.2281 123.441 50.7128 123.95C50.9892 124.241 51.5923 124.165 51.8417 123.809C52.1333 123.393 52.1427 121.69 51.8608 120.376C51.671 119.491 51.5644 118.858 51.1851 116.36C50.9323 114.696 50.542 112.943 50.3269 112.506C50.2666 112.383 50.168 112.058 50.1078 111.784C50.0475 111.51 49.9458 111.185 49.8816 111.062C49.8173 110.94 49.5613 110.415 49.3126 109.896C48.7408 108.702 48.6003 108.475 48.1226 107.976C47.6727 107.507 47.5982 107.493 47.1631 107.798ZM63.0339 107.825C63.1675 108.14 63.3311 108.83 63.5418 109.968C63.6306 110.448 63.7723 111.101 63.8567 111.421L64.0103 112.002L64.1943 111.566C64.2954 111.326 64.4557 110.673 64.5505 110.113C64.6453 109.554 64.7551 108.933 64.7946 108.733C64.8575 108.416 64.7696 108.32 64.093 107.968C63.1885 107.498 62.877 107.456 63.0339 107.825ZM83.283 123.245C82.6042 123.392 81.7549 123.624 81.3956 123.759C81.0362 123.895 80.6115 124.045 80.4518 124.093C79.908 124.256 78.4024 125.284 77.9019 125.835C77.1843 126.624 77.0157 127.03 77.0671 127.844C77.1105 128.53 77.1332 128.565 77.5619 128.606C78.0279 128.652 78.1605 128.55 79.027 127.484C79.5582 126.83 80.8595 125.999 81.9226 125.634C83.6142 125.054 83.8482 124.994 84.7565 124.911C85.4987 124.843 85.8486 124.89 86.5497 125.151C87.779 125.608 88.6794 125.792 89.1347 125.677C89.4745 125.592 89.526 125.506 89.526 125.023C89.526 124.43 89.2587 124.02 88.6549 123.687C87.4795 123.038 85.1274 122.844 83.283 123.245ZM67.5768 126.495C67.1643 126.891 65.1483 128.345 65.0124 128.345C64.9333 128.345 64.8467 128.397 64.82 128.461C64.7153 128.712 62.5131 130.13 60.9242 130.969C60.4052 131.244 59.9587 131.517 59.9321 131.577C59.9054 131.637 59.7964 131.686 59.6898 131.686C59.4568 131.686 58.5485 132.149 58.4803 132.303C58.4536 132.363 58.3654 132.412 58.2844 132.412C58.2033 132.412 57.931 132.504 57.6794 132.616C56.8315 132.994 55.185 133.574 54.9612 133.574C54.8391 133.574 54.6772 133.636 54.6013 133.711C54.5255 133.787 54.2021 133.913 53.8826 133.992C53.5632 134.072 52.9099 134.241 52.4308 134.369C51.4868 134.621 50.5056 134.792 48.5833 135.039C46.9595 135.248 42.8556 135.165 42.6089 134.918C42.3856 134.695 41.5537 134.681 41.1554 134.894C40.9118 135.025 40.8774 135.141 40.9568 135.564C41.1313 136.495 41.8165 136.962 43.3856 137.221C44.2679 137.367 44.7767 137.369 45.7978 137.233C46.5095 137.138 47.4201 137.061 47.8215 137.061C48.2228 137.061 49.0648 136.968 49.6926 136.855C50.3202 136.741 51.0297 136.615 51.2693 136.575C52.0192 136.448 53.1444 136.177 53.4471 136.052C53.6068 135.985 54.1621 135.818 54.6812 135.681C55.2002 135.543 55.7556 135.38 55.9153 135.317C56.7827 134.977 57.5511 134.737 57.7712 134.737C57.9084 134.737 58.0205 134.687 58.0205 134.625C58.0205 134.564 58.3635 134.394 58.7827 134.246C60.5313 133.631 65.8005 130.778 65.9815 130.348C66.0082 130.285 66.0942 130.233 66.1727 130.233C66.3481 130.233 67.2756 129.547 67.6734 129.122C68.775 127.947 69.0804 127.265 68.7671 126.679C68.5487 126.271 67.9129 126.173 67.5768 126.495ZM66.4833 132.959C66.1807 133.26 65.6391 133.734 65.2798 134.012C64.9205 134.289 64.6047 134.566 64.5781 134.627C64.5514 134.687 64.4425 134.737 64.3361 134.737C64.2297 134.737 64.1208 134.788 64.0941 134.85C64.0238 135.016 61.4312 136.625 61.2352 136.625C61.144 136.625 61.0694 136.689 61.0694 136.768C61.0694 136.846 60.9061 136.951 60.7064 137.001C60.5068 137.051 60.3435 137.151 60.3435 137.222C60.3435 137.293 60.2829 137.351 60.2089 137.351C60.1348 137.351 59.5632 137.588 58.9385 137.877C56.8993 138.82 55.7839 139.229 55.2285 139.235C54.2521 139.247 52.7937 140.19 52.7937 140.81C52.7937 141.535 54.4229 141.803 55.8958 141.32C57.7707 140.705 60.6164 139.308 63.0455 137.809C63.4535 137.557 63.8619 137.351 63.9529 137.351C64.0438 137.351 64.1183 137.286 64.1183 137.206C64.1183 137.126 64.2117 137.061 64.3258 137.061C64.4398 137.061 64.6195 136.979 64.7251 136.879C64.8305 136.779 65.1619 136.568 65.4613 136.41C65.7608 136.252 66.0057 136.073 66.0057 136.011C66.0057 135.949 66.0875 135.898 66.1872 135.898C66.5302 135.896 67.7622 134.701 68.1891 133.957C68.8845 132.743 68.7575 132.412 67.5966 132.412C67.1394 132.412 66.9297 132.515 66.4833 132.959ZM66.8115 139.233C66.0982 139.876 65.4003 140.402 65.2607 140.402C65.1208 140.402 64.9662 140.467 64.9168 140.547C64.8675 140.627 64.6677 140.693 64.4727 140.693C64.1867 140.693 64.1183 140.766 64.1183 141.075C64.1183 141.709 64.6075 142 65.672 142C66.4779 142 66.7012 141.935 67.3644 141.511C68.5134 140.776 69.5727 139.242 69.4634 138.472C69.425 138.202 69.3121 138.143 68.763 138.108C68.1279 138.066 68.0699 138.1 66.8115 139.233Z" fill="#D4B7AA"/>
</g>
<defs>
<clipPath id="clip0_570_193">
<rect width="158" height="142" fill="white"/>
</clipPath>
</defs>
</svg>
