<svg width="32" height="33" viewBox="0 0 32 33" fill="none" xmlns="http://www.w3.org/2000/svg">
<g clip-path="url(#clip0_520_6003)">
<path d="M16 2.5C17.0608 2.5 18.0782 2.92143 18.8284 3.67157C19.5785 4.42172 20 5.43913 20 6.5V10.5H12V6.5C12 5.43913 12.4214 4.42172 13.1715 3.67157C13.9217 2.92143 14.9391 2.5 16 2.5ZM22 10.5V6.5C22 4.9087 21.3678 3.38258 20.2426 2.25736C19.1174 1.13214 17.5913 0.5 16 0.5C14.4087 0.5 12.8825 1.13214 11.7573 2.25736C10.6321 3.38258 9.99996 4.9087 9.99996 6.5V10.5H6.71996C6.00171 10.5002 5.30735 10.758 4.76308 11.2267C4.21881 11.6953 3.86074 12.3437 3.75396 13.054L1.69996 26.76C1.59354 27.4712 1.64176 28.1969 1.84134 28.8878C2.04092 29.5786 2.38717 30.2182 2.85645 30.7631C3.32574 31.3079 3.90702 31.7451 4.56065 32.0449C5.21428 32.3446 5.92488 32.4999 6.64396 32.5H25.354C26.0732 32.5002 26.784 32.3451 27.4379 32.0455C28.0918 31.7459 28.6733 31.3087 29.1428 30.7638C29.6123 30.219 29.9587 29.5792 30.1584 28.8882C30.3581 28.1973 30.4064 27.4713 30.3 26.76L28.244 13.054C28.1372 12.3441 27.7795 11.696 27.2356 11.2273C26.6917 10.7587 25.9979 10.5006 25.28 10.5H22ZM20 12.5V15.5C20 15.7652 20.1053 16.0196 20.2929 16.2071C20.4804 16.3946 20.7347 16.5 21 16.5C21.2652 16.5 21.5195 16.3946 21.7071 16.2071C21.8946 16.0196 22 15.7652 22 15.5V12.5H25.278C25.5174 12.5002 25.7487 12.5864 25.93 12.7427C26.1113 12.899 26.2305 13.1152 26.266 13.352L28.322 27.054C28.3861 27.4808 28.3574 27.9165 28.2379 28.3312C28.1183 28.7459 27.9106 29.1299 27.6291 29.457C27.3475 29.7842 26.9987 30.0467 26.6064 30.2267C26.2141 30.4067 25.7876 30.4999 25.356 30.5H6.64396C6.21235 30.4999 5.78584 30.4067 5.39355 30.2267C5.00126 30.0467 4.65243 29.7842 4.37086 29.457C4.0893 29.1299 3.88164 28.7459 3.76206 28.3312C3.64248 27.9165 3.61379 27.4808 3.67796 27.054L5.73396 13.352C5.76934 13.1156 5.88825 12.8996 6.06913 12.7433C6.25001 12.587 6.4809 12.5007 6.71996 12.5H9.99996V15.5C9.99996 15.7652 10.1053 16.0196 10.2929 16.2071C10.4804 16.3946 10.7347 16.5 11 16.5C11.2652 16.5 11.5195 16.3946 11.7071 16.2071C11.8946 16.0196 12 15.7652 12 15.5V12.5H20Z" fill="#54372A"/>
</g>
<defs>
<clipPath id="clip0_520_6003">
<rect width="32" height="32" fill="white" transform="translate(0 0.5)"/>
</clipPath>
</defs>
</svg>
