<svg width="32" height="33" viewBox="0 0 32 33" fill="none" xmlns="http://www.w3.org/2000/svg">
<g clip-path="url(#clip0_524_6299)">
<path d="M0 16.5C0 12.2565 1.68571 8.18687 4.68629 5.18629C7.68687 2.18571 11.7565 0.5 16 0.5C20.2435 0.5 24.3131 2.18571 27.3137 5.18629C30.3143 8.18687 32 12.2565 32 16.5C32 20.7435 30.3143 24.8131 27.3137 27.8137C24.3131 30.8143 20.2435 32.5 16 32.5C11.7565 32.5 7.68687 30.8143 4.68629 27.8137C1.68571 24.8131 0 20.7435 0 16.5ZM15 2.654C13.66 3.062 12.33 4.294 11.226 6.364C10.94 6.9 10.674 7.484 10.436 8.108C11.846 8.422 13.38 8.622 15 8.682V2.654ZM8.498 7.578C8.782 6.81 9.106 6.09 9.46 5.422C9.80581 4.76811 10.2052 4.14398 10.654 3.556C8.95133 4.2616 7.4045 5.29599 6.102 6.6C6.826 6.968 7.628 7.298 8.498 7.58V7.578ZM7.018 15.5C7.09 13.36 7.394 11.326 7.89 9.484C6.8074 9.13778 5.75951 8.69118 4.76 8.15C3.16709 10.2887 2.22164 12.8397 2.036 15.5H7.016H7.018ZM9.818 10.018C9.3465 11.8095 9.07814 13.6484 9.018 15.5H15V10.682C13.18 10.622 11.434 10.392 9.818 10.018ZM17 10.68V15.5H22.98C22.9205 13.6485 22.6529 11.8096 22.182 10.018C20.566 10.392 18.82 10.62 17 10.682V10.68ZM9.02 17.5C9.09 19.474 9.372 21.328 9.818 22.982C11.5201 22.5957 13.2554 22.374 15 22.32V17.5H9.02ZM17 17.5V22.318C18.82 22.378 20.566 22.608 22.182 22.982C22.628 21.328 22.91 19.474 22.982 17.5H17ZM10.436 24.892C10.676 25.516 10.94 26.1 11.226 26.636C12.33 28.706 13.662 29.936 15 30.346V24.32C13.38 24.38 11.846 24.58 10.436 24.894V24.892ZM10.656 29.444C10.2065 28.8561 9.80642 28.232 9.46 27.578C9.09164 26.8809 8.77026 26.16 8.498 25.42C7.67526 25.6844 6.87421 26.0121 6.102 26.4C7.4045 27.704 8.95133 28.7384 10.654 29.444H10.656ZM7.89 23.516C7.37075 21.5504 7.07752 19.5321 7.016 17.5H2.036C2.22153 20.1603 3.16699 22.7113 4.76 24.85C5.7 24.334 6.75 23.886 7.89 23.516ZM21.346 29.444C23.0478 28.7388 24.5939 27.7051 25.896 26.402C25.1245 26.0141 24.3241 25.6865 23.502 25.422C23.2297 26.1613 22.9083 26.8815 22.54 27.578C22.1943 28.2319 21.7949 28.8561 21.346 29.444ZM17 24.318V30.346C18.34 29.938 19.67 28.706 20.774 26.636C21.06 26.1 21.326 25.516 21.564 24.892C20.0632 24.5629 18.5356 24.3715 17 24.32V24.318ZM24.11 23.516C25.25 23.886 26.3 24.334 27.24 24.85C28.833 22.7113 29.7785 20.1603 29.964 17.5H24.984C24.9225 19.5321 24.6292 21.5504 24.11 23.516ZM29.964 15.5C29.7785 12.8397 28.833 10.2887 27.24 8.15C26.3 8.666 25.25 9.114 24.11 9.484C24.606 11.324 24.91 13.36 24.984 15.5H29.964ZM22.54 5.422C22.894 6.09 23.218 6.81 23.504 7.578C24.3254 7.31349 25.1251 6.98585 25.896 6.598C24.5937 5.29565 23.0476 4.26264 21.346 3.558C21.782 4.124 22.182 4.752 22.54 5.422ZM21.564 8.108C21.3368 7.51097 21.073 6.92853 20.774 6.364C19.67 4.294 18.34 3.064 17 2.654V8.68C18.62 8.62 20.154 8.42 21.564 8.106V8.108Z" fill="#54372A"/>
</g>
<defs>
<clipPath id="clip0_524_6299">
<rect width="32" height="32" fill="white" transform="translate(0 0.5)"/>
</clipPath>
</defs>
</svg>
